<?xml version="1.0" encoding="utf-8"?>
<!-- Generator: Adobe Illustrator 25.4.1, SVG Export Plug-In . SVG Version: 6.00 Build 0)  -->
<svg version="1.1" id="Camada_1" xmlns="http://www.w3.org/2000/svg" xmlns:xlink="http://www.w3.org/1999/xlink" x="0px" y="0px"
	 viewBox="0 0 430 403" style="enable-background:new 0 0 430 403;" xml:space="preserve">
<style type="text/css">
	.st0{fill:#FFFFFF;}
	.st1{fill:#E63020;}
	.st2{fill:#009FE3;}
	.st3{fill:#4EAD33;}
	.st4{fill:#1D1D1B;}
</style>
<rect x="21.8" y="24.2" class="st0" width="374.9" height="374.9"/>
<rect x="201.5" y="539.2" class="st0" width="374.9" height="374.9"/>
<rect x="588.1" y="539.2" class="st0" width="374.9" height="374.9"/>
<g>
	<path class="st1" d="M214.8,22.6H32.1l0.2,180.7l47,0.2c0-74,60.5-132.9,135.5-133.6 M214.8,22.6v47.2"/>
	<path class="st2" d="M213.9,69.8c75,0.7,135.6,59.5,135.6,133.5l47.1,0.1l-0.1-179.2l-182.7-1.6 M214.8,70.3l-1.1-47.5"/>
	<path class="st3" d="M215.1,339.8c-75-0.7-135.8-62.3-135.8-136.4l-47-0.2L32.4,387h182.7 M215.1,339.8V387"/>
	<g>
		<g>
			<path class="st4" d="M396.6,203.5l-47.1-0.1c0,74-60.6,135.8-135.5,136.4l0,47.2h182.7L396.6,203.5z M334.8,366.8l-5.9-7.6
				l-5.5,7.6h-5l8-10.8l-8.3-10.8h6.1l5.8,7.5l4.9-7.5h5l-7.7,10.5l8.5,11.1H334.8z M368.3,366.8h-23.7c2.3-2.2,4.4-4.3,6.4-6.3
				c2-2.1,3.9-4.1,5.5-6c1.6-1.9,2.9-3.8,3.9-5.6c1-1.8,1.4-3.6,1.4-5.3c0-1.1-0.2-2.1-0.6-2.9c-0.4-0.8-0.9-1.5-1.5-2
				c-0.6-0.5-1.3-0.9-2.1-1.2c-0.8-0.3-1.6-0.4-2.4-0.4c-1.2,0-2.1,0.2-3,0.5c-0.8,0.4-1.5,0.8-2,1.4c-0.5,0.6-0.9,1.2-1.1,1.9
				c-0.2,0.7-0.4,1.3-0.4,2c0,1.1,0.2,2.2,0.6,3.1c0.4,0.9,0.9,1.7,1.5,2.4l-3.1,2.8c-0.8-0.5-1.6-1.2-2.1-2.2c-0.6-0.9-1-2-1.3-3
				c-0.3-1.1-0.5-2.1-0.5-2.9c0-1.9,0.5-3.7,1.4-5.3c1-1.6,2.3-3,4.1-4c1.8-1,4-1.5,6.7-1.5c2.2,0,4.1,0.5,5.8,1.5s2.9,2.3,3.8,4
				c0.9,1.7,1.4,3.5,1.4,5.4c0,1.7-0.4,3.4-1.1,5.1c-0.7,1.7-1.6,3.3-2.8,4.9c-1.2,1.6-2.5,3.2-3.9,4.8c-1.2,1.4-2.4,2.7-3.6,4.1
				h12.5V366.8z"/>
		</g>
	</g>
	<g>
		<g>
			<path class="st0" d="M83.3,57V42.4h4c1.5,0,2.7,0.2,3.8,0.7c1,0.4,1.9,1,2.5,1.8c0.6,0.7,1.1,1.5,1.4,2.4s0.4,1.8,0.4,2.6
				c0,1.1-0.2,2.1-0.6,3c-0.4,0.9-0.9,1.6-1.6,2.2c-0.7,0.6-1.5,1.1-2.3,1.4S89.1,57,88.1,57H83.3z M85.3,55.1h2.4
				c0.8,0,1.6-0.1,2.2-0.4c0.7-0.2,1.3-0.6,1.8-1.1c0.5-0.5,0.9-1,1.2-1.7c0.3-0.7,0.4-1.4,0.4-2.3c0-0.9-0.2-1.7-0.5-2.4
				s-0.7-1.2-1.2-1.7c-0.5-0.5-1.1-0.8-1.8-1c-0.7-0.2-1.3-0.4-2.1-0.4h-2.6V55.1z"/>
			<path class="st0" d="M100.6,51.8c0,0.7,0.2,1.2,0.5,1.8s0.8,0.9,1.3,1.2c0.5,0.3,1.1,0.4,1.8,0.4c0.7,0,1.3-0.1,1.9-0.4
				c0.5-0.3,1-0.7,1.3-1.2c0.3-0.5,0.5-1.1,0.5-1.8v-9.4h2v9.5c0,1.1-0.2,2-0.7,2.8c-0.5,0.8-1.2,1.4-2,1.8
				c-0.8,0.4-1.8,0.6-2.8,0.6c-1,0-2-0.2-2.8-0.6c-0.8-0.4-1.5-1-2-1.8c-0.5-0.8-0.7-1.7-0.7-2.8v-9.5h2V51.8z"/>
			<path class="st0" d="M117.7,42.4c1.1,0,2,0.2,2.8,0.5c0.8,0.4,1.4,0.9,1.8,1.5c0.4,0.7,0.6,1.5,0.6,2.4c0,0.6-0.1,1.1-0.3,1.7
				c-0.2,0.6-0.5,1.1-0.9,1.5c-0.4,0.5-0.9,0.8-1.5,1.1c-0.6,0.3-1.4,0.4-2.3,0.4h-2.2V57h-2V42.4H117.7z M117.9,49.7
				c0.6,0,1.1-0.1,1.5-0.3c0.4-0.2,0.7-0.4,0.9-0.7c0.2-0.3,0.4-0.6,0.5-0.9c0.1-0.3,0.1-0.6,0.1-0.9c0-0.3,0-0.6-0.1-0.9
				c-0.1-0.3-0.3-0.6-0.5-0.9s-0.5-0.5-0.9-0.6c-0.4-0.2-0.8-0.3-1.3-0.3h-2.3v5.5H117.9z"/>
			<path class="st0" d="M126,42.4h2v12.7h7.5V57H126V42.4z"/>
			<path class="st0" d="M138.7,42.4h2V57h-2V42.4z"/>
			<path class="st0" d="M155.9,55.9c-0.2,0.2-0.6,0.3-1,0.5c-0.4,0.2-0.9,0.4-1.5,0.5c-0.6,0.1-1.2,0.2-1.9,0.2
				c-1.1,0-2.2-0.2-3.1-0.6c-0.9-0.4-1.7-0.9-2.4-1.6s-1.1-1.5-1.5-2.3c-0.3-0.9-0.5-1.8-0.5-2.8c0-1.1,0.2-2.1,0.5-3
				s0.9-1.7,1.5-2.4s1.4-1.2,2.3-1.6c0.9-0.4,1.9-0.6,2.9-0.6c0.9,0,1.7,0.1,2.4,0.4c0.7,0.2,1.3,0.5,1.9,0.8l-0.8,1.9
				c-0.4-0.3-0.9-0.5-1.5-0.8c-0.6-0.2-1.2-0.4-1.9-0.4c-0.7,0-1.4,0.1-2.1,0.4c-0.6,0.3-1.2,0.7-1.7,1.2c-0.5,0.5-0.9,1.1-1.2,1.8
				c-0.3,0.7-0.4,1.4-0.4,2.2c0,0.8,0.1,1.5,0.4,2.2c0.3,0.7,0.6,1.3,1.1,1.8c0.5,0.5,1,0.9,1.7,1.2c0.7,0.3,1.4,0.4,2.3,0.4
				c0.8,0,1.4-0.1,2-0.3c0.6-0.2,1.1-0.5,1.5-0.8L155.9,55.9z"/>
			<path class="st0" d="M157.8,57l6.5-15.2h0.1l6.5,15.2h-2.3l-4.8-12.1l1.4-0.9L159.7,57H157.8z M161.6,51.5h5.5l0.7,1.7H161
				L161.6,51.5z"/>
			<path class="st0" d="M173.6,57V42.4h4c1.5,0,2.7,0.2,3.8,0.7c1,0.4,1.9,1,2.5,1.8c0.6,0.7,1.1,1.5,1.4,2.4s0.4,1.8,0.4,2.6
				c0,1.1-0.2,2.1-0.6,3c-0.4,0.9-0.9,1.6-1.6,2.2c-0.7,0.6-1.5,1.1-2.3,1.4s-1.8,0.5-2.8,0.5H173.6z M175.6,55.1h2.4
				c0.8,0,1.6-0.1,2.2-0.4c0.7-0.2,1.3-0.6,1.8-1.1c0.5-0.5,0.9-1,1.2-1.7c0.3-0.7,0.4-1.4,0.4-2.3c0-0.9-0.2-1.7-0.5-2.4
				s-0.7-1.2-1.2-1.7c-0.5-0.5-1.1-0.8-1.8-1c-0.7-0.2-1.3-0.4-2.1-0.4h-2.6V55.1z"/>
			<path class="st0" d="M188.1,49.7c0-1,0.2-2,0.6-2.9c0.4-0.9,0.9-1.7,1.6-2.4c0.7-0.7,1.5-1.2,2.4-1.6c0.9-0.4,1.9-0.6,2.9-0.6
				c1,0,2,0.2,2.9,0.6c0.9,0.4,1.7,0.9,2.4,1.6c0.7,0.7,1.3,1.5,1.7,2.4c0.4,0.9,0.6,1.9,0.6,2.9s-0.2,2-0.6,2.9
				c-0.4,0.9-0.9,1.7-1.6,2.4c-0.7,0.7-1.5,1.2-2.4,1.6c-0.9,0.4-1.9,0.6-2.9,0.6c-1.1,0-2-0.2-2.9-0.6c-0.9-0.4-1.7-0.9-2.4-1.6
				c-0.7-0.7-1.2-1.5-1.6-2.4C188.3,51.8,188.1,50.8,188.1,49.7z M190.2,49.7c0,0.8,0.1,1.5,0.4,2.2c0.3,0.7,0.7,1.3,1.2,1.8
				c0.5,0.5,1.1,0.9,1.8,1.2c0.7,0.3,1.4,0.4,2.2,0.4c0.8,0,1.5-0.1,2.2-0.4c0.7-0.3,1.2-0.7,1.7-1.2c0.5-0.5,0.9-1.1,1.2-1.8
				s0.4-1.4,0.4-2.2c0-0.8-0.1-1.5-0.4-2.2s-0.7-1.3-1.2-1.8c-0.5-0.5-1.1-0.9-1.8-1.2c-0.7-0.3-1.4-0.4-2.2-0.4
				c-0.8,0-1.5,0.1-2.2,0.4c-0.7,0.3-1.3,0.7-1.8,1.2c-0.5,0.5-0.9,1.1-1.2,1.8C190.3,48.2,190.2,49,190.2,49.7z"/>
			<path class="st0" d="M210.6,42.4c0.8,0,1.4,0.1,2.1,0.3c0.6,0.2,1.2,0.5,1.7,0.9c0.5,0.4,0.8,0.9,1.1,1.4
				c0.3,0.6,0.4,1.2,0.4,1.9c0,0.6-0.1,1.1-0.3,1.7c-0.2,0.6-0.5,1.1-0.8,1.5c-0.4,0.5-0.9,0.8-1.5,1.1c-0.6,0.3-1.4,0.4-2.4,0.4
				h-2.2V57h-2V42.4H210.6z M210.8,49.7c0.6,0,1.1-0.1,1.5-0.3c0.4-0.2,0.7-0.4,0.9-0.7c0.2-0.3,0.4-0.6,0.5-0.9
				c0.1-0.3,0.1-0.6,0.1-0.9c0-0.3-0.1-0.6-0.2-0.9c-0.1-0.3-0.3-0.6-0.5-0.9c-0.2-0.3-0.5-0.5-0.9-0.7c-0.4-0.2-0.8-0.3-1.3-0.3
				h-2.3v5.5H210.8z M213.2,50.9l3.9,6.1h-2.3l-4-6.1L213.2,50.9z"/>
			<path class="st0" d="M226.6,57V42.4h4c1.5,0,2.7,0.2,3.8,0.7c1,0.4,1.9,1,2.5,1.8c0.6,0.7,1.1,1.5,1.4,2.4s0.4,1.8,0.4,2.6
				c0,1.1-0.2,2.1-0.6,3c-0.4,0.9-0.9,1.6-1.6,2.2c-0.7,0.6-1.5,1.1-2.3,1.4s-1.8,0.5-2.8,0.5H226.6z M228.6,55.1h2.4
				c0.8,0,1.6-0.1,2.2-0.4c0.7-0.2,1.3-0.6,1.8-1.1c0.5-0.5,0.9-1,1.2-1.7c0.3-0.7,0.4-1.4,0.4-2.3c0-0.9-0.2-1.7-0.5-2.4
				s-0.7-1.2-1.2-1.7s-1.1-0.8-1.8-1c-0.7-0.2-1.3-0.4-2.1-0.4h-2.6V55.1z"/>
			<path class="st0" d="M242.1,42.4h9.6v1.9h-7.7v4.4h6.8v1.9h-6.8v4.5h7.9V57h-9.9V42.4z"/>
			<path class="st0" d="M265.9,42.4c1.1,0,2,0.2,2.8,0.5c0.8,0.4,1.4,0.9,1.8,1.5c0.4,0.7,0.6,1.5,0.6,2.4c0,0.6-0.1,1.1-0.3,1.7
				c-0.2,0.6-0.5,1.1-0.9,1.5c-0.4,0.5-0.9,0.8-1.5,1.1c-0.6,0.3-1.4,0.4-2.3,0.4h-2.2V57h-2V42.4H265.9z M266.1,49.7
				c0.6,0,1.1-0.1,1.5-0.3c0.4-0.2,0.7-0.4,0.9-0.7c0.2-0.3,0.4-0.6,0.5-0.9c0.1-0.3,0.1-0.6,0.1-0.9c0-0.3,0-0.6-0.1-0.9
				s-0.3-0.6-0.5-0.9c-0.2-0.3-0.5-0.5-0.9-0.6c-0.4-0.2-0.8-0.3-1.3-0.3h-2.3v5.5H266.1z"/>
			<path class="st0" d="M273.2,49.7c0-1,0.2-2,0.6-2.9c0.4-0.9,0.9-1.7,1.6-2.4c0.7-0.7,1.5-1.2,2.4-1.6c0.9-0.4,1.9-0.6,2.9-0.6
				c1,0,2,0.2,2.9,0.6c0.9,0.4,1.7,0.9,2.4,1.6c0.7,0.7,1.3,1.5,1.7,2.4c0.4,0.9,0.6,1.9,0.6,2.9s-0.2,2-0.6,2.9
				c-0.4,0.9-0.9,1.7-1.6,2.4c-0.7,0.7-1.5,1.2-2.4,1.6c-0.9,0.4-1.9,0.6-2.9,0.6c-1.1,0-2-0.2-2.9-0.6c-0.9-0.4-1.7-0.9-2.4-1.6
				c-0.7-0.7-1.2-1.5-1.6-2.4S273.2,50.8,273.2,49.7z M275.3,49.7c0,0.8,0.1,1.5,0.4,2.2c0.3,0.7,0.7,1.3,1.2,1.8
				c0.5,0.5,1.1,0.9,1.8,1.2c0.7,0.3,1.4,0.4,2.2,0.4c0.8,0,1.5-0.1,2.2-0.4c0.7-0.3,1.2-0.7,1.7-1.2c0.5-0.5,0.9-1.1,1.2-1.8
				s0.4-1.4,0.4-2.2c0-0.8-0.1-1.5-0.4-2.2s-0.7-1.3-1.2-1.8c-0.5-0.5-1.1-0.9-1.8-1.2c-0.7-0.3-1.4-0.4-2.2-0.4
				c-0.8,0-1.5,0.1-2.2,0.4c-0.7,0.3-1.3,0.7-1.8,1.2c-0.5,0.5-0.9,1.1-1.2,1.8C275.4,48.2,275.3,49,275.3,49.7z"/>
			<path class="st0" d="M304.6,57.5L293.1,46l0.6,0.1l0,10.9h-2V42h0.1l11.3,11.5l-0.5-0.1l0-11h2L304.6,57.5L304.6,57.5z"/>
			<path class="st0" d="M307.8,42.4h9.9v1.9h-4V57h-2V44.3h-3.9V42.4z"/>
			<path class="st0" d="M319.9,49.7c0-1,0.2-2,0.6-2.9c0.4-0.9,0.9-1.7,1.6-2.4c0.7-0.7,1.5-1.2,2.4-1.6c0.9-0.4,1.9-0.6,2.9-0.6
				c1,0,2,0.2,2.9,0.6c0.9,0.4,1.7,0.9,2.4,1.6c0.7,0.7,1.3,1.5,1.7,2.4c0.4,0.9,0.6,1.9,0.6,2.9s-0.2,2-0.6,2.9
				c-0.4,0.9-0.9,1.7-1.6,2.4c-0.7,0.7-1.5,1.2-2.4,1.6c-0.9,0.4-1.9,0.6-2.9,0.6c-1.1,0-2-0.2-2.9-0.6c-0.9-0.4-1.7-0.9-2.4-1.6
				c-0.7-0.7-1.2-1.5-1.6-2.4C320.1,51.8,319.9,50.8,319.9,49.7z M322,49.7c0,0.8,0.1,1.5,0.4,2.2c0.3,0.7,0.7,1.3,1.2,1.8
				c0.5,0.5,1.1,0.9,1.8,1.2c0.7,0.3,1.4,0.4,2.2,0.4c0.8,0,1.5-0.1,2.2-0.4c0.7-0.3,1.2-0.7,1.7-1.2c0.5-0.5,0.9-1.1,1.2-1.8
				s0.4-1.4,0.4-2.2c0-0.8-0.1-1.5-0.4-2.2s-0.7-1.3-1.2-1.8c-0.5-0.5-1.1-0.9-1.8-1.2c-0.7-0.3-1.4-0.4-2.2-0.4
				c-0.8,0-1.5,0.1-2.2,0.4c-0.7,0.3-1.3,0.7-1.8,1.2c-0.5,0.5-0.9,1.1-1.2,1.8C322.1,48.2,322,49,322,49.7z"/>
			<path class="st0" d="M346.1,45c-0.5-0.3-1.1-0.5-1.7-0.7c-0.6-0.2-1.2-0.3-1.8-0.3c-0.8,0-1.4,0.2-1.9,0.5
				c-0.5,0.4-0.7,0.8-0.7,1.5c0,0.5,0.2,0.8,0.5,1.2c0.3,0.3,0.7,0.6,1.2,0.8c0.5,0.2,1,0.4,1.5,0.6c0.5,0.2,0.9,0.4,1.4,0.6
				c0.5,0.2,0.9,0.5,1.2,0.8c0.4,0.3,0.7,0.7,0.9,1.2c0.2,0.5,0.3,1.1,0.3,1.7c0,0.8-0.2,1.5-0.6,2.1c-0.4,0.6-0.9,1.1-1.7,1.5
				c-0.7,0.4-1.6,0.5-2.6,0.5c-0.6,0-1.3-0.1-1.9-0.2c-0.6-0.1-1.1-0.3-1.7-0.6c-0.5-0.2-1-0.5-1.4-0.7l0.9-1.5
				c0.3,0.2,0.7,0.4,1.1,0.7s0.9,0.4,1.3,0.5s0.9,0.2,1.4,0.2c0.5,0,0.9-0.1,1.4-0.2s0.8-0.4,1.1-0.8c0.3-0.3,0.5-0.8,0.5-1.4
				c0-0.5-0.1-0.9-0.4-1.2s-0.6-0.6-1-0.9c-0.4-0.2-0.9-0.4-1.4-0.6c-0.5-0.2-1-0.3-1.4-0.6c-0.5-0.2-0.9-0.5-1.3-0.8
				c-0.4-0.3-0.7-0.7-1-1.1s-0.4-1-0.4-1.6c0-0.8,0.2-1.4,0.6-2c0.4-0.6,0.9-1,1.5-1.4c0.7-0.3,1.4-0.5,2.3-0.5c1,0,1.8,0.1,2.5,0.3
				c0.7,0.2,1.4,0.5,1.9,0.8L346.1,45z"/>
		</g>
	</g>
	<g>
		<g>
			<path class="st4" d="M205.4,251.4h-17.1L140.1,189h17.6L205.4,251.4z M172.1,228.2l-16.8,23.2h-14.4l24.3-32.5L172.1,228.2z
				 M173.4,212.2l15.1-23.2h14.5l-24.5,33.4L173.4,212.2z"/>
			<path class="st4" d="M216.4,251.4c6.5-6.2,12.7-12.4,18.6-18.4c5.9-6,11.2-11.8,15.9-17.5c4.7-5.6,8.4-11,11.2-16.3
				c2.8-5.2,4.1-10.3,4.1-15.4c0-3.3-0.5-6.1-1.6-8.4c-1.1-2.3-2.5-4.2-4.2-5.8c-1.7-1.6-3.7-2.7-6-3.5c-2.2-0.8-4.6-1.1-7-1.1
				c-3.4,0-6.2,0.5-8.6,1.6c-2.3,1.1-4.2,2.4-5.7,4.1c-1.4,1.7-2.5,3.5-3.2,5.5c-0.7,2-1.1,3.8-1.1,5.6c0,3.3,0.5,6.3,1.6,9
				c1.1,2.7,2.5,5,4.4,7l-9,8c-2.4-1.5-4.5-3.6-6.2-6.3c-1.7-2.7-3-5.6-3.9-8.8s-1.4-5.9-1.4-8.4c0-5.5,1.4-10.7,4.1-15.4
				c2.8-4.8,6.7-8.6,12-11.5c5.2-2.9,11.7-4.4,19.3-4.4c6.4,0,12,1.5,16.7,4.4c4.7,2.9,8.4,6.8,11.1,11.6c2.6,4.8,4,10,4,15.7
				c0,5-1,9.9-3.1,14.8c-2,4.8-4.8,9.6-8.2,14.2c-3.4,4.7-7.2,9.3-11.2,13.9c-4.1,4.6-8.2,9.2-12.2,13.9l-6.6-2.1H285v14H216.4z"/>
		</g>
	</g>
	<rect x="306.9" y="332.3" class="st4" width="83.5" height="48.7"/>
</g>
<g>
	<path class="st1" d="M397,537.4H214.3l0.2,180.7l47,0.2c0-74,60.5-132.9,135.5-133.6 M397,537.4v47.2"/>
	<path class="st2" d="M396.1,584.7c75,0.7,135.6,59.5,135.6,133.5l47.1,0.1L578.6,539l-182.7-1.6 M397,585.1l-1.1-47.5"/>
	<path class="st3" d="M397.2,854.6c-75-0.7-135.8-62.3-135.8-136.4l-47-0.2l0.1,183.8h182.7 M397.2,854.6v47.2"/>
	<g>
		<g>
			<path class="st4" d="M578.8,718.3l-47.1-0.1c0,74-60.6,135.8-135.5,136.4l0,47.2h182.7L578.8,718.3z M538.8,872.9
				c-3.7,2.3-7.8,3.7-12.2,4.1c-5.9,0.5-11.4-1-16.3-4.2c-1-0.6-1.5-1.5-1.5-2.7c0-2.9,0-5.8,0-8.7c1.4,0.6,2.8,1.1,4.1,1.7
				c3.3,1.4,6.7,2.8,10,4.2c1.2,0.5,2.3,0.5,3.5,0c4.5-1.9,9-3.8,13.5-5.7c0.2-0.1,0.3-0.1,0.5-0.2c0,0.2,0,0.4,0,0.5
				c0,2.7,0,5.3,0,8C540.5,871.3,539.9,872.2,538.8,872.9z M549.4,855.7c-0.8,0.3-1.6,0.7-2.3,1c-0.3,0.1-0.4,0.2-0.4,0.6
				c0,4.1,0,8.2,0,12.3c0,0.2,0.1,0.4,0.2,0.5c1.2,0.8,1.7,3,1.1,4.5c-0.1,0.2-0.1,0.6,0,0.8c0.5,1.8,1,3.6,1.5,5.4
				c0.1,0.5,0.1,0.9-0.3,1.2c-0.4,0.3-0.8,0.2-1.2-0.1c-1.5-0.9-3-0.9-4.5,0c-0.4,0.2-0.8,0.4-1.2,0.1c-0.5-0.3-0.5-0.7-0.4-1.2
				c0.4-1.7,0.8-3.5,1.2-5.2c0.1-0.3,0-0.7-0.1-1c-0.4-1.4-0.3-2.6,0.5-3.8c0.1-0.2,0.3-0.5,0.5-0.6c0.8-0.3,0.8-0.9,0.8-1.6
				c0-3.4,0-6.7,0-10.1v-0.7c-1.9,0.8-3.7,1.5-5.5,2.3c-4.5,1.9-9.1,3.8-13.6,5.7c-0.7,0.3-1.3,0.3-2.1,0
				c-7.9-3.3-15.9-6.6-23.8-9.9c-0.9-0.4-1.2-0.8-1.2-1.6c0-0.8,0.5-1.2,1.2-1.5c8-3.3,16-6.6,24-9.9c0.6-0.2,1.1-0.3,1.7,0
				c8,3.3,16,6.7,24,10c0.7,0.3,1.1,0.7,1.1,1.5C550.5,854.9,550.1,855.4,549.4,855.7z"/>
		</g>
	</g>
	<g>
		<path class="st4" d="M467.1,703.4c-6.6,2.8-12.9,5.3-19.1,7.9c-15.9,6.6-31.8,13.2-47.6,19.9c-2.5,1-4.7,1.1-7.2,0
			c-27.7-11.6-55.5-23.1-83.2-34.6c-3-1.2-4.3-2.9-4.2-5.4c0.1-2.7,1.8-4.2,4.2-5.2c27.9-11.5,55.8-23,83.7-34.6
			c2.1-0.9,3.9-0.9,6-0.1c27.9,11.6,55.8,23.2,83.7,34.9c2.4,1,3.9,2.6,3.9,5.3c0,2.7-1.6,4.3-4,5.2c-2.7,1.1-5.4,2.3-8.2,3.4
			c-1,0.4-1.5,0.8-1.5,2c0,14.3,0,28.6,0.1,42.9c0,0.6,0.3,1.4,0.7,1.7c4,2.6,5.8,10.5,3.7,15.7c-0.3,0.8-0.4,1.9-0.1,2.8
			c1.7,6.3,3.5,12.5,5.4,18.8c0.5,1.7,0.3,3-1.1,4.1c-1.4,1.1-2.9,0.7-4.3-0.2c-5.2-3.3-10.4-3.3-15.6,0c-1.4,0.9-2.7,1.2-4.1,0.3
			c-1.6-1-1.6-2.5-1.3-4.1c1.4-6.1,2.8-12.2,4.1-18.3c0.2-1.1,0.1-2.5-0.2-3.6c-1.5-4.7-1-9.2,1.6-13.4c0.5-0.8,1.1-1.7,1.9-2
			c2.9-1,2.7-3.2,2.7-5.6c-0.1-11.8,0-23.6,0-35.3C467.1,705.2,467.1,704.4,467.1,703.4z"/>
		<path class="st4" d="M341.4,716.5c5,2.1,9.6,4,14.3,5.9c11.7,4.8,23.4,9.6,35,14.6c4.2,1.8,8.1,1.8,12.3,0
			c15.7-6.6,31.5-13.2,47.3-19.7c0.5-0.2,1.1-0.4,1.9-0.7c0,0.7,0.1,1.3,0.1,1.8c0,9.3-0.1,18.6,0,28c0.1,4.7-1.9,8.1-5.9,10.6
			c-13.1,8.1-27.2,13-42.6,14.2c-20.7,1.6-39.7-3.5-57-14.6c-3.5-2.2-5.3-5.3-5.2-9.5C341.4,736.9,341.4,726.9,341.4,716.5z"/>
	</g>
	<g>
		<g>
			<path class="st0" d="M278.5,570.2l6.5-15.4h0.1l6.5,15.4h-2.3l-4.9-12.3l1.4-0.9l-5.4,13.2H278.5z M282.3,564.6h5.6l0.7,1.7h-6.8
				L282.3,564.6z"/>
			<path class="st0" d="M297.8,567.5c0,1.2-0.2,2.2-0.7,3.1s-1.1,1.5-1.9,1.9c-0.8,0.4-1.7,0.7-2.8,0.7v-1.9c1-0.1,1.8-0.4,2.4-1
				c0.6-0.6,0.9-1.6,0.9-2.8v-12h2V567.5z"/>
			<path class="st0" d="M303.9,565c0,0.7,0.2,1.3,0.5,1.8s0.8,0.9,1.3,1.2c0.5,0.3,1.1,0.4,1.8,0.4c0.7,0,1.3-0.1,1.9-0.4
				c0.6-0.3,1-0.7,1.3-1.2s0.5-1.1,0.5-1.8v-9.5h2v9.6c0,1.1-0.2,2-0.7,2.8c-0.5,0.8-1.2,1.4-2,1.9c-0.9,0.4-1.8,0.7-2.9,0.7
				c-1,0-2-0.2-2.8-0.7s-1.5-1.1-2-1.9c-0.5-0.8-0.7-1.7-0.7-2.8v-9.6h2V565z"/>
			<path class="st0" d="M317.2,570.2v-14.7h4.1c1.5,0,2.8,0.2,3.8,0.7c1,0.4,1.9,1,2.5,1.8c0.6,0.7,1.1,1.6,1.4,2.4
				c0.3,0.9,0.4,1.8,0.4,2.7c0,1.1-0.2,2.1-0.6,3s-0.9,1.6-1.6,2.3c-0.7,0.6-1.5,1.1-2.4,1.4c-0.9,0.3-1.8,0.5-2.8,0.5H317.2z
				 M319.2,568.3h2.4c0.8,0,1.6-0.1,2.3-0.4c0.7-0.2,1.3-0.6,1.8-1.1c0.5-0.5,0.9-1,1.2-1.7c0.3-0.7,0.4-1.4,0.4-2.3
				c0-0.9-0.2-1.7-0.5-2.4s-0.7-1.3-1.2-1.7c-0.5-0.5-1.1-0.8-1.8-1.1c-0.7-0.2-1.4-0.4-2.1-0.4h-2.6V568.3z"/>
			<path class="st0" d="M331.3,570.2l6.5-15.4h0.1l6.5,15.4h-2.3l-4.9-12.3l1.4-0.9l-5.4,13.2H331.3z M335.1,564.6h5.6l0.7,1.7h-6.8
				L335.1,564.6z"/>
			<path class="st0" d="M353.8,570.2v-14.7h4.1c1.5,0,2.8,0.2,3.8,0.7c1,0.4,1.9,1,2.5,1.8c0.6,0.7,1.1,1.6,1.4,2.4
				c0.3,0.9,0.4,1.8,0.4,2.7c0,1.1-0.2,2.1-0.6,3s-0.9,1.6-1.6,2.3c-0.7,0.6-1.5,1.1-2.4,1.4c-0.9,0.3-1.8,0.5-2.8,0.5H353.8z
				 M355.8,568.3h2.4c0.8,0,1.6-0.1,2.3-0.4c0.7-0.2,1.3-0.6,1.8-1.1c0.5-0.5,0.9-1,1.2-1.7c0.3-0.7,0.4-1.4,0.4-2.3
				c0-0.9-0.2-1.7-0.5-2.4s-0.7-1.3-1.2-1.7c-0.5-0.5-1.1-0.8-1.8-1.1c-0.7-0.2-1.4-0.4-2.1-0.4h-2.6V568.3z"/>
			<path class="st0" d="M368.5,562.9c0-1,0.2-2,0.6-2.9c0.4-0.9,0.9-1.7,1.6-2.4c0.7-0.7,1.5-1.2,2.4-1.6s1.9-0.6,3-0.6
				c1,0,2,0.2,2.9,0.6c0.9,0.4,1.7,0.9,2.5,1.6c0.7,0.7,1.3,1.5,1.7,2.4c0.4,0.9,0.6,1.9,0.6,2.9s-0.2,2-0.6,2.9
				c-0.4,0.9-1,1.7-1.7,2.4s-1.5,1.2-2.4,1.6c-0.9,0.4-1.9,0.6-3,0.6c-1.1,0-2.1-0.2-3-0.6c-0.9-0.4-1.7-0.9-2.4-1.6
				c-0.7-0.7-1.3-1.5-1.6-2.4C368.7,564.9,368.5,563.9,368.5,562.9z M370.5,562.9c0,0.8,0.1,1.5,0.4,2.2c0.3,0.7,0.7,1.3,1.2,1.8
				s1.1,0.9,1.8,1.2c0.7,0.3,1.4,0.4,2.2,0.4s1.5-0.1,2.2-0.4c0.7-0.3,1.3-0.7,1.8-1.2c0.5-0.5,0.9-1.1,1.2-1.8
				c0.3-0.7,0.4-1.4,0.4-2.2c0-0.8-0.1-1.5-0.4-2.2c-0.3-0.7-0.7-1.3-1.2-1.8c-0.5-0.5-1.1-0.9-1.8-1.2s-1.4-0.4-2.2-0.4
				c-0.8,0-1.5,0.1-2.2,0.4c-0.7,0.3-1.3,0.7-1.8,1.2c-0.5,0.5-0.9,1.1-1.2,1.8S370.5,562.1,370.5,562.9z"/>
			<path class="st0" d="M397.7,555.5c1.1,0,2,0.2,2.8,0.5c0.8,0.4,1.4,0.9,1.8,1.6s0.6,1.5,0.6,2.5c0,0.6-0.1,1.2-0.3,1.7
				c-0.2,0.6-0.5,1.1-0.9,1.5c-0.4,0.5-0.9,0.8-1.5,1.1c-0.6,0.3-1.4,0.4-2.3,0.4h-2.2v5.4h-2v-14.7H397.7z M397.9,562.9
				c0.6,0,1.1-0.1,1.5-0.3c0.4-0.2,0.7-0.4,0.9-0.7c0.2-0.3,0.4-0.6,0.5-0.9s0.1-0.6,0.1-0.9c0-0.3,0-0.6-0.1-0.9
				c-0.1-0.3-0.3-0.6-0.5-0.9c-0.2-0.3-0.5-0.5-0.9-0.7c-0.4-0.2-0.8-0.3-1.4-0.3h-2.3v5.5H397.9z"/>
			<path class="st0" d="M410,555.5c0.8,0,1.5,0.1,2.1,0.3c0.6,0.2,1.2,0.5,1.7,0.9c0.5,0.4,0.8,0.9,1.1,1.4c0.3,0.6,0.4,1.2,0.4,2
				c0,0.6-0.1,1.2-0.3,1.7c-0.2,0.6-0.5,1.1-0.8,1.5c-0.4,0.5-0.9,0.8-1.6,1.1c-0.6,0.3-1.4,0.4-2.4,0.4H408v5.4h-2v-14.7H410z
				 M410.2,562.9c0.6,0,1.1-0.1,1.5-0.3c0.4-0.2,0.7-0.4,0.9-0.7c0.2-0.3,0.4-0.6,0.5-0.9c0.1-0.3,0.1-0.6,0.1-0.9
				c0-0.3-0.1-0.6-0.2-0.9c-0.1-0.3-0.3-0.6-0.5-0.9c-0.2-0.3-0.5-0.5-0.9-0.7c-0.4-0.2-0.8-0.3-1.3-0.3H408v5.5H410.2z M412.7,564
				l3.9,6.2h-2.3l-4-6.1L412.7,564z"/>
			<path class="st0" d="M418.7,562.9c0-1,0.2-2,0.6-2.9c0.4-0.9,0.9-1.7,1.6-2.4c0.7-0.7,1.5-1.2,2.4-1.6s1.9-0.6,3-0.6
				c1,0,2,0.2,2.9,0.6c0.9,0.4,1.7,0.9,2.5,1.6c0.7,0.7,1.3,1.5,1.7,2.4c0.4,0.9,0.6,1.9,0.6,2.9s-0.2,2-0.6,2.9
				c-0.4,0.9-1,1.7-1.7,2.4s-1.5,1.2-2.4,1.6c-0.9,0.4-1.9,0.6-3,0.6c-1.1,0-2.1-0.2-3-0.6c-0.9-0.4-1.7-0.9-2.4-1.6
				c-0.7-0.7-1.3-1.5-1.6-2.4C418.9,564.9,418.7,563.9,418.7,562.9z M420.8,562.9c0,0.8,0.1,1.5,0.4,2.2c0.3,0.7,0.7,1.3,1.2,1.8
				s1.1,0.9,1.8,1.2c0.7,0.3,1.4,0.4,2.2,0.4s1.5-0.1,2.2-0.4c0.7-0.3,1.3-0.7,1.8-1.2c0.5-0.5,0.9-1.1,1.2-1.8
				c0.3-0.7,0.4-1.4,0.4-2.2c0-0.8-0.1-1.5-0.4-2.2c-0.3-0.7-0.7-1.3-1.2-1.8c-0.5-0.5-1.1-0.9-1.8-1.2s-1.4-0.4-2.2-0.4
				c-0.8,0-1.5,0.1-2.2,0.4c-0.7,0.3-1.3,0.7-1.8,1.2c-0.5,0.5-0.9,1.1-1.2,1.8S420.8,562.1,420.8,562.9z"/>
			<path class="st0" d="M437.4,555.5h8.9v1.9h-6.9v4.7h6v1.9h-6v6.3h-2V555.5z"/>
			<path class="st0" d="M449.6,555.5h9.7v1.9h-7.7v4.5h6.9v1.9h-6.9v4.5h8v1.9h-10V555.5z"/>
			<path class="st0" d="M470.8,558.1c-0.5-0.3-1.1-0.5-1.7-0.7c-0.6-0.2-1.2-0.3-1.8-0.3c-0.8,0-1.4,0.2-1.9,0.6
				c-0.5,0.4-0.7,0.9-0.7,1.5c0,0.5,0.2,0.9,0.5,1.2s0.7,0.6,1.2,0.8c0.5,0.2,1,0.4,1.6,0.7c0.5,0.2,0.9,0.4,1.4,0.6
				c0.5,0.2,0.9,0.5,1.2,0.8c0.4,0.3,0.7,0.7,0.9,1.2c0.2,0.5,0.3,1.1,0.3,1.8c0,0.8-0.2,1.5-0.6,2.1c-0.4,0.6-1,1.1-1.7,1.5
				s-1.6,0.6-2.6,0.6c-0.6,0-1.3-0.1-1.9-0.2c-0.6-0.1-1.2-0.3-1.7-0.6c-0.5-0.2-1-0.5-1.4-0.8l0.9-1.6c0.3,0.2,0.7,0.5,1.1,0.7
				c0.4,0.2,0.9,0.4,1.3,0.5c0.5,0.1,0.9,0.2,1.4,0.2c0.5,0,1-0.1,1.4-0.2c0.5-0.2,0.8-0.4,1.1-0.8c0.3-0.4,0.5-0.8,0.5-1.4
				c0-0.5-0.1-0.9-0.4-1.2c-0.3-0.3-0.6-0.6-1.1-0.9c-0.4-0.2-0.9-0.5-1.4-0.6c-0.5-0.2-1-0.4-1.4-0.6c-0.5-0.2-0.9-0.5-1.3-0.8
				s-0.7-0.7-1-1.1c-0.3-0.4-0.4-1-0.4-1.6c0-0.8,0.2-1.5,0.6-2c0.4-0.6,0.9-1,1.6-1.4c0.7-0.3,1.4-0.5,2.3-0.5c1,0,1.8,0.1,2.6,0.3
				s1.4,0.5,2,0.8L470.8,558.1z"/>
			<path class="st0" d="M482.9,558.1c-0.5-0.3-1.1-0.5-1.7-0.7c-0.6-0.2-1.2-0.3-1.8-0.3c-0.8,0-1.4,0.2-1.9,0.6
				c-0.5,0.4-0.7,0.9-0.7,1.5c0,0.5,0.2,0.9,0.5,1.2s0.7,0.6,1.2,0.8c0.5,0.2,1,0.4,1.6,0.7c0.5,0.2,0.9,0.4,1.4,0.6
				c0.5,0.2,0.9,0.5,1.2,0.8c0.4,0.3,0.7,0.7,0.9,1.2c0.2,0.5,0.3,1.1,0.3,1.8c0,0.8-0.2,1.5-0.6,2.1c-0.4,0.6-1,1.1-1.7,1.5
				s-1.6,0.6-2.6,0.6c-0.6,0-1.3-0.1-1.9-0.2c-0.6-0.1-1.2-0.3-1.7-0.6c-0.5-0.2-1-0.5-1.4-0.8l0.9-1.6c0.3,0.2,0.7,0.5,1.1,0.7
				c0.4,0.2,0.9,0.4,1.3,0.5c0.5,0.1,0.9,0.2,1.4,0.2c0.5,0,1-0.1,1.4-0.2c0.5-0.2,0.8-0.4,1.1-0.8c0.3-0.4,0.5-0.8,0.5-1.4
				c0-0.5-0.1-0.9-0.4-1.2c-0.3-0.3-0.6-0.6-1.1-0.9c-0.4-0.2-0.9-0.5-1.4-0.6c-0.5-0.2-1-0.4-1.4-0.6c-0.5-0.2-0.9-0.5-1.3-0.8
				s-0.7-0.7-1-1.1c-0.3-0.4-0.4-1-0.4-1.6c0-0.8,0.2-1.5,0.6-2c0.4-0.6,0.9-1,1.6-1.4c0.7-0.3,1.4-0.5,2.3-0.5c1,0,1.8,0.1,2.6,0.3
				s1.4,0.5,2,0.8L482.9,558.1z"/>
			<path class="st0" d="M486.2,562.9c0-1,0.2-2,0.6-2.9c0.4-0.9,0.9-1.7,1.6-2.4c0.7-0.7,1.5-1.2,2.4-1.6s1.9-0.6,3-0.6
				c1,0,2,0.2,2.9,0.6c0.9,0.4,1.7,0.9,2.5,1.6c0.7,0.7,1.3,1.5,1.7,2.4c0.4,0.9,0.6,1.9,0.6,2.9s-0.2,2-0.6,2.9
				c-0.4,0.9-1,1.7-1.7,2.4s-1.5,1.2-2.4,1.6c-0.9,0.4-1.9,0.6-3,0.6c-1.1,0-2.1-0.2-3-0.6c-0.9-0.4-1.7-0.9-2.4-1.6
				c-0.7-0.7-1.3-1.5-1.6-2.4C486.4,564.9,486.2,563.9,486.2,562.9z M488.3,562.9c0,0.8,0.1,1.5,0.4,2.2c0.3,0.7,0.7,1.3,1.2,1.8
				s1.1,0.9,1.8,1.2c0.7,0.3,1.4,0.4,2.2,0.4s1.5-0.1,2.2-0.4c0.7-0.3,1.3-0.7,1.8-1.2c0.5-0.5,0.9-1.1,1.2-1.8
				c0.3-0.7,0.4-1.4,0.4-2.2c0-0.8-0.1-1.5-0.4-2.2c-0.3-0.7-0.7-1.3-1.2-1.8c-0.5-0.5-1.1-0.9-1.8-1.2s-1.4-0.4-2.2-0.4
				c-0.8,0-1.5,0.1-2.2,0.4c-0.7,0.3-1.3,0.7-1.8,1.2c-0.5,0.5-0.9,1.1-1.2,1.8S488.3,562.1,488.3,562.9z"/>
			<path class="st0" d="M508.9,555.5c0.8,0,1.5,0.1,2.1,0.3c0.6,0.2,1.2,0.5,1.7,0.9c0.5,0.4,0.8,0.9,1.1,1.4c0.3,0.6,0.4,1.2,0.4,2
				c0,0.6-0.1,1.2-0.3,1.7c-0.2,0.6-0.5,1.1-0.8,1.5c-0.4,0.5-0.9,0.8-1.6,1.1c-0.6,0.3-1.4,0.4-2.4,0.4h-2.2v5.4h-2v-14.7H508.9z
				 M509.1,562.9c0.6,0,1.1-0.1,1.5-0.3c0.4-0.2,0.7-0.4,0.9-0.7c0.2-0.3,0.4-0.6,0.5-0.9c0.1-0.3,0.1-0.6,0.1-0.9
				c0-0.3-0.1-0.6-0.2-0.9c-0.1-0.3-0.3-0.6-0.5-0.9c-0.2-0.3-0.5-0.5-0.9-0.7c-0.4-0.2-0.8-0.3-1.3-0.3h-2.3v5.5H509.1z M511.5,564
				l3.9,6.2h-2.3l-4-6.1L511.5,564z"/>
		</g>
	</g>
	<rect x="490.1" y="839" class="st4" width="78.3" height="55"/>
</g>
<g>
	<path class="st1" d="M781.2,536H598.5l0.2,180.7l47,0.2c0-74,60.5-132.9,135.5-133.6 M781.1,536v47.2"/>
	<path class="st2" d="M780.3,583.2c75,0.7,135.6,59.5,135.6,133.5l47.1,0.1l-0.1-179.2L780.1,536 M781.2,583.7l-1.1-47.5"/>
	<path class="st3" d="M781.4,853.2c-75-0.7-135.8-62.3-135.8-136.4l-47-0.2l0.1,183.8h182.7 M781.4,853.2v47.2"/>
	<g>
		<g>
			<path class="st4" d="M962.9,716.8l-47.1-0.1c0,74-60.6,135.8-135.5,136.4l0,47.2H963L962.9,716.8z M930.7,863.7l-17.1,16.9
				l-16.9-16.6c-2.5-2.2-4-5.4-4-8.9c0-6.7,5.5-12.1,12.2-12.1c3.4,0,6.4,1.3,8.6,3.5c2.2-2.3,5.4-3.8,8.9-3.8
				c6.8,0,12.2,5.4,12.2,12.1C934.7,858.3,933.2,861.5,930.7,863.7z"/>
		</g>
	</g>
	<g>
		<g>
			<path class="st0" d="M650.9,573.4l6.4-15.1h0.1l6.4,15.1h-2.3l-4.8-12.1l1.4-0.9l-5.4,13H650.9z M654.7,567.9h5.5l0.7,1.7h-6.7
				L654.7,567.9z"/>
			<path class="st0" d="M669.9,570.8c0,1.2-0.2,2.2-0.7,3c-0.5,0.8-1.1,1.5-1.9,1.9s-1.7,0.7-2.7,0.7v-1.9c0.9-0.1,1.7-0.4,2.3-1
				c0.6-0.6,0.9-1.5,0.9-2.8v-11.8h2V570.8z"/>
			<path class="st0" d="M675.9,568.3c0,0.7,0.2,1.2,0.5,1.8c0.3,0.5,0.7,0.9,1.3,1.2c0.5,0.3,1.1,0.4,1.8,0.4c0.7,0,1.3-0.1,1.9-0.4
				c0.5-0.3,1-0.7,1.3-1.2c0.3-0.5,0.5-1.1,0.5-1.8v-9.4h2v9.4c0,1.1-0.2,2-0.7,2.8c-0.5,0.8-1.2,1.4-2,1.8
				c-0.8,0.4-1.8,0.6-2.8,0.6c-1,0-1.9-0.2-2.8-0.6c-0.8-0.4-1.5-1-2-1.8s-0.7-1.7-0.7-2.8v-9.4h2V568.3z"/>
			<path class="st0" d="M689,573.4v-14.5h4c1.5,0,2.7,0.2,3.7,0.7c1,0.4,1.8,1,2.5,1.7c0.6,0.7,1.1,1.5,1.4,2.4s0.4,1.7,0.4,2.6
				c0,1.1-0.2,2.1-0.6,2.9c-0.4,0.9-0.9,1.6-1.6,2.2s-1.4,1.1-2.3,1.4c-0.9,0.3-1.8,0.5-2.8,0.5H689z M691,571.5h2.4
				c0.8,0,1.5-0.1,2.2-0.4c0.7-0.2,1.3-0.6,1.8-1c0.5-0.5,0.9-1,1.2-1.7c0.3-0.7,0.4-1.4,0.4-2.3c0-0.9-0.1-1.7-0.4-2.3
				c-0.3-0.7-0.7-1.2-1.2-1.7c-0.5-0.5-1.1-0.8-1.8-1c-0.7-0.2-1.3-0.4-2-0.4H691V571.5z"/>
			<path class="st0" d="M702.9,573.4l6.4-15.1h0.1l6.4,15.1h-2.3l-4.8-12.1l1.4-0.9l-5.4,13H702.9z M706.6,567.9h5.5l0.7,1.7h-6.7
				L706.6,567.9z"/>
			<path class="st0" d="M725,573.4v-14.5h4c1.5,0,2.7,0.2,3.7,0.7c1,0.4,1.8,1,2.5,1.7c0.6,0.7,1.1,1.5,1.4,2.4s0.4,1.7,0.4,2.6
				c0,1.1-0.2,2.1-0.6,2.9c-0.4,0.9-0.9,1.6-1.6,2.2s-1.4,1.1-2.3,1.4c-0.9,0.3-1.8,0.5-2.8,0.5H725z M727,571.5h2.4
				c0.8,0,1.5-0.1,2.2-0.4c0.7-0.2,1.3-0.6,1.8-1c0.5-0.5,0.9-1,1.2-1.7c0.3-0.7,0.4-1.4,0.4-2.3c0-0.9-0.1-1.7-0.4-2.3
				c-0.3-0.7-0.7-1.2-1.2-1.7c-0.5-0.5-1.1-0.8-1.8-1c-0.7-0.2-1.3-0.4-2-0.4H727V571.5z"/>
			<path class="st0" d="M740.4,558.9h9.6v1.9h-7.6v4.4h6.8v1.9h-6.8v4.5h7.9v1.9h-9.9V558.9z"/>
			<path class="st0" d="M759.1,566.2c0-1,0.2-2,0.6-2.8c0.4-0.9,0.9-1.7,1.6-2.4c0.7-0.7,1.5-1.2,2.4-1.6c0.9-0.4,1.9-0.6,2.9-0.6
				c1,0,2,0.2,2.9,0.6s1.7,0.9,2.4,1.6c0.7,0.7,1.2,1.5,1.6,2.4c0.4,0.9,0.6,1.9,0.6,2.9c0,1-0.2,2-0.6,2.9
				c-0.4,0.9-0.9,1.7-1.6,2.4c-0.7,0.7-1.5,1.2-2.4,1.6s-1.9,0.6-2.9,0.6c-1,0-2-0.2-2.9-0.6c-0.9-0.4-1.7-0.9-2.4-1.6
				c-0.7-0.7-1.2-1.5-1.6-2.3C759.3,568.2,759.1,567.2,759.1,566.2z M761.2,566.2c0,0.8,0.1,1.5,0.4,2.2c0.3,0.7,0.7,1.2,1.2,1.8
				c0.5,0.5,1.1,0.9,1.8,1.2c0.7,0.3,1.4,0.4,2.1,0.4s1.5-0.1,2.1-0.4c0.7-0.3,1.2-0.7,1.7-1.2c0.5-0.5,0.9-1.1,1.2-1.8
				c0.3-0.7,0.4-1.4,0.4-2.1c0-0.8-0.1-1.5-0.4-2.2c-0.3-0.7-0.7-1.3-1.2-1.8c-0.5-0.5-1.1-0.9-1.8-1.2c-0.7-0.3-1.4-0.4-2.1-0.4
				c-0.8,0-1.5,0.1-2.2,0.4c-0.7,0.3-1.3,0.7-1.8,1.2c-0.5,0.5-0.9,1.1-1.2,1.8C761.3,564.7,761.2,565.4,761.2,566.2z"/>
			<path class="st0" d="M779.3,568.3c0,0.7,0.2,1.2,0.5,1.8c0.3,0.5,0.7,0.9,1.3,1.2c0.5,0.3,1.1,0.4,1.8,0.4c0.7,0,1.3-0.1,1.9-0.4
				c0.5-0.3,1-0.7,1.3-1.2c0.3-0.5,0.5-1.1,0.5-1.8v-9.4h2v9.4c0,1.1-0.2,2-0.7,2.8c-0.5,0.8-1.2,1.4-2,1.8
				c-0.8,0.4-1.8,0.6-2.8,0.6c-1,0-1.9-0.2-2.8-0.6c-0.8-0.4-1.5-1-2-1.8s-0.7-1.7-0.7-2.8v-9.4h2V568.3z"/>
			<path class="st0" d="M791.3,558.9h9.8v1.9h-3.9v12.6h-2v-12.6h-3.9V558.9z"/>
			<path class="st0" d="M808.1,558.9c0.7,0,1.4,0.1,2.1,0.3c0.6,0.2,1.2,0.5,1.6,0.9c0.5,0.4,0.8,0.9,1.1,1.4s0.4,1.2,0.4,1.9
				c0,0.6-0.1,1.1-0.3,1.7c-0.2,0.5-0.4,1-0.8,1.5s-0.9,0.8-1.5,1.1s-1.4,0.4-2.4,0.4h-2.2v5.3h-2v-14.5H808.1z M808.3,566.2
				c0.6,0,1.1-0.1,1.5-0.3s0.7-0.4,0.9-0.7c0.2-0.3,0.4-0.6,0.5-0.9c0.1-0.3,0.1-0.6,0.1-0.9s-0.1-0.6-0.2-0.9s-0.3-0.6-0.5-0.9
				c-0.2-0.3-0.5-0.5-0.9-0.7s-0.8-0.3-1.3-0.3h-2.3v5.4H808.3z M810.7,567.3l3.8,6.1h-2.3l-3.9-6L810.7,567.3z"/>
			<path class="st0" d="M816.2,573.4l6.4-15.1h0.1l6.4,15.1h-2.3l-4.8-12.1l1.4-0.9l-5.4,13H816.2z M819.9,567.9h5.5l0.7,1.7h-6.7
				L819.9,567.9z"/>
			<path class="st0" d="M838.3,558.9h9.6v1.9h-7.6v4.4h6.8v1.9h-6.8v4.5h7.9v1.9h-9.9V558.9z"/>
			<path class="st0" d="M850.7,566.2c0-1,0.2-2,0.6-2.8c0.4-0.9,0.9-1.7,1.6-2.4c0.7-0.7,1.5-1.2,2.4-1.6c0.9-0.4,1.9-0.6,2.9-0.6
				c1,0,2,0.2,2.9,0.6s1.7,0.9,2.4,1.6c0.7,0.7,1.2,1.5,1.6,2.4c0.4,0.9,0.6,1.9,0.6,2.9c0,1-0.2,2-0.6,2.9
				c-0.4,0.9-0.9,1.7-1.6,2.4c-0.7,0.7-1.5,1.2-2.4,1.6s-1.9,0.6-2.9,0.6c-1,0-2-0.2-2.9-0.6c-0.9-0.4-1.7-0.9-2.4-1.6
				c-0.7-0.7-1.2-1.5-1.6-2.3C850.9,568.2,850.7,567.2,850.7,566.2z M852.7,566.2c0,0.7,0.1,1.5,0.4,2.1c0.3,0.7,0.7,1.2,1.2,1.8
				c0.5,0.5,1.1,0.9,1.8,1.2c0.7,0.3,1.4,0.4,2.1,0.4s1.5-0.1,2.1-0.4c0.7-0.3,1.2-0.7,1.7-1.2c0.5-0.5,0.9-1.1,1.2-1.7
				c0.3-0.7,0.4-1.4,0.4-2.1c0-0.8-0.1-1.5-0.4-2.1c-0.3-0.7-0.7-1.3-1.2-1.8c-0.5-0.5-1.1-0.9-1.8-1.2c-0.7-0.3-1.4-0.4-2.1-0.4
				c-0.8,0-1.5,0.1-2.2,0.4c-0.7,0.3-1.3,0.7-1.8,1.2c-0.5,0.5-0.9,1.1-1.2,1.8S852.7,565.4,852.7,566.2z M861.3,571.5h5v1.9h-7.7
				L861.3,571.5z"/>
			<path class="st0" d="M871.4,568.3c0,0.7,0.2,1.2,0.5,1.8c0.3,0.5,0.7,0.9,1.3,1.2c0.5,0.3,1.1,0.4,1.8,0.4c0.7,0,1.3-0.1,1.9-0.4
				c0.5-0.3,1-0.7,1.3-1.2c0.3-0.5,0.5-1.1,0.5-1.8v-9.4h2v9.4c0,1.1-0.2,2-0.7,2.8c-0.5,0.8-1.2,1.4-2,1.8
				c-0.8,0.4-1.8,0.6-2.8,0.6c-1,0-1.9-0.2-2.8-0.6c-0.8-0.4-1.5-1-2-1.8s-0.7-1.7-0.7-2.8v-9.4h2V568.3z"/>
			<path class="st0" d="M884.5,558.9h2v14.5h-2V558.9z"/>
			<path class="st0" d="M894.7,558.9c1.1,0,2,0.2,2.7,0.5s1.3,0.9,1.8,1.5c0.4,0.7,0.6,1.5,0.6,2.4c0,0.6-0.1,1.1-0.3,1.7
				c-0.2,0.6-0.5,1.1-0.8,1.5c-0.4,0.4-0.9,0.8-1.5,1.1c-0.6,0.3-1.4,0.4-2.3,0.4h-2.2v5.3h-2v-14.5H894.7z M894.9,566.2
				c0.6,0,1.1-0.1,1.4-0.3c0.4-0.2,0.7-0.4,0.9-0.7c0.2-0.3,0.4-0.6,0.5-0.9s0.1-0.6,0.1-0.9c0-0.3,0-0.6-0.1-0.9
				c-0.1-0.3-0.3-0.6-0.5-0.9c-0.2-0.3-0.5-0.5-0.9-0.6s-0.8-0.3-1.3-0.3h-2.3v5.4H894.9z"/>
			<path class="st0" d="M901.4,573.4l6.4-15.1h0.1l6.4,15.1h-2.3l-4.8-12.1l1.4-0.9l-5.4,13H901.4z M905.2,567.9h5.5l0.7,1.7h-6.7
				L905.2,567.9z"/>
		</g>
	</g>
	<g>
		<polygon class="st4" points="780.2,791.3 713.8,725.9 780.2,660.5 846.6,725.9 		"/>
		<ellipse class="st4" cx="814.5" cy="691.7" rx="47.3" ry="46.6"/>
		<ellipse class="st4" cx="746.9" cy="692.7" rx="47.3" ry="46.6"/>
	</g>
	<rect x="886.4" y="840.6" class="st4" width="64.2" height="51.7"/>
</g>
</svg>
