<?xml version="1.0" encoding="utf-8"?>
<!-- Generator: Adobe Illustrator 25.4.1, SVG Export Plug-In . SVG Version: 6.00 Build 0)  -->
<svg version="1.1" id="Camada_1" xmlns="http://www.w3.org/2000/svg" xmlns:xlink="http://www.w3.org/1999/xlink" x="0px" y="0px"
	 viewBox="0 0 430 403" style="enable-background:new 0 0 430 403;" xml:space="preserve">
<style type="text/css">
	.st0{fill:#FFFFFF;}
	.st1{fill:#E63020;}
	.st2{fill:#009FE3;}
	.st3{fill:#4EAD33;}
	.st4{fill:#1D1D1B;}
</style>
<rect x="25.5" y="16.2" class="st0" width="374.9" height="374.9"/>
<rect x="588.1" y="539.2" class="st0" width="374.9" height="374.9"/>
<g>
	<path class="st1" d="M221,14.4H38.3l0.2,180.7l47,0.2c0-74,60.5-132.9,135.5-133.6 M221,14.4v47.2"/>
	<path class="st2" d="M220.1,61.7c75,0.7,135.6,59.5,135.6,133.5l47.1,0.1L402.6,16l-182.7-1.6 M221,62.1l-1.1-47.5"/>
	<path class="st3" d="M221.2,331.6c-75-0.7-135.8-62.3-135.8-136.4l-47-0.2l0.1,183.8h182.7 M221.2,331.6v47.2"/>
	<g>
		<g>
			<path class="st4" d="M402.8,195.3l-47.1-0.1c0,74-60.6,135.8-135.5,136.4l0,47.2h182.7L402.8,195.3z M362.8,349.9
				c-3.7,2.3-7.8,3.7-12.2,4.1c-5.9,0.5-11.4-1-16.3-4.2c-1-0.6-1.5-1.5-1.5-2.7c0-2.9,0-5.8,0-8.7c1.4,0.6,2.8,1.1,4.1,1.7
				c3.3,1.4,6.7,2.8,10,4.2c1.2,0.5,2.3,0.5,3.5,0c4.5-1.9,9-3.8,13.5-5.7c0.2-0.1,0.3-0.1,0.5-0.2c0,0.2,0,0.4,0,0.5
				c0,2.7,0,5.3,0,8C364.5,348.3,363.9,349.2,362.8,349.9z M373.4,332.7c-0.8,0.3-1.6,0.7-2.3,1c-0.3,0.1-0.4,0.2-0.4,0.6
				c0,4.1,0,8.2,0,12.3c0,0.2,0.1,0.4,0.2,0.5c1.2,0.8,1.7,3,1.1,4.5c-0.1,0.2-0.1,0.6,0,0.8c0.5,1.8,1,3.6,1.5,5.4
				c0.1,0.5,0.1,0.9-0.3,1.2c-0.4,0.3-0.8,0.2-1.2-0.1c-1.5-0.9-3-0.9-4.5,0c-0.4,0.2-0.8,0.4-1.2,0.1c-0.5-0.3-0.5-0.7-0.4-1.2
				c0.4-1.7,0.8-3.5,1.2-5.2c0.1-0.3,0-0.7-0.1-1c-0.4-1.4-0.3-2.6,0.5-3.8c0.1-0.2,0.3-0.5,0.5-0.6c0.8-0.3,0.8-0.9,0.8-1.6
				c0-3.4,0-6.7,0-10.1v-0.7c-1.9,0.8-3.7,1.5-5.5,2.3c-4.5,1.9-9.1,3.8-13.6,5.7c-0.7,0.3-1.3,0.3-2.1,0
				c-7.9-3.3-15.9-6.6-23.8-9.9c-0.9-0.4-1.2-0.8-1.2-1.6c0-0.8,0.5-1.2,1.2-1.5c8-3.3,16-6.6,24-9.9c0.6-0.2,1.1-0.3,1.7,0
				c8,3.3,16,6.7,24,10c0.7,0.3,1.1,0.7,1.1,1.5C374.5,331.9,374.1,332.4,373.4,332.7z"/>
		</g>
	</g>
	<g>
		<path class="st4" d="M291.1,180.4c-6.6,2.8-12.9,5.3-19.1,7.9c-15.9,6.6-31.8,13.2-47.6,19.9c-2.5,1-4.7,1.1-7.2,0
			c-27.7-11.6-55.5-23.1-83.2-34.6c-3-1.2-4.3-2.9-4.2-5.4c0.1-2.7,1.8-4.2,4.2-5.2c27.9-11.5,55.8-23,83.7-34.6
			c2.1-0.9,3.9-0.9,6-0.1c27.9,11.6,55.8,23.2,83.7,34.9c2.4,1,3.9,2.6,3.9,5.3c0,2.7-1.6,4.3-4,5.2c-2.7,1.1-5.4,2.3-8.2,3.4
			c-1,0.4-1.5,0.8-1.5,2c0,14.3,0,28.6,0.1,42.9c0,0.6,0.3,1.4,0.7,1.7c4,2.6,5.8,10.5,3.7,15.7c-0.3,0.8-0.4,1.9-0.1,2.8
			c1.7,6.3,3.5,12.5,5.4,18.8c0.5,1.7,0.3,3-1.1,4.1c-1.4,1.1-2.9,0.7-4.3-0.2c-5.2-3.3-10.4-3.3-15.6,0c-1.4,0.9-2.7,1.2-4.1,0.3
			c-1.6-1-1.6-2.5-1.3-4.1c1.4-6.1,2.8-12.2,4.1-18.3c0.2-1.1,0.1-2.5-0.2-3.6c-1.5-4.7-1-9.2,1.6-13.4c0.5-0.8,1.1-1.7,1.9-2
			c2.9-1,2.7-3.2,2.7-5.6c-0.1-11.8,0-23.6,0-35.3C291.1,182.2,291.1,181.4,291.1,180.4z"/>
		<path class="st4" d="M165.4,193.5c5,2.1,9.6,4,14.3,5.9c11.7,4.8,23.4,9.6,35,14.6c4.2,1.8,8.1,1.8,12.3,0
			c15.7-6.6,31.5-13.2,47.3-19.7c0.5-0.2,1.1-0.4,1.9-0.7c0,0.7,0.1,1.3,0.1,1.8c0,9.3-0.1,18.6,0,28c0.1,4.7-1.9,8.1-5.9,10.6
			c-13.1,8.1-27.2,13-42.6,14.2c-20.7,1.6-39.7-3.5-57-14.6c-3.5-2.2-5.3-5.3-5.2-9.5C165.4,213.9,165.4,203.9,165.4,193.5z"/>
	</g>
	<g>
		<g>
			<path class="st0" d="M102.5,47.2l6.5-15.4h0.1l6.5,15.4h-2.3L108.5,35l1.4-0.9l-5.4,13.2H102.5z M106.3,41.6h5.6l0.7,1.7h-6.8
				L106.3,41.6z"/>
			<path class="st0" d="M121.8,44.5c0,1.2-0.2,2.2-0.7,3.1s-1.1,1.5-1.9,1.9c-0.8,0.4-1.7,0.7-2.8,0.7v-1.9c1-0.1,1.8-0.4,2.4-1
				c0.6-0.6,0.9-1.6,0.9-2.8v-12h2V44.5z"/>
			<path class="st0" d="M127.9,42c0,0.7,0.2,1.3,0.5,1.8s0.8,0.9,1.3,1.2c0.5,0.3,1.1,0.4,1.8,0.4c0.7,0,1.3-0.1,1.9-0.4
				c0.6-0.3,1-0.7,1.3-1.2s0.5-1.1,0.5-1.8v-9.5h2v9.6c0,1.1-0.2,2-0.7,2.8c-0.5,0.8-1.2,1.4-2,1.9c-0.9,0.4-1.8,0.7-2.9,0.7
				c-1,0-2-0.2-2.8-0.7s-1.5-1.1-2-1.9c-0.5-0.8-0.7-1.7-0.7-2.8v-9.6h2V42z"/>
			<path class="st0" d="M141.2,47.2V32.5h4.1c1.5,0,2.8,0.2,3.8,0.7c1,0.4,1.9,1,2.5,1.8c0.6,0.7,1.1,1.6,1.4,2.4
				c0.3,0.9,0.4,1.8,0.4,2.7c0,1.1-0.2,2.1-0.6,3c-0.4,0.9-0.9,1.6-1.6,2.3s-1.5,1.1-2.4,1.4c-0.9,0.3-1.8,0.5-2.8,0.5H141.2z
				 M143.2,45.3h2.4c0.8,0,1.6-0.1,2.3-0.4c0.7-0.2,1.3-0.6,1.8-1.1c0.5-0.5,0.9-1,1.2-1.7c0.3-0.7,0.4-1.4,0.4-2.3
				c0-0.9-0.2-1.7-0.5-2.4s-0.7-1.3-1.2-1.7c-0.5-0.5-1.1-0.8-1.8-1.1c-0.7-0.2-1.4-0.4-2.1-0.4h-2.6V45.3z"/>
			<path class="st0" d="M155.3,47.2l6.5-15.4h0.1l6.5,15.4h-2.3L161.3,35l1.4-0.9l-5.4,13.2H155.3z M159.1,41.6h5.6l0.7,1.7h-6.8
				L159.1,41.6z"/>
			<path class="st0" d="M177.8,47.2V32.5h4.1c1.5,0,2.8,0.2,3.8,0.7c1,0.4,1.9,1,2.5,1.8c0.6,0.7,1.1,1.6,1.4,2.4
				c0.3,0.9,0.4,1.8,0.4,2.7c0,1.1-0.2,2.1-0.6,3s-0.9,1.6-1.6,2.3c-0.7,0.6-1.5,1.1-2.4,1.4c-0.9,0.3-1.8,0.5-2.8,0.5H177.8z
				 M179.8,45.3h2.4c0.8,0,1.6-0.1,2.3-0.4c0.7-0.2,1.3-0.6,1.8-1.1c0.5-0.5,0.9-1,1.2-1.7c0.3-0.7,0.4-1.4,0.4-2.3
				c0-0.9-0.2-1.7-0.5-2.4s-0.7-1.3-1.2-1.7c-0.5-0.5-1.1-0.8-1.8-1.1c-0.7-0.2-1.4-0.4-2.1-0.4h-2.6V45.3z"/>
			<path class="st0" d="M192.5,39.9c0-1,0.2-2,0.6-2.9c0.4-0.9,0.9-1.7,1.6-2.4c0.7-0.7,1.5-1.2,2.4-1.6s1.9-0.6,3-0.6
				c1,0,2,0.2,2.9,0.6c0.9,0.4,1.7,0.9,2.5,1.6c0.7,0.7,1.3,1.5,1.7,2.4c0.4,0.9,0.6,1.9,0.6,2.9s-0.2,2-0.6,2.9
				c-0.4,0.9-1,1.7-1.7,2.4s-1.5,1.2-2.4,1.6c-0.9,0.4-1.9,0.6-3,0.6c-1.1,0-2.1-0.2-3-0.6c-0.9-0.4-1.7-0.9-2.4-1.6
				c-0.7-0.7-1.3-1.5-1.6-2.4C192.7,41.9,192.5,40.9,192.5,39.9z M194.5,39.9c0,0.8,0.1,1.5,0.4,2.2c0.3,0.7,0.7,1.3,1.2,1.8
				s1.1,0.9,1.8,1.2c0.7,0.3,1.4,0.4,2.2,0.4s1.5-0.1,2.2-0.4c0.7-0.3,1.3-0.7,1.8-1.2c0.5-0.5,0.9-1.1,1.2-1.8
				c0.3-0.7,0.4-1.4,0.4-2.2c0-0.8-0.1-1.5-0.4-2.2c-0.3-0.7-0.7-1.3-1.2-1.8c-0.5-0.5-1.1-0.9-1.8-1.2s-1.4-0.4-2.2-0.4
				c-0.8,0-1.5,0.1-2.2,0.4c-0.7,0.3-1.3,0.7-1.8,1.2c-0.5,0.5-0.9,1.1-1.2,1.8S194.5,39.1,194.5,39.9z"/>
			<path class="st0" d="M221.7,32.5c1.1,0,2,0.2,2.8,0.5c0.8,0.4,1.4,0.9,1.8,1.6s0.6,1.5,0.6,2.5c0,0.6-0.1,1.2-0.3,1.7
				c-0.2,0.6-0.5,1.1-0.9,1.5c-0.4,0.5-0.9,0.8-1.5,1.1c-0.6,0.3-1.4,0.4-2.3,0.4h-2.2v5.4h-2V32.5H221.7z M221.9,39.9
				c0.6,0,1.1-0.1,1.5-0.3c0.4-0.2,0.7-0.4,0.9-0.7c0.2-0.3,0.4-0.6,0.5-0.9s0.1-0.6,0.1-0.9c0-0.3,0-0.6-0.1-0.9
				c-0.1-0.3-0.3-0.6-0.5-0.9c-0.2-0.3-0.5-0.5-0.9-0.7c-0.4-0.2-0.8-0.3-1.4-0.3h-2.3v5.5H221.9z"/>
			<path class="st0" d="M234,32.5c0.8,0,1.5,0.1,2.1,0.3c0.6,0.2,1.2,0.5,1.7,0.9c0.5,0.4,0.8,0.9,1.1,1.4c0.3,0.6,0.4,1.2,0.4,2
				c0,0.6-0.1,1.2-0.3,1.7c-0.2,0.6-0.5,1.1-0.8,1.5c-0.4,0.5-0.9,0.8-1.6,1.1c-0.6,0.3-1.4,0.4-2.4,0.4H232v5.4h-2V32.5H234z
				 M234.2,39.9c0.6,0,1.1-0.1,1.5-0.3c0.4-0.2,0.7-0.4,0.9-0.7c0.2-0.3,0.4-0.6,0.5-0.9c0.1-0.3,0.1-0.6,0.1-0.9
				c0-0.3-0.1-0.6-0.2-0.9c-0.1-0.3-0.3-0.6-0.5-0.9c-0.2-0.3-0.5-0.5-0.9-0.7c-0.4-0.2-0.8-0.3-1.3-0.3H232v5.5H234.2z M236.7,41
				l3.9,6.2h-2.3l-4-6.1L236.7,41z"/>
			<path class="st0" d="M242.7,39.9c0-1,0.2-2,0.6-2.9c0.4-0.9,0.9-1.7,1.6-2.4c0.7-0.7,1.5-1.2,2.4-1.6s1.9-0.6,3-0.6
				c1,0,2,0.2,2.9,0.6c0.9,0.4,1.7,0.9,2.5,1.6c0.7,0.7,1.3,1.5,1.7,2.4c0.4,0.9,0.6,1.9,0.6,2.9s-0.2,2-0.6,2.9
				c-0.4,0.9-1,1.7-1.7,2.4s-1.5,1.2-2.4,1.6c-0.9,0.4-1.9,0.6-3,0.6c-1.1,0-2.1-0.2-3-0.6c-0.9-0.4-1.7-0.9-2.4-1.6
				c-0.7-0.7-1.3-1.5-1.6-2.4C242.9,41.9,242.7,40.9,242.7,39.9z M244.8,39.9c0,0.8,0.1,1.5,0.4,2.2c0.3,0.7,0.7,1.3,1.2,1.8
				s1.1,0.9,1.8,1.2c0.7,0.3,1.4,0.4,2.2,0.4s1.5-0.1,2.2-0.4c0.7-0.3,1.3-0.7,1.8-1.2c0.5-0.5,0.9-1.1,1.2-1.8
				c0.3-0.7,0.4-1.4,0.4-2.2c0-0.8-0.1-1.5-0.4-2.2c-0.3-0.7-0.7-1.3-1.2-1.8c-0.5-0.5-1.1-0.9-1.8-1.2s-1.4-0.4-2.2-0.4
				c-0.8,0-1.5,0.1-2.2,0.4c-0.7,0.3-1.3,0.7-1.8,1.2c-0.5,0.5-0.9,1.1-1.2,1.8S244.8,39.1,244.8,39.9z"/>
			<path class="st0" d="M261.4,32.5h8.9v1.9h-6.9v4.7h6V41h-6v6.3h-2V32.5z"/>
			<path class="st0" d="M273.6,32.5h9.7v1.9h-7.7v4.5h6.9v1.9h-6.9v4.5h8v1.9h-10V32.5z"/>
			<path class="st0" d="M294.8,35.1c-0.5-0.3-1.1-0.5-1.7-0.7c-0.6-0.2-1.2-0.3-1.8-0.3c-0.8,0-1.4,0.2-1.9,0.6
				c-0.5,0.4-0.7,0.9-0.7,1.5c0,0.5,0.2,0.9,0.5,1.2s0.7,0.6,1.2,0.8c0.5,0.2,1,0.4,1.6,0.7c0.5,0.2,0.9,0.4,1.4,0.6
				c0.5,0.2,0.9,0.5,1.2,0.8c0.4,0.3,0.7,0.7,0.9,1.2c0.2,0.5,0.3,1.1,0.3,1.8c0,0.8-0.2,1.5-0.6,2.1c-0.4,0.6-1,1.1-1.7,1.5
				s-1.6,0.6-2.6,0.6c-0.6,0-1.3-0.1-1.9-0.2c-0.6-0.1-1.2-0.3-1.7-0.6c-0.5-0.2-1-0.5-1.4-0.8l0.9-1.6c0.3,0.2,0.7,0.5,1.1,0.7
				c0.4,0.2,0.9,0.4,1.3,0.5c0.5,0.1,0.9,0.2,1.4,0.2c0.5,0,1-0.1,1.4-0.2c0.5-0.2,0.8-0.4,1.1-0.8c0.3-0.4,0.5-0.8,0.5-1.4
				c0-0.5-0.1-0.9-0.4-1.2c-0.3-0.3-0.6-0.6-1.1-0.9c-0.4-0.2-0.9-0.5-1.4-0.6c-0.5-0.2-1-0.4-1.4-0.6c-0.5-0.2-0.9-0.5-1.3-0.8
				s-0.7-0.7-1-1.1c-0.3-0.4-0.4-1-0.4-1.6c0-0.8,0.2-1.5,0.6-2c0.4-0.6,0.9-1,1.6-1.4c0.7-0.3,1.4-0.5,2.3-0.5c1,0,1.8,0.1,2.6,0.3
				s1.4,0.5,2,0.8L294.8,35.1z"/>
			<path class="st0" d="M306.9,35.1c-0.5-0.3-1.1-0.5-1.7-0.7c-0.6-0.2-1.2-0.3-1.8-0.3c-0.8,0-1.4,0.2-1.9,0.6
				c-0.5,0.4-0.7,0.9-0.7,1.5c0,0.5,0.2,0.9,0.5,1.2s0.7,0.6,1.2,0.8c0.5,0.2,1,0.4,1.6,0.7c0.5,0.2,0.9,0.4,1.4,0.6
				c0.5,0.2,0.9,0.5,1.2,0.8c0.4,0.3,0.7,0.7,0.9,1.2c0.2,0.5,0.3,1.1,0.3,1.8c0,0.8-0.2,1.5-0.6,2.1c-0.4,0.6-1,1.1-1.7,1.5
				s-1.6,0.6-2.6,0.6c-0.6,0-1.3-0.1-1.9-0.2c-0.6-0.1-1.2-0.3-1.7-0.6c-0.5-0.2-1-0.5-1.4-0.8l0.9-1.6c0.3,0.2,0.7,0.5,1.1,0.7
				c0.4,0.2,0.9,0.4,1.3,0.5c0.5,0.1,0.9,0.2,1.4,0.2c0.5,0,1-0.1,1.4-0.2c0.5-0.2,0.8-0.4,1.1-0.8c0.3-0.4,0.5-0.8,0.5-1.4
				c0-0.5-0.1-0.9-0.4-1.2c-0.3-0.3-0.6-0.6-1.1-0.9c-0.4-0.2-0.9-0.5-1.4-0.6c-0.5-0.2-1-0.4-1.4-0.6c-0.5-0.2-0.9-0.5-1.3-0.8
				s-0.7-0.7-1-1.1c-0.3-0.4-0.4-1-0.4-1.6c0-0.8,0.2-1.5,0.6-2c0.4-0.6,0.9-1,1.6-1.4c0.7-0.3,1.4-0.5,2.3-0.5c1,0,1.8,0.1,2.6,0.3
				s1.4,0.5,2,0.8L306.9,35.1z"/>
			<path class="st0" d="M310.2,39.9c0-1,0.2-2,0.6-2.9c0.4-0.9,0.9-1.7,1.6-2.4c0.7-0.7,1.5-1.2,2.4-1.6s1.9-0.6,3-0.6
				c1,0,2,0.2,2.9,0.6c0.9,0.4,1.7,0.9,2.5,1.6c0.7,0.7,1.3,1.5,1.7,2.4c0.4,0.9,0.6,1.9,0.6,2.9s-0.2,2-0.6,2.9
				c-0.4,0.9-1,1.7-1.7,2.4s-1.5,1.2-2.4,1.6c-0.9,0.4-1.9,0.6-3,0.6c-1.1,0-2.1-0.2-3-0.6c-0.9-0.4-1.7-0.9-2.4-1.6
				c-0.7-0.7-1.3-1.5-1.6-2.4C310.4,41.9,310.2,40.9,310.2,39.9z M312.3,39.9c0,0.8,0.1,1.5,0.4,2.2c0.3,0.7,0.7,1.3,1.2,1.8
				s1.1,0.9,1.8,1.2c0.7,0.3,1.4,0.4,2.2,0.4s1.5-0.1,2.2-0.4c0.7-0.3,1.3-0.7,1.8-1.2c0.5-0.5,0.9-1.1,1.2-1.8
				c0.3-0.7,0.4-1.4,0.4-2.2c0-0.8-0.1-1.5-0.4-2.2c-0.3-0.7-0.7-1.3-1.2-1.8c-0.5-0.5-1.1-0.9-1.8-1.2s-1.4-0.4-2.2-0.4
				c-0.8,0-1.5,0.1-2.2,0.4c-0.7,0.3-1.3,0.7-1.8,1.2c-0.5,0.5-0.9,1.1-1.2,1.8S312.3,39.1,312.3,39.9z"/>
			<path class="st0" d="M332.9,32.5c0.8,0,1.5,0.1,2.1,0.3c0.6,0.2,1.2,0.5,1.7,0.9c0.5,0.4,0.8,0.9,1.1,1.4c0.3,0.6,0.4,1.2,0.4,2
				c0,0.6-0.1,1.2-0.3,1.7c-0.2,0.6-0.5,1.1-0.8,1.5c-0.4,0.5-0.9,0.8-1.6,1.1c-0.6,0.3-1.4,0.4-2.4,0.4h-2.2v5.4h-2V32.5H332.9z
				 M333.1,39.9c0.6,0,1.1-0.1,1.5-0.3c0.4-0.2,0.7-0.4,0.9-0.7c0.2-0.3,0.4-0.6,0.5-0.9c0.1-0.3,0.1-0.6,0.1-0.9
				c0-0.3-0.1-0.6-0.2-0.9c-0.1-0.3-0.3-0.6-0.5-0.9c-0.2-0.3-0.5-0.5-0.9-0.7c-0.4-0.2-0.8-0.3-1.3-0.3h-2.3v5.5H333.1z M335.5,41
				l3.9,6.2h-2.3l-4-6.1L335.5,41z"/>
		</g>
	</g>
	<rect x="314.1" y="316" class="st4" width="78.3" height="55"/>
</g>
<g>
	<path class="st1" d="M781.2,536H598.5l0.2,180.7l47,0.2c0-74,60.5-132.9,135.5-133.6 M781.1,536v47.2"/>
	<path class="st2" d="M780.3,583.2c75,0.7,135.6,59.5,135.6,133.5l47.1,0.1l-0.1-179.2L780.1,536 M781.2,583.7l-1.1-47.5"/>
	<path class="st3" d="M781.4,853.2c-75-0.7-135.8-62.3-135.8-136.4l-47-0.2l0.1,183.8h182.7 M781.4,853.2v47.2"/>
	<g>
		<g>
			<path class="st4" d="M962.9,716.8l-47.1-0.1c0,74-60.6,135.8-135.5,136.4l0,47.2H963L962.9,716.8z M930.7,863.7l-17.1,16.9
				l-16.9-16.6c-2.5-2.2-4-5.4-4-8.9c0-6.7,5.5-12.1,12.2-12.1c3.4,0,6.4,1.3,8.6,3.5c2.2-2.3,5.4-3.8,8.9-3.8
				c6.8,0,12.2,5.4,12.2,12.1C934.7,858.3,933.2,861.5,930.7,863.7z"/>
		</g>
	</g>
	<g>
		<g>
			<path class="st0" d="M650.9,573.4l6.4-15.1h0.1l6.4,15.1h-2.3l-4.8-12.1l1.4-0.9l-5.4,13H650.9z M654.7,567.9h5.5l0.7,1.7h-6.7
				L654.7,567.9z"/>
			<path class="st0" d="M669.9,570.8c0,1.2-0.2,2.2-0.7,3c-0.5,0.8-1.1,1.5-1.9,1.9s-1.7,0.7-2.7,0.7v-1.9c0.9-0.1,1.7-0.4,2.3-1
				c0.6-0.6,0.9-1.5,0.9-2.8v-11.8h2V570.8z"/>
			<path class="st0" d="M675.9,568.3c0,0.7,0.2,1.2,0.5,1.8c0.3,0.5,0.7,0.9,1.3,1.2c0.5,0.3,1.1,0.4,1.8,0.4c0.7,0,1.3-0.1,1.9-0.4
				c0.5-0.3,1-0.7,1.3-1.2c0.3-0.5,0.5-1.1,0.5-1.8v-9.4h2v9.4c0,1.1-0.2,2-0.7,2.8c-0.5,0.8-1.2,1.4-2,1.8
				c-0.8,0.4-1.8,0.6-2.8,0.6c-1,0-1.9-0.2-2.8-0.6c-0.8-0.4-1.5-1-2-1.8s-0.7-1.7-0.7-2.8v-9.4h2V568.3z"/>
			<path class="st0" d="M689,573.4v-14.5h4c1.5,0,2.7,0.2,3.7,0.7c1,0.4,1.8,1,2.5,1.7c0.6,0.7,1.1,1.5,1.4,2.4s0.4,1.7,0.4,2.6
				c0,1.1-0.2,2.1-0.6,2.9c-0.4,0.9-0.9,1.6-1.6,2.2s-1.4,1.1-2.3,1.4c-0.9,0.3-1.8,0.5-2.8,0.5H689z M691,571.5h2.4
				c0.8,0,1.5-0.1,2.2-0.4c0.7-0.2,1.3-0.6,1.8-1c0.5-0.5,0.9-1,1.2-1.7c0.3-0.7,0.4-1.4,0.4-2.3c0-0.9-0.1-1.7-0.4-2.3
				c-0.3-0.7-0.7-1.2-1.2-1.7c-0.5-0.5-1.1-0.8-1.8-1c-0.7-0.2-1.3-0.4-2-0.4H691V571.5z"/>
			<path class="st0" d="M702.9,573.4l6.4-15.1h0.1l6.4,15.1h-2.3l-4.8-12.1l1.4-0.9l-5.4,13H702.9z M706.6,567.9h5.5l0.7,1.7h-6.7
				L706.6,567.9z"/>
			<path class="st0" d="M725,573.4v-14.5h4c1.5,0,2.7,0.2,3.7,0.7c1,0.4,1.8,1,2.5,1.7c0.6,0.7,1.1,1.5,1.4,2.4s0.4,1.7,0.4,2.6
				c0,1.1-0.2,2.1-0.6,2.9c-0.4,0.9-0.9,1.6-1.6,2.2s-1.4,1.1-2.3,1.4c-0.9,0.3-1.8,0.5-2.8,0.5H725z M727,571.5h2.4
				c0.8,0,1.5-0.1,2.2-0.4c0.7-0.2,1.3-0.6,1.8-1c0.5-0.5,0.9-1,1.2-1.7c0.3-0.7,0.4-1.4,0.4-2.3c0-0.9-0.1-1.7-0.4-2.3
				c-0.3-0.7-0.7-1.2-1.2-1.7c-0.5-0.5-1.1-0.8-1.8-1c-0.7-0.2-1.3-0.4-2-0.4H727V571.5z"/>
			<path class="st0" d="M740.4,558.9h9.6v1.9h-7.6v4.4h6.8v1.9h-6.8v4.5h7.9v1.9h-9.9V558.9z"/>
			<path class="st0" d="M759.1,566.2c0-1,0.2-2,0.6-2.8c0.4-0.9,0.9-1.7,1.6-2.4c0.7-0.7,1.5-1.2,2.4-1.6c0.9-0.4,1.9-0.6,2.9-0.6
				c1,0,2,0.2,2.9,0.6s1.7,0.9,2.4,1.6c0.7,0.7,1.2,1.5,1.6,2.4c0.4,0.9,0.6,1.9,0.6,2.9c0,1-0.2,2-0.6,2.9
				c-0.4,0.9-0.9,1.7-1.6,2.4c-0.7,0.7-1.5,1.2-2.4,1.6s-1.9,0.6-2.9,0.6c-1,0-2-0.2-2.9-0.6c-0.9-0.4-1.7-0.9-2.4-1.6
				c-0.7-0.7-1.2-1.5-1.6-2.3C759.3,568.2,759.1,567.2,759.1,566.2z M761.2,566.2c0,0.8,0.1,1.5,0.4,2.2c0.3,0.7,0.7,1.2,1.2,1.8
				c0.5,0.5,1.1,0.9,1.8,1.2c0.7,0.3,1.4,0.4,2.1,0.4s1.5-0.1,2.1-0.4c0.7-0.3,1.2-0.7,1.7-1.2c0.5-0.5,0.9-1.1,1.2-1.8
				c0.3-0.7,0.4-1.4,0.4-2.1c0-0.8-0.1-1.5-0.4-2.2c-0.3-0.7-0.7-1.3-1.2-1.8c-0.5-0.5-1.1-0.9-1.8-1.2c-0.7-0.3-1.4-0.4-2.1-0.4
				c-0.8,0-1.5,0.1-2.2,0.4c-0.7,0.3-1.3,0.7-1.8,1.2c-0.5,0.5-0.9,1.1-1.2,1.8C761.3,564.7,761.2,565.4,761.2,566.2z"/>
			<path class="st0" d="M779.3,568.3c0,0.7,0.2,1.2,0.5,1.8c0.3,0.5,0.7,0.9,1.3,1.2c0.5,0.3,1.1,0.4,1.8,0.4c0.7,0,1.3-0.1,1.9-0.4
				c0.5-0.3,1-0.7,1.3-1.2c0.3-0.5,0.5-1.1,0.5-1.8v-9.4h2v9.4c0,1.1-0.2,2-0.7,2.8c-0.5,0.8-1.2,1.4-2,1.8
				c-0.8,0.4-1.8,0.6-2.8,0.6c-1,0-1.9-0.2-2.8-0.6c-0.8-0.4-1.5-1-2-1.8s-0.7-1.7-0.7-2.8v-9.4h2V568.3z"/>
			<path class="st0" d="M791.3,558.9h9.8v1.9h-3.9v12.6h-2v-12.6h-3.9V558.9z"/>
			<path class="st0" d="M808.1,558.9c0.7,0,1.4,0.1,2.1,0.3c0.6,0.2,1.2,0.5,1.6,0.9c0.5,0.4,0.8,0.9,1.1,1.4s0.4,1.2,0.4,1.9
				c0,0.6-0.1,1.1-0.3,1.7c-0.2,0.5-0.4,1-0.8,1.5s-0.9,0.8-1.5,1.1s-1.4,0.4-2.4,0.4h-2.2v5.3h-2v-14.5H808.1z M808.3,566.2
				c0.6,0,1.1-0.1,1.5-0.3s0.7-0.4,0.9-0.7c0.2-0.3,0.4-0.6,0.5-0.9c0.1-0.3,0.1-0.6,0.1-0.9s-0.1-0.6-0.2-0.9s-0.3-0.6-0.5-0.9
				c-0.2-0.3-0.5-0.5-0.9-0.7s-0.8-0.3-1.3-0.3h-2.3v5.4H808.3z M810.7,567.3l3.8,6.1h-2.3l-3.9-6L810.7,567.3z"/>
			<path class="st0" d="M816.2,573.4l6.4-15.1h0.1l6.4,15.1h-2.3l-4.8-12.1l1.4-0.9l-5.4,13H816.2z M819.9,567.9h5.5l0.7,1.7h-6.7
				L819.9,567.9z"/>
			<path class="st0" d="M838.3,558.9h9.6v1.9h-7.6v4.4h6.8v1.9h-6.8v4.5h7.9v1.9h-9.9V558.9z"/>
			<path class="st0" d="M850.7,566.2c0-1,0.2-2,0.6-2.8c0.4-0.9,0.9-1.7,1.6-2.4c0.7-0.7,1.5-1.2,2.4-1.6c0.9-0.4,1.9-0.6,2.9-0.6
				c1,0,2,0.2,2.9,0.6s1.7,0.9,2.4,1.6c0.7,0.7,1.2,1.5,1.6,2.4c0.4,0.9,0.6,1.9,0.6,2.9c0,1-0.2,2-0.6,2.9
				c-0.4,0.9-0.9,1.7-1.6,2.4c-0.7,0.7-1.5,1.2-2.4,1.6s-1.9,0.6-2.9,0.6c-1,0-2-0.2-2.9-0.6c-0.9-0.4-1.7-0.9-2.4-1.6
				c-0.7-0.7-1.2-1.5-1.6-2.3C850.9,568.2,850.7,567.2,850.7,566.2z M852.7,566.2c0,0.7,0.1,1.5,0.4,2.1c0.3,0.7,0.7,1.2,1.2,1.8
				c0.5,0.5,1.1,0.9,1.8,1.2c0.7,0.3,1.4,0.4,2.1,0.4s1.5-0.1,2.1-0.4c0.7-0.3,1.2-0.7,1.7-1.2c0.5-0.5,0.9-1.1,1.2-1.7
				c0.3-0.7,0.4-1.4,0.4-2.1c0-0.8-0.1-1.5-0.4-2.1c-0.3-0.7-0.7-1.3-1.2-1.8c-0.5-0.5-1.1-0.9-1.8-1.2c-0.7-0.3-1.4-0.4-2.1-0.4
				c-0.8,0-1.5,0.1-2.2,0.4c-0.7,0.3-1.3,0.7-1.8,1.2c-0.5,0.5-0.9,1.1-1.2,1.8S852.7,565.4,852.7,566.2z M861.3,571.5h5v1.9h-7.7
				L861.3,571.5z"/>
			<path class="st0" d="M871.4,568.3c0,0.7,0.2,1.2,0.5,1.8c0.3,0.5,0.7,0.9,1.3,1.2c0.5,0.3,1.1,0.4,1.8,0.4c0.7,0,1.3-0.1,1.9-0.4
				c0.5-0.3,1-0.7,1.3-1.2c0.3-0.5,0.5-1.1,0.5-1.8v-9.4h2v9.4c0,1.1-0.2,2-0.7,2.8c-0.5,0.8-1.2,1.4-2,1.8
				c-0.8,0.4-1.8,0.6-2.8,0.6c-1,0-1.9-0.2-2.8-0.6c-0.8-0.4-1.5-1-2-1.8s-0.7-1.7-0.7-2.8v-9.4h2V568.3z"/>
			<path class="st0" d="M884.5,558.9h2v14.5h-2V558.9z"/>
			<path class="st0" d="M894.7,558.9c1.1,0,2,0.2,2.7,0.5s1.3,0.9,1.8,1.5c0.4,0.7,0.6,1.5,0.6,2.4c0,0.6-0.1,1.1-0.3,1.7
				c-0.2,0.6-0.5,1.1-0.8,1.5c-0.4,0.4-0.9,0.8-1.5,1.1c-0.6,0.3-1.4,0.4-2.3,0.4h-2.2v5.3h-2v-14.5H894.7z M894.9,566.2
				c0.6,0,1.1-0.1,1.4-0.3c0.4-0.2,0.7-0.4,0.9-0.7c0.2-0.3,0.4-0.6,0.5-0.9s0.1-0.6,0.1-0.9c0-0.3,0-0.6-0.1-0.9
				c-0.1-0.3-0.3-0.6-0.5-0.9c-0.2-0.3-0.5-0.5-0.9-0.6s-0.8-0.3-1.3-0.3h-2.3v5.4H894.9z"/>
			<path class="st0" d="M901.4,573.4l6.4-15.1h0.1l6.4,15.1h-2.3l-4.8-12.1l1.4-0.9l-5.4,13H901.4z M905.2,567.9h5.5l0.7,1.7h-6.7
				L905.2,567.9z"/>
		</g>
	</g>
	<g>
		<polygon class="st4" points="780.2,791.3 713.8,725.9 780.2,660.5 846.6,725.9 		"/>
		<ellipse class="st4" cx="814.5" cy="691.7" rx="47.3" ry="46.6"/>
		<ellipse class="st4" cx="746.9" cy="692.7" rx="47.3" ry="46.6"/>
	</g>
	<rect x="886.4" y="840.6" class="st4" width="64.2" height="51.7"/>
</g>
</svg>
