<?xml version="1.0" encoding="utf-8"?>
<!-- Generator: Adobe Illustrator 25.4.1, SVG Export Plug-In . SVG Version: 6.00 Build 0)  -->
<svg version="1.1" id="Camada_1" xmlns="http://www.w3.org/2000/svg" xmlns:xlink="http://www.w3.org/1999/xlink" x="0px" y="0px"
	 viewBox="0 0 430 403" style="enable-background:new 0 0 430 403;" xml:space="preserve">
<style type="text/css">
	.st0{fill:#FFFFFF;}
	.st1{fill:#E63020;}
	.st2{fill:#009FE3;}
	.st3{fill:#4EAD33;}
	.st4{fill:#1D1D1B;}
</style>
<rect x="19.1" y="16.2" class="st0" width="374.9" height="374.9"/>
<g>
	<path class="st1" d="M212.2,13H29.5l0.2,180.7l47,0.2c0-74,60.5-132.9,135.5-133.6 M212.1,13v47.2"/>
	<path class="st2" d="M211.3,60.2c75,0.7,135.6,59.5,135.6,133.5l47.1,0.1l-0.1-179.2L211.1,13 M212.2,60.7L211,13.2"/>
	<path class="st3" d="M212.4,330.2c-75-0.7-135.8-62.3-135.8-136.4l-47-0.2l0.1,183.8h182.7 M212.4,330.2v47.2"/>
	<g>
		<g>
			<path class="st4" d="M393.9,193.8l-47.1-0.1c0,74-60.6,135.8-135.5,136.4l0,47.2H394L393.9,193.8z M361.7,340.7l-17.1,16.9
				l-16.9-16.6c-2.5-2.2-4-5.4-4-8.9c0-6.7,5.5-12.1,12.2-12.1c3.4,0,6.4,1.3,8.6,3.5c2.2-2.3,5.4-3.8,8.9-3.8
				c6.8,0,12.2,5.4,12.2,12.1C365.7,335.3,364.2,338.5,361.7,340.7z"/>
		</g>
	</g>
	<g>
		<g>
			<path class="st0" d="M81.9,50.4l6.4-15.1h0.1l6.4,15.1h-2.3l-4.8-12.1l1.4-0.9l-5.4,13H81.9z M85.7,44.9h5.5l0.7,1.7h-6.7
				L85.7,44.9z"/>
			<path class="st0" d="M100.9,47.8c0,1.2-0.2,2.2-0.7,3c-0.5,0.8-1.1,1.5-1.9,1.9s-1.7,0.7-2.7,0.7v-1.9c0.9-0.1,1.7-0.4,2.3-1
				c0.6-0.6,0.9-1.5,0.9-2.8V35.9h2V47.8z"/>
			<path class="st0" d="M106.9,45.3c0,0.7,0.2,1.2,0.5,1.8c0.3,0.5,0.7,0.9,1.3,1.2c0.5,0.3,1.1,0.4,1.8,0.4c0.7,0,1.3-0.1,1.9-0.4
				c0.5-0.3,1-0.7,1.3-1.2c0.3-0.5,0.5-1.1,0.5-1.8v-9.4h2v9.4c0,1.1-0.2,2-0.7,2.8c-0.5,0.8-1.2,1.4-2,1.8
				c-0.8,0.4-1.8,0.6-2.8,0.6c-1,0-1.9-0.2-2.8-0.6c-0.8-0.4-1.5-1-2-1.8s-0.7-1.7-0.7-2.8v-9.4h2V45.3z"/>
			<path class="st0" d="M120,50.4V35.9h4c1.5,0,2.7,0.2,3.7,0.7c1,0.4,1.8,1,2.5,1.7c0.6,0.7,1.1,1.5,1.4,2.4s0.4,1.7,0.4,2.6
				c0,1.1-0.2,2.1-0.6,2.9c-0.4,0.9-0.9,1.6-1.6,2.2s-1.4,1.1-2.3,1.4c-0.9,0.3-1.8,0.5-2.8,0.5H120z M122,48.5h2.4
				c0.8,0,1.5-0.1,2.2-0.4c0.7-0.2,1.3-0.6,1.8-1c0.5-0.5,0.9-1,1.2-1.7c0.3-0.7,0.4-1.4,0.4-2.3c0-0.9-0.1-1.7-0.4-2.3
				c-0.3-0.7-0.7-1.2-1.2-1.7c-0.5-0.5-1.1-0.8-1.8-1c-0.7-0.2-1.3-0.4-2-0.4H122V48.5z"/>
			<path class="st0" d="M133.9,50.4l6.4-15.1h0.1l6.4,15.1h-2.3l-4.8-12.1l1.4-0.9l-5.4,13H133.9z M137.6,44.9h5.5l0.7,1.7h-6.7
				L137.6,44.9z"/>
			<path class="st0" d="M156,50.4V35.9h4c1.5,0,2.7,0.2,3.7,0.7c1,0.4,1.8,1,2.5,1.7c0.6,0.7,1.1,1.5,1.4,2.4s0.4,1.7,0.4,2.6
				c0,1.1-0.2,2.1-0.6,2.9c-0.4,0.9-0.9,1.6-1.6,2.2s-1.4,1.1-2.3,1.4c-0.9,0.3-1.8,0.5-2.8,0.5H156z M158,48.5h2.4
				c0.8,0,1.5-0.1,2.2-0.4c0.7-0.2,1.3-0.6,1.8-1c0.5-0.5,0.9-1,1.2-1.7c0.3-0.7,0.4-1.4,0.4-2.3c0-0.9-0.1-1.7-0.4-2.3
				c-0.3-0.7-0.7-1.2-1.2-1.7c-0.5-0.5-1.1-0.8-1.8-1c-0.7-0.2-1.3-0.4-2-0.4H158V48.5z"/>
			<path class="st0" d="M171.4,35.9h9.6v1.9h-7.6v4.4h6.8v1.9h-6.8v4.5h7.9v1.9h-9.9V35.9z"/>
			<path class="st0" d="M190.1,43.2c0-1,0.2-2,0.6-2.8c0.4-0.9,0.9-1.7,1.6-2.4c0.7-0.7,1.5-1.2,2.4-1.6c0.9-0.4,1.9-0.6,2.9-0.6
				c1,0,2,0.2,2.9,0.6s1.7,0.9,2.4,1.6c0.7,0.7,1.2,1.5,1.6,2.4c0.4,0.9,0.6,1.9,0.6,2.9c0,1-0.2,2-0.6,2.9
				c-0.4,0.9-0.9,1.7-1.6,2.4c-0.7,0.7-1.5,1.2-2.4,1.6s-1.9,0.6-2.9,0.6c-1,0-2-0.2-2.9-0.6c-0.9-0.4-1.7-0.9-2.4-1.6
				c-0.7-0.7-1.2-1.5-1.6-2.3C190.3,45.2,190.1,44.2,190.1,43.2z M192.2,43.2c0,0.8,0.1,1.5,0.4,2.2c0.3,0.7,0.7,1.2,1.2,1.8
				c0.5,0.5,1.1,0.9,1.8,1.2c0.7,0.3,1.4,0.4,2.1,0.4s1.5-0.1,2.1-0.4c0.7-0.3,1.2-0.7,1.7-1.2c0.5-0.5,0.9-1.1,1.2-1.8
				c0.3-0.7,0.4-1.4,0.4-2.1c0-0.8-0.1-1.5-0.4-2.2c-0.3-0.7-0.7-1.3-1.2-1.8c-0.5-0.5-1.1-0.9-1.8-1.2c-0.7-0.3-1.4-0.4-2.1-0.4
				c-0.8,0-1.5,0.1-2.2,0.4c-0.7,0.3-1.3,0.7-1.8,1.2c-0.5,0.5-0.9,1.1-1.2,1.8C192.3,41.7,192.2,42.4,192.2,43.2z"/>
			<path class="st0" d="M210.3,45.3c0,0.7,0.2,1.2,0.5,1.8c0.3,0.5,0.7,0.9,1.3,1.2c0.5,0.3,1.1,0.4,1.8,0.4c0.7,0,1.3-0.1,1.9-0.4
				c0.5-0.3,1-0.7,1.3-1.2c0.3-0.5,0.5-1.1,0.5-1.8v-9.4h2v9.4c0,1.1-0.2,2-0.7,2.8c-0.5,0.8-1.2,1.4-2,1.8
				c-0.8,0.4-1.8,0.6-2.8,0.6c-1,0-1.9-0.2-2.8-0.6c-0.8-0.4-1.5-1-2-1.8s-0.7-1.7-0.7-2.8v-9.4h2V45.3z"/>
			<path class="st0" d="M222.3,35.9h9.8v1.9h-3.9v12.6h-2V37.8h-3.9V35.9z"/>
			<path class="st0" d="M239.1,35.9c0.7,0,1.4,0.1,2.1,0.3c0.6,0.2,1.2,0.5,1.6,0.9c0.5,0.4,0.8,0.9,1.1,1.4s0.4,1.2,0.4,1.9
				c0,0.6-0.1,1.1-0.3,1.7c-0.2,0.5-0.4,1-0.8,1.5s-0.9,0.8-1.5,1.1s-1.4,0.4-2.4,0.4h-2.2v5.3h-2V35.9H239.1z M239.3,43.2
				c0.6,0,1.1-0.1,1.5-0.3s0.7-0.4,0.9-0.7c0.2-0.3,0.4-0.6,0.5-0.9c0.1-0.3,0.1-0.6,0.1-0.9s-0.1-0.6-0.2-0.9s-0.3-0.6-0.5-0.9
				c-0.2-0.3-0.5-0.5-0.9-0.7s-0.8-0.3-1.3-0.3h-2.3v5.4H239.3z M241.7,44.3l3.8,6.1h-2.3l-3.9-6L241.7,44.3z"/>
			<path class="st0" d="M247.2,50.4l6.4-15.1h0.1l6.4,15.1h-2.3l-4.8-12.1l1.4-0.9l-5.4,13H247.2z M250.9,44.9h5.5l0.7,1.7h-6.7
				L250.9,44.9z"/>
			<path class="st0" d="M269.3,35.9h9.6v1.9h-7.6v4.4h6.8v1.9h-6.8v4.5h7.9v1.9h-9.9V35.9z"/>
			<path class="st0" d="M281.7,43.2c0-1,0.2-2,0.6-2.8c0.4-0.9,0.9-1.7,1.6-2.4c0.7-0.7,1.5-1.2,2.4-1.6c0.9-0.4,1.9-0.6,2.9-0.6
				c1,0,2,0.2,2.9,0.6s1.7,0.9,2.4,1.6c0.7,0.7,1.2,1.5,1.6,2.4c0.4,0.9,0.6,1.9,0.6,2.9c0,1-0.2,2-0.6,2.9
				c-0.4,0.9-0.9,1.7-1.6,2.4c-0.7,0.7-1.5,1.2-2.4,1.6s-1.9,0.6-2.9,0.6c-1,0-2-0.2-2.9-0.6c-0.9-0.4-1.7-0.9-2.4-1.6
				c-0.7-0.7-1.2-1.5-1.6-2.3C281.9,45.2,281.7,44.2,281.7,43.2z M283.7,43.2c0,0.7,0.1,1.5,0.4,2.1c0.3,0.7,0.7,1.2,1.2,1.8
				c0.5,0.5,1.1,0.9,1.8,1.2c0.7,0.3,1.4,0.4,2.1,0.4s1.5-0.1,2.1-0.4c0.7-0.3,1.2-0.7,1.7-1.2c0.5-0.5,0.9-1.1,1.2-1.7
				c0.3-0.7,0.4-1.4,0.4-2.1c0-0.8-0.1-1.5-0.4-2.1c-0.3-0.7-0.7-1.3-1.2-1.8c-0.5-0.5-1.1-0.9-1.8-1.2c-0.7-0.3-1.4-0.4-2.1-0.4
				c-0.8,0-1.5,0.1-2.2,0.4c-0.7,0.3-1.3,0.7-1.8,1.2c-0.5,0.5-0.9,1.1-1.2,1.8S283.7,42.4,283.7,43.2z M292.3,48.5h5v1.9h-7.7
				L292.3,48.5z"/>
			<path class="st0" d="M302.4,45.3c0,0.7,0.2,1.2,0.5,1.8c0.3,0.5,0.7,0.9,1.3,1.2c0.5,0.3,1.1,0.4,1.8,0.4c0.7,0,1.3-0.1,1.9-0.4
				c0.5-0.3,1-0.7,1.3-1.2c0.3-0.5,0.5-1.1,0.5-1.8v-9.4h2v9.4c0,1.1-0.2,2-0.7,2.8c-0.5,0.8-1.2,1.4-2,1.8
				c-0.8,0.4-1.8,0.6-2.8,0.6c-1,0-1.9-0.2-2.8-0.6c-0.8-0.4-1.5-1-2-1.8s-0.7-1.7-0.7-2.8v-9.4h2V45.3z"/>
			<path class="st0" d="M315.5,35.9h2v14.5h-2V35.9z"/>
			<path class="st0" d="M325.7,35.9c1.1,0,2,0.2,2.7,0.5s1.3,0.9,1.8,1.5c0.4,0.7,0.6,1.5,0.6,2.4c0,0.6-0.1,1.1-0.3,1.7
				c-0.2,0.6-0.5,1.1-0.8,1.5c-0.4,0.4-0.9,0.8-1.5,1.1c-0.6,0.3-1.4,0.4-2.3,0.4h-2.2v5.3h-2V35.9H325.7z M325.9,43.2
				c0.6,0,1.1-0.1,1.4-0.3c0.4-0.2,0.7-0.4,0.9-0.7c0.2-0.3,0.4-0.6,0.5-0.9s0.1-0.6,0.1-0.9c0-0.3,0-0.6-0.1-0.9
				c-0.1-0.3-0.3-0.6-0.5-0.9c-0.2-0.3-0.5-0.5-0.9-0.6s-0.8-0.3-1.3-0.3h-2.3v5.4H325.9z"/>
			<path class="st0" d="M332.4,50.4l6.4-15.1h0.1l6.4,15.1h-2.3l-4.8-12.1l1.4-0.9l-5.4,13H332.4z M336.2,44.9h5.5l0.7,1.7h-6.7
				L336.2,44.9z"/>
		</g>
	</g>
	<g>
		<polygon class="st4" points="211.2,268.3 144.8,202.9 211.2,137.5 277.6,202.9 		"/>
		<ellipse class="st4" cx="245.5" cy="168.7" rx="47.3" ry="46.6"/>
		<ellipse class="st4" cx="177.9" cy="169.7" rx="47.3" ry="46.6"/>
	</g>
	<rect x="317.4" y="317.6" class="st4" width="64.2" height="51.7"/>
</g>
</svg>
