<?xml version="1.0" encoding="utf-8"?>
<!-- Generator: Adobe Illustrator 25.4.1, SVG Export Plug-In . SVG Version: 6.00 Build 0)  -->
<svg version="1.1" id="Camada_1" xmlns="http://www.w3.org/2000/svg" xmlns:xlink="http://www.w3.org/1999/xlink" x="0px" y="0px"
	 viewBox="0 0 700 400" style="enable-background:new 0 0 700 400;" xml:space="preserve">
<style type="text/css">
	.st0{fill:#1E1E1C;}
	.st1{fill:#F32735;}
	.st2{fill:#3DAE2B;}
	.st3{fill:#1B9CD9;}
	.st4{fill:#FFFFFF;}
	.st5{fill:#020203;}
	.st6{fill:none;stroke:#1E1E1C;stroke-width:5;stroke-miterlimit:10;}
	.st7{fill:#FFD741;}
</style>
<ellipse class="st0" cx="506.9" cy="161.9" rx="3.8" ry="6"/>
<g>
	<g>
		<path class="st1" d="M625,127.4c-1,2.4-3.2,2.8-5.4,3.1c-0.9,0.1-1.3,0.5-1.5,1.4c-0.4,1.5-1,3-1.4,4.6c-0.1,0.5,0,1.1,0.3,1.5
			c0.5,0.8,1.3,1.4,1.9,2.1c1.4,1.7,1.5,3.3,0.2,5.1c-1.2,1.5-2.4,3-3.7,4.4c-1.5,1.6-3.3,2-5,0.7c-2.2-1.8-3.9-1.7-6.5-0.4
			c-2.3,1.2-3.3,2.4-3.1,4.9c0.2,2.5-1.4,3.9-3.9,4.1c-1.6,0.1-3.2,0.3-4.8,0.4c-2.5,0.2-4.3-0.9-4.6-3.3c-0.3-2.7-1.4-3.9-4.2-4.7
			c-2.3-0.7-3.6-0.5-5.2,1.2c-2.1,2.3-3.8,2.2-6.3,0.2c-1.2-1-2.4-2-3.6-3c-1.8-1.6-2.2-3.4-0.8-5.3c1.7-2.2,1.9-3.9,0.4-6.4
			c-1.1-1.9-2.1-2.6-4.2-2.6c-3.3,0.1-4.6-1.3-4.8-4.6c-0.1-1.5-0.3-2.9-0.3-4.4c-0.1-2.4,0.9-3.9,3.2-4.3c2.5-0.3,3.6-1.4,4.4-4
			c0.7-2.5,0.7-4.1-1.3-5.9c-1.8-1.5-1.7-3.5-0.2-5.3c1.1-1.4,2.2-2.7,3.4-4.1c1.5-1.8,3.5-2.2,5.3-0.7c2,1.6,3.7,1.7,5.6,0.1
			c0.7-0.6,1.8-0.9,2.8-1.3c0.7-0.3,0.9-0.7,0.9-1.4c0-0.9,0-1.8,0.1-2.7c0.2-2,1.4-3.2,3.4-3.5c1.8-0.2,3.6-0.4,5.4-0.5
			c2.3-0.2,4,0.9,4.3,3.2c0.3,2.5,1.5,3.4,3.9,4.2c2.7,0.9,4.4,1,6.4-1.2c1.3-1.4,3.1-1.2,4.7,0c1.5,1.2,3,2.4,4.4,3.7
			c1.6,1.5,2,3.4,0.6,5.1c-1.6,2-1.4,3.5-0.3,5.7c1.2,2.3,2.2,3.5,5,3.3c2.2-0.2,3.5,1.4,3.7,3.7c0.2,1.4,0.3,2.8,0.5,4.2
			C625,125.7,625,126.6,625,127.4z M591.8,137.6c6.7,0.1,11.9-5.1,11.9-11.8c0-6.4-5.2-11.6-11.8-11.7c-6.5,0-11.6,5.1-11.7,11.9
			C580.1,132.3,585.3,137.5,591.8,137.6z"/>
		<path class="st2" d="M500.1,75.4c-0.9-1.1-1.9-2.4-2.9-3.7c-1.5-2-1.4-3.8,0.3-5.6c1.8-1.8,3.6-3.7,5.5-5.5
			c1.9-1.8,3.7-1.9,5.8-0.3c0.9,0.7,1.8,1.6,2.8,2.2c0.4,0.2,1.1,0.3,1.5,0.1c2.2-0.9,4.4-1.8,6.6-2.8c0.4-0.2,0.8-0.7,0.9-1.1
			c0.2-1.2,0.3-2.4,0.5-3.6c0.3-2.6,1.6-3.9,4.2-3.9c2.6,0,5.2,0,7.9,0c2.6,0,3.9,1.3,4.2,3.9c0.1,1.1,0.2,2.3,0.4,3.4
			c0.1,0.5,0.6,1,1,1.3c2.1,1,4.2,1.8,6.4,2.7c0.4,0.2,1,0.1,1.4-0.1c1-0.7,2-1.5,3-2.3c2-1.5,3.7-1.4,5.5,0.3
			c1.9,1.8,3.7,3.7,5.6,5.6c1.7,1.8,1.8,3.6,0.3,5.6c-0.7,1-1.6,1.9-2.3,3c-0.2,0.4-0.3,1-0.2,1.4c0.8,2.1,1.6,4.2,2.5,6.3
			c0.1,0.3,0.6,0.7,0.9,0.7c1.2,0.2,2.5,0.3,3.7,0.5c2.6,0.3,3.9,1.6,3.9,4.3c0,2.6,0,5.2,0,7.7c0,2.6-1.3,4-3.9,4.3
			c-1.4,0.2-3.1-0.1-4.1,0.6c-1,0.7-1.2,2.4-1.7,3.7c-0.3,0.7-0.5,1.4-0.9,1.9c-1,1.4-0.9,2.6,0.4,3.8c0.7,0.6,1.2,1.4,1.7,2.2
			c1.5,2,1.4,3.7-0.3,5.5c-1.9,1.9-3.7,3.8-5.7,5.6c-1.7,1.6-3.5,1.7-5.4,0.3c-1.1-0.8-2.3-1.7-3.3-2.6c-0.6-0.5-1-0.5-1.6-0.2
			c-2,0.9-4,1.7-6,2.4c-0.8,0.3-1.1,0.6-1.1,1.4c-0.1,1.5-0.3,3-0.5,4.5c-0.4,2-1.7,3.2-3.8,3.3c-2.8,0.1-5.6,0.1-8.4,0
			c-2.2,0-3.5-1.3-3.9-3.4c-0.2-1.4-0.4-2.9-0.5-4.4c-0.1-0.8-0.3-1.3-1.2-1.6c-1.8-0.7-3.6-1.4-5.4-2.3c-0.7-0.3-1.2-0.3-1.8,0.2
			c-1.1,0.9-2.2,1.8-3.3,2.6c-2,1.5-3.7,1.4-5.5-0.3c-1.9-1.8-3.8-3.7-5.7-5.6c-1.6-1.7-1.7-3.5-0.3-5.4c0.9-1.2,1.9-2.3,2.8-3.6
			c0.3-0.4,0.3-1.1,0.2-1.5c-0.7-1.8-1.4-3.6-2.3-5.4c-0.2-0.4-0.8-0.9-1.3-1c-1.5-0.3-3-0.3-4.5-0.6c-2.2-0.3-3.4-1.7-3.4-3.9
			c-0.1-2.8-0.1-5.5,0-8.3c0-2.2,1.2-3.5,3.4-3.9c1.4-0.2,2.8-0.3,4.2-0.5c0.4-0.1,1-0.4,1.1-0.8C498.3,80.3,499.2,77.9,500.1,75.4z
			 M529.2,105.9c7.9,0,14.4-6.5,14.4-14.4c0-7.9-6.6-14.5-14.5-14.4c-7.9,0-14.4,6.6-14.4,14.5C514.8,99.5,521.3,105.9,529.2,105.9z
			"/>
		<path class="st3" d="M520.3,174.1c0.7-1.1,1.3-2.2,2.1-3.3c0.6-0.7,0.6-1.2,0.3-2.1c-0.8-2.4-1.8-4.2-4.8-4.2
			c-1.4,0-2.3-1.2-2.4-2.6c-0.1-1.6-0.2-3.3,0-4.9c0.2-1.8,1.3-2.8,3.1-3.1c0.3,0,0.5-0.1,0.8-0.1c1.4,0.1,1.9-0.7,2.5-1.9
			c1-2.2,1.6-4-0.4-6c-1-1-0.7-2.7,0.3-3.8c1-1.1,2-2.2,3.2-3.2c1.6-1.3,3.3-1.2,5,0.3c1,0.9,1.9,1.2,3,0.3c0.2-0.1,0.4-0.2,0.6-0.3
			c2.3-0.5,3.8-1.5,3.9-4.2c0.1-1.3,1.4-2.2,2.7-2.3c1.6-0.1,3.2-0.2,4.8,0c2,0.2,3.1,1.6,3.2,3.8c0.1,1.4,0.6,2,1.8,2.2
			c0.2,0,0.4,0.1,0.6,0.2c1.9,1.3,3.7,1.5,5.6-0.2c1-0.8,2.4-0.6,3.5,0.3c1.2,1,2.3,2,3.2,3.2c1.4,1.7,1.4,3.4-0.2,5.2
			c-0.9,1-1.1,1.9-0.4,3c0.4,0.6,0.7,1.3,0.8,2c0.2,1.3,1,1.7,2.2,1.8c2.7,0.3,3.9,1.7,3.9,4.4c0,0.8,0,1.6,0,2.4
			c-0.1,2.7-1.2,4.1-3.9,4.3c-1.5,0.1-1.9,0.8-2.5,2.1c-1.1,2.2-1.5,3.9,0.3,6c1,1.1,0.6,2.7-0.4,3.9c-0.9,1.1-1.9,2.1-3,3
			c-1.6,1.3-3.3,1.3-5-0.3c-1.2-1.1-2.1-1-3.6-0.5c-2.3,0.8-3.8,1.7-3.9,4.4c-0.1,1.6-1.4,2.5-3.1,2.6c-1.5,0.1-2.9,0.1-4.4,0
			c-1.9-0.2-3.2-1.5-3.3-3.6c0-1.8-0.8-2.6-2.4-3.3c-2-0.9-3.4-1-5.1,0.5c-1.3,1.2-3,1-4.4-0.2c-1.1-1-2.1-2-3-3.2
			C520.9,175.9,520.7,175.1,520.3,174.1z M542.8,168.8c5.4-0.3,9.5-4.7,9.2-9.9c-0.3-5.3-4.8-9.6-9.9-9.3c-5.7,0.4-9.6,4.7-9.3,10.4
			C533.1,165.1,537.7,169.1,542.8,168.8z"/>
		<path class="st0" d="M297.9,165.4c0-9.9-1.4-31.8-14.9-54.8c-14.8-25.2-34.2-48-42.9-52.5C128.9,61.1,50.8,102.5,37,142.8
			c-3.7,10.9-6.8,19.8,1.1,52.5c1.3,4.4,14.5,45.7,57.5,60.9c37.5,13.3,69.6-3.4,74.7-6.1c10.1-8.7,14.4-22.3,11.1-34.9
			c-3.6-13.7-15.8-23.9-30.3-25.3c-6.6-0.6-12.4,3.4-13.8,8.8c-1.7,6.5,3.3,14.3,11.5,15.3c8.4,3,12.3,10.8,10.3,16.1
			c-1.7,4.8-7.7,6.3-8.4,6.5c-17.8,0.6-33.3-12.2-36-29.5c-2.6-16.7,7.4-33.3,23.8-38.7C191.7,167.5,244.8,166.5,297.9,165.4z"/>
		<path class="st0" d="M155.7,167.6"/>
		<circle class="st4" cx="236.9" cy="121.3" r="26.3"/>
		<circle class="st5" cx="251.2" cy="129.6" r="4.9"/>
		<ellipse class="st1" cx="159.7" cy="80.7" rx="10.6" ry="7.2"/>
		<ellipse transform="matrix(0.449 -0.8935 0.8935 0.449 -68.1372 130.8142)" class="st3" cx="72" cy="120.7" rx="10.4" ry="6.6"/>
		
			<ellipse transform="matrix(0.6872 -0.7265 0.7265 0.6872 -29.728 145.5587)" class="st2" cx="154.2" cy="107.3" rx="11.5" ry="9.3"/>
		
			<ellipse transform="matrix(0.9667 -0.2559 0.2559 0.9667 -19.5019 36.4227)" class="st3" cx="130.2" cy="93.1" rx="11.3" ry="8.4"/>
		
			<ellipse transform="matrix(0.6118 -0.7911 0.7911 0.6118 -46.5784 122.0007)" class="st1" cx="101" cy="108.5" rx="6.4" ry="4.5"/>
		<ellipse class="st2" cx="109" cy="129.1" rx="7.6" ry="8.4"/>
		<ellipse class="st3" cx="86.1" cy="129.7" rx="2.1" ry="3.2"/>
		<ellipse class="st2" cx="214" cy="73.6" rx="14.4" ry="6.3"/>
		<ellipse class="st3" cx="230.1" cy="87.3" rx="1.3" ry="1.1"/>
		<ellipse class="st2" cx="190.7" cy="81.7" rx="1.4" ry="1.5"/>
		<ellipse class="st3" cx="182.3" cy="71.1" rx="1.9" ry="1.7"/>
		<ellipse class="st1" cx="122.5" cy="114.5" rx="1.9" ry="1.9"/>
		<ellipse class="st2" cx="107.8" cy="97.1" rx="0.9" ry="1.1"/>
		<ellipse class="st2" cx="86" cy="107.6" rx="1.4" ry="1.3"/>
		<ellipse class="st3" cx="185.3" cy="102.8" rx="5" ry="5.2"/>
		<ellipse class="st1" cx="243.7" cy="75" rx="5.9" ry="4.2"/>
		<ellipse class="st2" cx="55.6" cy="140.1" rx="3.6" ry="5"/>
		<circle class="st1" cx="75.7" cy="148.6" r="5.7"/>
		<ellipse class="st1" cx="50.4" cy="160.1" rx="3.1" ry="4.2"/>
		<ellipse class="st1" cx="58.3" cy="175.4" rx="2.1" ry="2.7"/>
		<line class="st6" x1="290.5" y1="163" x2="503.9" y2="163"/>
		<g>
			<path d="M197.2,80.8c10.8,2.8,21.8,4.5,32.9,5.6c5.1,0.5,10.1,0.5,14.9-1.5c3.2-1.4,6.2-3.1,9.2-4.8c2.4-1.4,4.7-3,7.1-4.5
				c2-1.4,2.9-3.3,2.6-5.7c-0.3-2.3-1.6-3.9-3.8-4.7c-1.4-0.5-3-0.6-4.4-0.9c-0.3-0.1-0.6,0-1.2,0c0-2.1,0.2-4.1,0-6.1
				c-1.2-12-6.8-21.6-16.8-28.3c-20.6-13.7-48.2-4.7-56.9,18.5c-1.9,5-2.5,10.1-2.4,15.4c0,0.8-0.1,1.4-0.7,2
				c-1.4,1.7-1.5,3.6-0.2,5.4c0.7,0.9,1.5,1.7,2.4,2.4 M209.4,26.9c-0.3,0.2-0.3,0.3-0.4,0.3c-7.8,4-13.5,10-16.9,18.2
				c-0.8,2-1.5,4-2.2,6.1c-1.5,5-1.7,10.2-1.6,15.3c0,0.5,0,1,0,1.6l-0.3,0.2c-2.4-1.2-4.8-2.4-7.2-3.6c-0.2-0.1-0.3-0.5-0.3-0.8
				c0.1-2.6,0.1-5.3,0.5-7.9c2.1-14.4,13.3-26.3,27.5-29.3C208.7,26.9,209,26.9,209.4,26.9z M179.2,67.6c0.2-0.2,0.8,0,1.1,0.2
				c2.6,1.1,5.1,2.4,7.7,3.3c15.1,5.2,30.5,6.5,46.1,3.5c6.7-1.3,13.1-3.6,18.9-7.5c0.3-0.2,0.6-0.4,0.9-0.3c1.5,0.1,3,0.3,4.5,0.6
				c1.3,0.3,2.3,1.2,2.5,2.6c0.2,1.5-0.3,2.8-1.6,3.5c-3.9,2.5-7.9,5-11.9,7.3c-3.8,2.2-7.9,3.2-13.3,3.1c-1.4-0.1-3.7-0.2-6-0.4
				c-10-1-19.9-2.6-29.6-5.2c-5.7-1.5-11.5-3.1-16.6-6.3c-1.2-0.8-2.4-1.6-3-2.9C178.6,68.6,178.7,68,179.2,67.6z"/>
			<path class="st7" d="M187.9,66.9c0,0.5,0,1,0,1.5c3.3,0.8,6.6,1.6,10,2.3c8.4,1.6,16.8,2.1,25.3,1.5c8.8-0.6,17.2-2.3,25-6.3
				c0.4-0.2,0.8-0.4,1.2-0.6c2.6-1.5,2.9-2.3,2.2-5.2c-0.4-1.6-0.2-3.2-0.5-4.8c-1.8-10.9-7.7-19.3-17.5-25.2
				c-0.1-0.1-0.2-0.1-0.4-0.1c0.2,0.2,0.3,0.3,0.5,0.5c6.8,6.9,10.4,15,10.7,24.4c0,0.8-0.1,1.5-1,1.7c-1,0.3-1.7-0.3-1.8-1.5
				c-0.2-2.1-0.2-4.2-0.7-6.2c-2.3-10.4-8.5-18.1-18.5-23c-0.9-0.4-2-0.4-3-0.4c-2.7,0-5.3,0.5-8,1.3c0.3,0.2,0.6,0.3,0.8,0.5
				c11.5,6.3,17.9,15.7,19.3,28.2c0.1,0.9,0.1,1.9,0.2,2.8c0,1.1-0.4,1.6-1.3,1.6c-1,0-1.4-0.5-1.5-1.6c-0.1-6.8-2.2-13-6.3-18.6
				c-3.6-4.8-8.2-8.4-13.8-11c-0.7-0.3-1.2-0.3-1.9,0.1c-5.9,3.1-10.4,7.5-13.7,13c-0.1,0.2-0.2,0.3-0.3,0.6
				c-1.9,3.6-4.2,8.9-4.9,15.6C187.5,61.3,187.6,64.3,187.9,66.9z"/>
			<path class="st7" d="M179.2,67.6c0.2-0.2,0.8,0,1.1,0.2c2.6,1.1,5.1,2.4,7.7,3.3c15.1,5.2,30.5,6.5,46.1,3.5
				c6.7-1.3,13.1-3.6,18.9-7.5c0.3-0.2,0.6-0.4,0.9-0.3c1.5,0.1,3,0.3,4.5,0.6c1.3,0.3,2.3,1.2,2.5,2.6c0.2,1.5-0.3,2.8-1.6,3.5
				c-3.9,2.5-7.9,5-11.9,7.3c-3.8,2.2-7.9,3.2-13.3,3.1c-1.4-0.1-3.7-0.2-6-0.4c-10-1-19.9-2.6-29.6-5.2c-5.7-1.5-11.5-3.1-16.6-6.3
				c-1.2-0.8-2.4-1.6-3-2.9C178.6,68.6,178.7,68,179.2,67.6z"/>
			<path class="st7" d="M188.4,68.3c0-0.5,0-1,0-1.6c-0.1-5.2,0.1-10.3,1.6-15.3c0.6-2,1.3-4.1,2.2-6.1c3.4-8.1,11.4-11.9,17-18.2
				c0.1,0,0.1-0.1,0.4-0.3c-0.4,0-0.7,0-0.9,0.1c-14.3,3-25.6,14.9-27.7,29.3c-0.4,2.6-0.3,5.3-0.5,7.9c0,0.3,0.1,0.7,0.3,0.8
				c2.4,1.2,4.9,2.4,7.3,3.6C188.2,68.4,188.3,68.4,188.4,68.3z"/>
			<polygon points="208.7,28.6 204.6,27.4 209.6,25.4 211.6,27.4 			"/>
		</g>
		<g>
			<g>
				<path class="st5" d="M205.7,223.6h22.8v4.9h-17.7v9.9h15.8v4.9h-15.8v10.1h18.4v4.9h-23.5V223.6z"/>
				<path class="st5" d="M237.2,258.4v-36h0l18.5,26.3l-2.2-0.5l18.5-25.8h0v36h-5.1V234l0.3,2.6l-12.8,18.2h-0.1l-13.1-18.2
					l0.9-2.4v24.2H237.2z"/>
				<path class="st5" d="M322.8,255.7c-0.5,0.4-1.3,0.8-2.3,1.3c-1,0.5-2.2,0.9-3.6,1.3c-1.4,0.4-2.9,0.5-4.5,0.5
					c-2.7,0-5.2-0.5-7.3-1.4c-2.2-0.9-4-2.2-5.5-3.8c-1.5-1.6-2.7-3.5-3.5-5.6c-0.8-2.1-1.2-4.3-1.2-6.7c0-2.6,0.4-5,1.2-7.2
					c0.8-2.2,2-4.1,3.5-5.7c1.5-1.6,3.4-2.8,5.5-3.7c2.1-0.9,4.4-1.3,6.9-1.3c2.1,0,4.1,0.3,5.8,0.8c1.7,0.6,3.2,1.2,4.4,2l-2.1,4.8
					c-0.9-0.6-2.1-1.3-3.4-1.8s-2.9-0.9-4.6-0.9c-1.6,0-3.1,0.3-4.6,1c-1.5,0.6-2.7,1.6-3.8,2.7c-1.1,1.2-2,2.6-2.6,4.1
					c-0.6,1.6-1,3.3-1,5.1c0,1.8,0.3,3.5,0.9,5.1s1.4,3,2.5,4.1c1.1,1.2,2.4,2,3.9,2.7c1.5,0.6,3.2,1,5.1,1c1.8,0,3.4-0.3,4.7-0.8
					c1.4-0.5,2.5-1.2,3.3-1.9L322.8,255.7z"/>
				<path class="st5" d="M328.3,241c0-2.4,0.5-4.7,1.4-6.8s2.2-4,3.8-5.7c1.6-1.7,3.5-3,5.6-3.9c2.1-0.9,4.4-1.4,6.9-1.4
					c2.5,0,4.8,0.5,6.9,1.4c2.1,0.9,4,2.2,5.7,3.9s2.9,3.6,3.9,5.7c0.9,2.1,1.4,4.4,1.4,6.8c0,2.5-0.5,4.8-1.4,6.9
					c-0.9,2.1-2.2,4-3.9,5.7c-1.7,1.6-3.6,2.9-5.7,3.8c-2.1,0.9-4.4,1.4-6.9,1.4c-2.5,0-4.8-0.4-6.9-1.3c-2.1-0.9-4-2.2-5.6-3.8
					c-1.6-1.6-2.9-3.5-3.8-5.6C328.8,245.9,328.3,243.5,328.3,241z M333.6,241c0,1.8,0.3,3.5,1,5c0.6,1.6,1.5,2.9,2.7,4.1
					s2.5,2.1,4,2.7c1.5,0.7,3.2,1,4.9,1c1.7,0,3.3-0.3,4.8-1c1.5-0.7,2.8-1.6,4-2.7c1.1-1.2,2-2.5,2.7-4.1c0.6-1.6,1-3.2,1-5
					c0-1.8-0.3-3.5-1-5c-0.7-1.6-1.5-2.9-2.7-4.1c-1.1-1.2-2.4-2.1-4-2.8c-1.5-0.7-3.2-1-4.9-1c-1.8,0-3.4,0.3-4.9,1
					c-1.5,0.7-2.8,1.6-4,2.8c-1.1,1.2-2,2.6-2.6,4.1C333.9,237.6,333.6,239.2,333.6,241z"/>
				<path class="st5" d="M401.9,259.6l-26.8-26.6l1.5,0.5l0.1,24.9h-5.1v-36h0.2l26.4,26.6l-1.2-0.3l-0.1-25.2h5.1L401.9,259.6
					L401.9,259.6z"/>
				<path class="st5" d="M430,230.2c-1.2-0.6-2.5-1.1-3.9-1.6c-1.4-0.5-2.8-0.7-4.1-0.7c-1.8,0-3.2,0.4-4.3,1.2
					c-1.1,0.8-1.6,1.9-1.6,3.3c0,1,0.4,1.9,1.1,2.6c0.7,0.7,1.6,1.4,2.7,1.9c1.1,0.6,2.3,1.1,3.6,1.5c1.1,0.4,2.1,0.8,3.1,1.4
					c1,0.5,2,1.2,2.8,1.9c0.8,0.8,1.5,1.7,2,2.9c0.5,1.1,0.7,2.5,0.7,4.2c0,1.8-0.5,3.5-1.4,5c-0.9,1.5-2.2,2.7-4,3.6
					c-1.7,0.9-3.8,1.3-6.2,1.3c-1.5,0-2.9-0.2-4.3-0.5c-1.4-0.3-2.7-0.8-3.9-1.3c-1.2-0.5-2.3-1.2-3.3-1.9l2.3-4
					c0.8,0.6,1.6,1.1,2.6,1.6s2,0.8,3.1,1.2c1.1,0.3,2.1,0.5,3,0.5c1.1,0,2.1-0.2,3.1-0.6c1-0.4,1.9-0.9,2.6-1.7
					c0.7-0.8,1-1.8,1-3.1c0-1.1-0.3-2-0.9-2.8c-0.6-0.8-1.4-1.4-2.4-1.9c-1-0.5-2-1-3.2-1.4c-1.1-0.4-2.2-0.8-3.3-1.3
					c-1.1-0.5-2.2-1.1-3.1-1.9c-1-0.7-1.7-1.6-2.3-2.7c-0.6-1.1-0.9-2.4-0.9-4c0-1.9,0.4-3.5,1.3-4.9c0.9-1.4,2.1-2.5,3.7-3.3
					c1.6-0.8,3.4-1.2,5.4-1.2c2.4,0,4.4,0.3,6.1,0.8c1.7,0.6,3.3,1.3,4.6,2.1L430,230.2z"/>
				<path class="st5" d="M437.3,223.6h23.2v4.9h-9.2v29.9h-5.1v-29.9h-8.9V223.6z"/>
				<path class="st5" d="M477.3,223.6c1.8,0,3.5,0.2,5.1,0.7c1.6,0.5,2.9,1.2,4,2.1c1.1,0.9,2,2.1,2.6,3.4c0.6,1.4,0.9,2.9,0.9,4.7
					c0,1.4-0.2,2.7-0.6,4.1c-0.4,1.4-1.1,2.6-2,3.7c-0.9,1.1-2.2,2-3.7,2.6s-3.4,1-5.6,1h-5.1v12.4h-5.1v-34.8H477.3z M477.9,240.9
					c1.3,0,2.4-0.2,3.2-0.6s1.6-0.9,2.1-1.5s0.8-1.3,1.1-2c0.2-0.7,0.3-1.4,0.3-2c0-0.6-0.1-1.3-0.3-2c-0.2-0.7-0.6-1.4-1.1-2.1
					c-0.5-0.7-1.2-1.2-2-1.6c-0.8-0.4-1.9-0.6-3.1-0.6h-5.3v12.5H477.9z M483.8,244l9,14.4h-6l-9.2-14.3L483.8,244z"/>
				<path class="st5" d="M504.3,245.9c0,1.5,0.4,2.8,1.1,4c0.7,1.2,1.7,2.1,2.9,2.8c1.2,0.7,2.6,1.1,4.1,1.1c1.6,0,3-0.4,4.2-1.1
					c1.2-0.7,2.2-1.6,2.9-2.8c0.7-1.2,1.1-2.5,1.1-4v-22.4h5V246c0,2.6-0.6,4.8-1.8,6.7c-1.2,1.9-2.8,3.4-4.8,4.4
					c-2,1.1-4.3,1.6-6.7,1.6c-2.5,0-4.7-0.5-6.7-1.6c-2-1.1-3.6-2.5-4.8-4.4c-1.2-1.9-1.8-4.1-1.8-6.7v-22.5h5.1V245.9z"/>
				<path class="st5" d="M560.7,255.7c-0.5,0.4-1.3,0.8-2.3,1.3c-1,0.5-2.2,0.9-3.6,1.3c-1.4,0.4-2.9,0.5-4.5,0.5
					c-2.7,0-5.2-0.5-7.3-1.4c-2.2-0.9-4-2.2-5.5-3.8c-1.5-1.6-2.7-3.5-3.5-5.6c-0.8-2.1-1.2-4.3-1.2-6.7c0-2.6,0.4-5,1.2-7.2
					c0.8-2.2,2-4.1,3.5-5.7c1.5-1.6,3.4-2.8,5.5-3.7c2.1-0.9,4.4-1.3,6.9-1.3c2.1,0,4.1,0.3,5.8,0.8c1.7,0.6,3.2,1.2,4.4,2l-2.1,4.8
					c-0.9-0.6-2.1-1.3-3.4-1.8s-2.9-0.9-4.6-0.9c-1.6,0-3.1,0.3-4.6,1c-1.5,0.6-2.7,1.6-3.8,2.7c-1.1,1.2-2,2.6-2.6,4.1
					c-0.6,1.6-1,3.3-1,5.1c0,1.8,0.3,3.5,0.9,5.1s1.4,3,2.5,4.1c1.1,1.2,2.4,2,3.9,2.7c1.5,0.6,3.2,1,5.1,1c1.8,0,3.4-0.3,4.7-0.8
					c1.4-0.5,2.5-1.2,3.3-1.9L560.7,255.7z M545.6,265.6c0.4,0.4,0.8,0.7,1.3,0.9c0.5,0.2,1.1,0.4,1.8,0.4c0.7,0,1.4-0.2,2.1-0.6
					c0.7-0.4,1-0.9,1-1.6c0-0.5-0.2-1-0.6-1.4c-0.4-0.4-1.2-0.6-2.4-0.6c-0.5,0-1,0.1-1.6,0.2c-0.6,0.1-1.1,0.3-1.5,0.4l-0.8-2.4
					l3.4-3l3.7,0.1l-3.5,4.1l-1.1-1.2c0.4-0.1,0.8-0.2,1.2-0.3c0.5-0.1,0.9-0.1,1.3-0.2c1.7,0,3.2,0.3,4.3,1
					c1.1,0.7,1.7,1.8,1.7,3.2c0,1.1-0.3,2-1,2.8c-0.6,0.7-1.5,1.2-2.5,1.6c-1,0.3-2.1,0.5-3.3,0.5c-1.2,0-2.3-0.2-3.2-0.6
					c-0.9-0.4-1.6-0.8-2.1-1.3L545.6,265.6z"/>
				<path class="st5" d="M564.7,258.4l15.4-36.3h0.3l15.3,36.3h-5.9l-11.1-28.2l3.6-2.4l-12.5,30.7H564.7z M574.1,245.3h12.4
					l1.7,4.4h-15.6L574.1,245.3z M583.9,219c-1,0-1.9-0.2-2.6-0.7c-0.7-0.4-1.3-0.9-1.8-1.4c-0.4-0.4-0.8-0.7-1.2-1
					s-0.8-0.4-1.2-0.4c-0.4,0-0.7,0.2-1,0.5c-0.3,0.3-0.5,0.7-0.6,1.2s-0.2,1.1-0.2,1.8l-2.5,0c-0.1-1.2,0-2.4,0.4-3.4
					c0.4-1,0.9-1.8,1.7-2.4c0.7-0.6,1.6-0.9,2.7-0.9c0.8,0,1.6,0.2,2.2,0.7c0.6,0.4,1.2,0.9,1.7,1.4c0.4,0.4,0.9,0.8,1.3,1.1
					s0.8,0.5,1.3,0.5c0.6,0,1-0.3,1.3-1c0.3-0.7,0.4-1.6,0.4-2.7l2.6,0c0.1,1.3,0,2.5-0.3,3.5c-0.3,1-0.8,1.8-1.5,2.4
					C585.6,218.7,584.8,219,583.9,219z"/>
				<path class="st5" d="M599.8,241c0-2.4,0.5-4.7,1.4-6.8s2.2-4,3.8-5.7c1.6-1.7,3.5-3,5.6-3.9c2.1-0.9,4.4-1.4,6.9-1.4
					c2.5,0,4.8,0.5,6.9,1.4c2.1,0.9,4,2.2,5.7,3.9s2.9,3.6,3.9,5.7c0.9,2.1,1.4,4.4,1.4,6.8c0,2.5-0.5,4.8-1.4,6.9
					c-0.9,2.1-2.2,4-3.9,5.7c-1.7,1.6-3.6,2.9-5.7,3.8s-4.4,1.4-6.9,1.4c-2.5,0-4.8-0.4-6.9-1.3c-2.1-0.9-4-2.2-5.6-3.8
					c-1.6-1.6-2.9-3.5-3.8-5.6C600.3,245.9,599.8,243.5,599.8,241z M605.1,241c0,1.8,0.3,3.5,1,5c0.6,1.6,1.5,2.9,2.7,4.1
					s2.5,2.1,4,2.7c1.5,0.7,3.2,1,4.9,1c1.7,0,3.3-0.3,4.8-1c1.5-0.7,2.8-1.6,4-2.7c1.1-1.2,2-2.5,2.7-4.1c0.6-1.6,1-3.2,1-5
					c0-1.8-0.3-3.5-1-5c-0.7-1.6-1.5-2.9-2.7-4.1c-1.1-1.2-2.4-2.1-4-2.8c-1.5-0.7-3.2-1-4.9-1c-1.8,0-3.4,0.3-4.9,1
					c-1.5,0.7-2.8,1.6-4,2.8c-1.1,1.2-2,2.6-2.6,4.1C605.4,237.6,605.1,239.2,605.1,241z"/>
			</g>
		</g>
		<path class="st7" d="M265.3,32.4"/>
	</g>
	<g>
		<g>
			<path class="st5" d="M205.9,286h14v1.5h-12.4v9h11.2v1.5h-11.2v9.2h12.9v1.5h-14.5V286z"/>
			<path class="st5" d="M228.6,309c-0.7,0-1.5-0.1-2.3-0.4s-1.4-0.7-1.9-1.3l0.7-1c0.4,0.4,0.9,0.8,1.5,1.1c0.6,0.3,1.2,0.4,1.9,0.4
				c0.5,0,1-0.1,1.4-0.2s0.8-0.4,1.1-0.7c0.3-0.3,0.4-0.8,0.4-1.4c0-0.6-0.2-1.1-0.5-1.4c-0.3-0.3-0.7-0.6-1.2-0.8
				c-0.5-0.2-1-0.4-1.6-0.6c-0.9-0.3-1.7-0.7-2.3-1.2c-0.6-0.5-0.9-1.2-0.9-2.2c0-0.7,0.2-1.3,0.5-1.8c0.3-0.5,0.8-0.9,1.4-1.2
				s1.2-0.4,2-0.4c0.7,0,1.3,0.1,2,0.3c0.7,0.2,1.2,0.6,1.8,1.1l-0.7,1.1c-0.3-0.5-0.8-0.8-1.4-1s-1.1-0.3-1.5-0.3
				c-0.4,0-0.7,0.1-1.1,0.2c-0.4,0.1-0.7,0.4-1,0.7s-0.4,0.7-0.4,1.1c0,0.5,0.1,0.9,0.4,1.2c0.3,0.3,0.6,0.6,1.1,0.8
				s0.9,0.4,1.4,0.5c0.6,0.2,1.2,0.4,1.7,0.7s1,0.6,1.3,1.1c0.4,0.4,0.5,1,0.5,1.7s-0.2,1.4-0.5,2c-0.3,0.6-0.8,1-1.4,1.4
				S229.5,309,228.6,309z"/>
			<path class="st5" d="M238.6,290.8h1.5v5.7h3.9v1.2h-3.9v11.1h-1.5v-11.1H236v-1.2h2.7V290.8z"/>
			<path class="st5" d="M253,309c-1.2,0-2.3-0.3-3.2-0.8s-1.7-1.3-2.3-2.3c-0.6-1-0.8-2.1-0.8-3.4c0-1.4,0.3-2.6,0.9-3.6
				c0.6-1,1.4-1.7,2.4-2.3c1-0.5,2.2-0.8,3.5-0.8c1.1,0,2.2,0.3,3.2,1c1,0.7,1.7,1.5,2.1,2.5l-0.2,0.4l0.2-3.6h1.3v12.5h-1.5v-3.9
				l0.3,0.6c-0.2,0.4-0.4,0.8-0.8,1.3c-0.4,0.4-0.8,0.8-1.3,1.2c-0.5,0.4-1.1,0.6-1.7,0.8C254.3,308.9,253.7,309,253,309z
				 M253.3,307.7c0.9,0,1.8-0.2,2.5-0.6c0.8-0.4,1.4-0.9,1.8-1.6c0.5-0.7,0.7-1.5,0.8-2.4v-1.8c-0.2-0.8-0.5-1.5-1-2.1
				c-0.5-0.6-1.1-1.1-1.8-1.5c-0.7-0.4-1.5-0.5-2.4-0.5c-0.9,0-1.8,0.2-2.6,0.7s-1.4,1.1-1.9,1.8c-0.5,0.8-0.7,1.7-0.7,2.8
				c0,1,0.2,1.9,0.7,2.7c0.5,0.8,1.1,1.4,1.9,1.9C251.5,307.5,252.4,307.7,253.3,307.7z"/>
			<path class="st5" d="M267,296.3l0.2,3.5l-0.2-0.3c0.4-1.1,1.1-1.9,2.1-2.6c1-0.6,2.1-0.9,3.2-0.9c0.7,0,1.3,0.1,1.9,0.4
				s1,0.6,1.4,1.1s0.6,1,0.6,1.6l-0.2,0.2c0.4-1.1,1.2-1.9,2.1-2.4s2-0.8,3.1-0.8c1.2,0,2.1,0.3,2.8,1s1.1,1.6,1.1,2.7v9.1h-1.5V300
				c0-0.7-0.3-1.4-0.7-1.9s-1.1-0.8-2-0.8c-0.8,0-1.6,0.2-2.3,0.6s-1.3,1-1.7,1.7c-0.4,0.7-0.7,1.5-0.7,2.4v6.8h-1.5V300
				c0-0.7-0.3-1.4-0.7-1.9c-0.5-0.5-1.1-0.8-2.1-0.8c-0.9,0-1.6,0.2-2.4,0.6s-1.3,1-1.7,1.7c-0.4,0.7-0.6,1.6-0.6,2.4v6.7h-1.5
				v-12.5H267z"/>
			<path class="st5" d="M289.6,302.4c0-1.2,0.3-2.3,0.9-3.3s1.4-1.8,2.4-2.4c1-0.6,2.1-0.9,3.4-0.9c1.3,0,2.4,0.3,3.4,0.9
				c1,0.6,1.8,1.4,2.4,2.4s0.9,2.1,0.9,3.3s-0.3,2.3-0.9,3.3s-1.4,1.8-2.4,2.4c-1,0.6-2.2,0.9-3.4,0.9c-1.3,0-2.4-0.3-3.4-0.8
				c-1-0.6-1.8-1.3-2.4-2.3C289.9,304.8,289.6,303.7,289.6,302.4z M291.1,302.5c0,1,0.2,1.9,0.7,2.7c0.5,0.8,1.1,1.4,1.9,1.9
				c0.8,0.5,1.6,0.7,2.6,0.7s1.8-0.2,2.6-0.7c0.8-0.5,1.4-1.1,1.9-1.9c0.5-0.8,0.7-1.7,0.7-2.7c0-1-0.2-1.9-0.7-2.7
				c-0.5-0.8-1.1-1.4-1.9-1.9c-0.8-0.5-1.6-0.7-2.6-0.7c-1,0-1.9,0.3-2.6,0.8c-0.8,0.5-1.4,1.2-1.8,2
				C291.4,300.7,291.1,301.5,291.1,302.5z"/>
			<path class="st5" d="M310.4,309c-0.7,0-1.5-0.1-2.3-0.4s-1.4-0.7-1.9-1.3l0.7-1c0.4,0.4,0.9,0.8,1.5,1.1c0.6,0.3,1.2,0.4,1.9,0.4
				c0.5,0,1-0.1,1.4-0.2s0.8-0.4,1.1-0.7c0.3-0.3,0.4-0.8,0.4-1.4c0-0.6-0.2-1.1-0.5-1.4c-0.3-0.3-0.7-0.6-1.2-0.8
				c-0.5-0.2-1-0.4-1.6-0.6c-0.9-0.3-1.7-0.7-2.3-1.2c-0.6-0.5-0.9-1.2-0.9-2.2c0-0.7,0.2-1.3,0.5-1.8c0.3-0.5,0.8-0.9,1.4-1.2
				s1.2-0.4,2-0.4c0.7,0,1.3,0.1,2,0.3c0.7,0.2,1.2,0.6,1.8,1.1l-0.7,1.1c-0.3-0.5-0.8-0.8-1.4-1s-1.1-0.3-1.5-0.3
				c-0.4,0-0.7,0.1-1.1,0.2c-0.4,0.1-0.7,0.4-1,0.7s-0.4,0.7-0.4,1.1c0,0.5,0.1,0.9,0.4,1.2c0.3,0.3,0.6,0.6,1.1,0.8
				s0.9,0.4,1.4,0.5c0.6,0.2,1.2,0.4,1.7,0.7s1,0.6,1.3,1.1c0.4,0.4,0.5,1,0.5,1.7s-0.2,1.4-0.5,2c-0.3,0.6-0.8,1-1.4,1.4
				S311.4,309,310.4,309z"/>
			<path class="st5" d="M334.3,309c-1.2,0-2.3-0.3-3.2-0.8s-1.7-1.3-2.3-2.3c-0.6-1-0.8-2.1-0.8-3.4c0-1.4,0.3-2.6,0.9-3.6
				c0.6-1,1.4-1.7,2.4-2.3c1-0.5,2.2-0.8,3.5-0.8c1.1,0,2.2,0.3,3.2,1c1,0.7,1.7,1.5,2.1,2.5l-0.2,0.4l0.2-3.6h1.3v12.5h-1.5v-3.9
				l0.3,0.6c-0.2,0.4-0.4,0.8-0.8,1.3c-0.4,0.4-0.8,0.8-1.3,1.2c-0.5,0.4-1.1,0.6-1.7,0.8C335.6,308.9,335,309,334.3,309z
				 M334.6,307.7c0.9,0,1.8-0.2,2.5-0.6c0.8-0.4,1.4-0.9,1.8-1.6c0.5-0.7,0.7-1.5,0.8-2.4v-1.8c-0.2-0.8-0.5-1.5-1-2.1
				c-0.5-0.6-1.1-1.1-1.8-1.5c-0.7-0.4-1.5-0.5-2.4-0.5c-0.9,0-1.8,0.2-2.6,0.7s-1.4,1.1-1.9,1.8c-0.5,0.8-0.7,1.7-0.7,2.8
				c0,1,0.2,1.9,0.7,2.7c0.5,0.8,1.1,1.4,1.9,1.9C332.8,307.5,333.6,307.7,334.6,307.7z"/>
			<path class="st5" d="M358.1,296.3l0.2,3.5l-0.2-0.3c0.4-1.1,1.1-1.9,2.1-2.6s2.1-0.9,3.2-0.9c0.7,0,1.3,0.1,1.9,0.4
				c0.6,0.3,1,0.6,1.4,1.1s0.6,1,0.6,1.6l-0.2,0.2c0.4-1.1,1.2-1.9,2.1-2.4c1-0.6,2-0.8,3.1-0.8c1.2,0,2.1,0.3,2.8,1
				c0.7,0.7,1.1,1.6,1.1,2.7v9.1h-1.5V300c0-0.7-0.3-1.4-0.7-1.9c-0.4-0.5-1.1-0.8-2-0.8c-0.8,0-1.6,0.2-2.3,0.6
				c-0.7,0.4-1.3,1-1.7,1.7c-0.4,0.7-0.7,1.5-0.7,2.4v6.8h-1.5V300c0-0.7-0.3-1.4-0.7-1.9c-0.5-0.5-1.1-0.8-2.1-0.8
				c-0.9,0-1.6,0.2-2.4,0.6s-1.3,1-1.7,1.7c-0.4,0.7-0.6,1.6-0.6,2.4v6.7h-1.5v-12.5H358.1z"/>
			<path class="st5" d="M387.4,309c-1.3,0-2.5-0.3-3.5-0.9c-1-0.6-1.8-1.4-2.4-2.4c-0.6-1-0.8-2.1-0.8-3.3c0-1.2,0.3-2.3,0.9-3.3
				c0.6-1,1.4-1.8,2.4-2.4c1-0.6,2.1-0.9,3.4-0.9c1.5,0,2.7,0.4,3.8,1.3s1.7,2,2.2,3.4l-10.9,4.2l-0.4-1.1l10-3.9l-0.3,0.4
				c-0.4-0.9-0.9-1.6-1.6-2.2c-0.7-0.6-1.6-0.9-2.7-0.9c-1,0-1.8,0.2-2.6,0.7c-0.8,0.5-1.4,1.1-1.8,1.9c-0.5,0.8-0.7,1.7-0.7,2.7
				c0,0.9,0.2,1.8,0.7,2.6s1.1,1.5,1.8,2s1.7,0.7,2.7,0.7c0.7,0,1.3-0.1,2-0.4c0.6-0.3,1.2-0.6,1.7-1l0.8,1.1
				c-0.6,0.5-1.3,0.9-2.1,1.2S388.2,309,387.4,309z"/>
			<path class="st5" d="M397.5,284.4h1.5v24.3h-1.5V284.4z"/>
			<path class="st5" d="M404.7,308.8v-24.3h1.5v15.1l-0.1-0.5c0.4-0.9,1.1-1.6,2.1-2.2c0.9-0.6,2-0.9,3.3-0.9c1.2,0,2.1,0.3,2.8,1
				s1.1,1.6,1.1,2.7v9.1h-1.5v-8.7c0-0.8-0.3-1.5-0.8-2c-0.5-0.5-1.2-0.8-2.1-0.8c-0.8,0-1.6,0.2-2.3,0.6s-1.3,1-1.7,1.7
				c-0.4,0.7-0.7,1.5-0.7,2.5v6.7H404.7z"/>
			<path class="st5" d="M419.9,302.4c0-1.2,0.3-2.3,0.9-3.3c0.6-1,1.4-1.8,2.4-2.4c1-0.6,2.1-0.9,3.4-0.9c1.3,0,2.4,0.3,3.4,0.9
				c1,0.6,1.8,1.4,2.4,2.4s0.9,2.1,0.9,3.3s-0.3,2.3-0.9,3.3s-1.4,1.8-2.4,2.4c-1,0.6-2.2,0.9-3.4,0.9c-1.3,0-2.4-0.3-3.4-0.8
				c-1-0.6-1.8-1.3-2.4-2.3C420.2,304.8,419.9,303.7,419.9,302.4z M421.4,302.5c0,1,0.2,1.9,0.7,2.7c0.5,0.8,1.1,1.4,1.9,1.9
				c0.8,0.5,1.6,0.7,2.6,0.7c1,0,1.8-0.2,2.6-0.7c0.8-0.5,1.4-1.1,1.9-1.9c0.5-0.8,0.7-1.7,0.7-2.7c0-1-0.2-1.9-0.7-2.7
				c-0.5-0.8-1.1-1.4-1.9-1.9c-0.8-0.5-1.6-0.7-2.6-0.7c-1,0-1.9,0.3-2.6,0.8c-0.8,0.5-1.4,1.2-1.8,2
				C421.6,300.7,421.4,301.5,421.4,302.5z"/>
			<path class="st5" d="M439,296.3l0.2,3.8l-0.2-0.5c0.3-0.8,0.7-1.4,1.3-2c0.6-0.6,1.3-1,2-1.3c0.7-0.3,1.4-0.4,2.1-0.4l-0.1,1.5
				c-1,0-1.8,0.2-2.6,0.6s-1.4,1-1.9,1.7c-0.5,0.7-0.7,1.5-0.7,2.4v6.6h-1.5v-12.5H439z"/>
			<path class="st5" d="M453.9,309c-1.2,0-2.3-0.3-3.2-0.8s-1.7-1.3-2.3-2.3c-0.6-1-0.8-2.1-0.8-3.4c0-1.4,0.3-2.6,0.9-3.6
				c0.6-1,1.4-1.7,2.4-2.3c1-0.5,2.2-0.8,3.5-0.8c1.1,0,2.2,0.3,3.2,1c1,0.7,1.7,1.5,2.1,2.5l-0.2,0.4l0.2-3.6h1.3v12.5h-1.5v-3.9
				l0.3,0.6c-0.2,0.4-0.4,0.8-0.8,1.3s-0.8,0.8-1.3,1.2c-0.5,0.4-1.1,0.6-1.7,0.8C455.2,308.9,454.6,309,453.9,309z M454.2,307.7
				c0.9,0,1.8-0.2,2.5-0.6s1.4-0.9,1.8-1.6c0.5-0.7,0.7-1.5,0.8-2.4v-1.8c-0.2-0.8-0.5-1.5-1-2.1c-0.5-0.6-1.1-1.1-1.8-1.5
				c-0.7-0.4-1.5-0.5-2.4-0.5c-0.9,0-1.8,0.2-2.6,0.7s-1.4,1.1-1.9,1.8s-0.7,1.7-0.7,2.8c0,1,0.2,1.9,0.7,2.7s1.1,1.4,1.9,1.9
				C452.4,307.5,453.2,307.7,454.2,307.7z"/>
			<path class="st5" d="M467.9,296.3l0.2,3.8l-0.2-0.5c0.3-0.8,0.7-1.4,1.3-2c0.6-0.6,1.3-1,2-1.3s1.4-0.4,2.1-0.4l-0.1,1.5
				c-1,0-1.8,0.2-2.6,0.6c-0.8,0.4-1.4,1-1.9,1.7s-0.7,1.5-0.7,2.4v6.6h-1.5v-12.5H467.9z"/>
			<path class="st5" d="M492.5,309c-1.2,0-2.3-0.3-3.2-0.8s-1.7-1.3-2.3-2.3c-0.6-1-0.8-2.1-0.8-3.4c0-1.4,0.3-2.6,0.9-3.6
				c0.6-1,1.4-1.7,2.4-2.3c1-0.5,2.2-0.8,3.5-0.8c1.1,0,2.2,0.3,3.2,1c1,0.7,1.7,1.5,2.1,2.5l-0.2,0.4l0.2-3.6h1.3v12.5H498v-3.9
				l0.3,0.6c-0.2,0.4-0.4,0.8-0.8,1.3s-0.8,0.8-1.3,1.2c-0.5,0.4-1.1,0.6-1.7,0.8C493.9,308.9,493.2,309,492.5,309z M492.8,307.7
				c0.9,0,1.8-0.2,2.5-0.6s1.4-0.9,1.8-1.6c0.5-0.7,0.7-1.5,0.8-2.4v-1.8c-0.2-0.8-0.5-1.5-1-2.1c-0.5-0.6-1.1-1.1-1.8-1.5
				c-0.7-0.4-1.5-0.5-2.4-0.5c-0.9,0-1.8,0.2-2.6,0.7s-1.4,1.1-1.9,1.8s-0.7,1.7-0.7,2.8c0,1,0.2,1.9,0.7,2.7s1.1,1.4,1.9,1.9
				C491,307.5,491.9,307.7,492.8,307.7z"/>
			<path class="st5" d="M519,309.1c-1.2,0-2.1-0.3-2.8-1c-0.7-0.7-1.1-1.6-1.1-2.7v-9.1h1.5v8.7c0,0.8,0.3,1.5,0.8,2
				s1.2,0.8,2.2,0.9c0.8,0,1.6-0.2,2.3-0.6c0.7-0.4,1.3-1,1.7-1.7c0.4-0.7,0.7-1.6,0.7-2.5v-6.7h1.5v12.5h-1.3l-0.2-3.9l0.2,0.9
				c-0.2,0.6-0.6,1.2-1.1,1.7c-0.5,0.5-1.2,0.9-1.9,1.2C520.6,309,519.8,309.1,519,309.1z"/>
			<path class="st5" d="M532.6,290.8h1.5v5.7h3.9v1.2h-3.9v11.1h-1.5v-11.1h-2.7v-1.2h2.7V290.8z"/>
			<path class="st5" d="M541.4,291.6c0-0.3,0.1-0.5,0.4-0.8c0.2-0.2,0.5-0.3,0.8-0.3c0.3,0,0.6,0.1,0.8,0.3s0.3,0.5,0.3,0.8
				c0,0.3-0.1,0.6-0.3,0.8s-0.5,0.3-0.8,0.3c-0.3,0-0.5-0.1-0.8-0.3C541.5,292.2,541.4,291.9,541.4,291.6z M541.7,296.3h1.5v12.5
				h-1.5V296.3z"/>
			<path class="st5" d="M548.9,284.4h1.5v24.3h-1.5V284.4z"/>
			<path class="st5" d="M555.8,291.6c0-0.3,0.1-0.5,0.4-0.8c0.2-0.2,0.5-0.3,0.8-0.3c0.3,0,0.6,0.1,0.8,0.3s0.3,0.5,0.3,0.8
				c0,0.3-0.1,0.6-0.3,0.8s-0.5,0.3-0.8,0.3c-0.3,0-0.5-0.1-0.8-0.3C555.9,292.2,555.8,291.9,555.8,291.6z M556.1,296.3h1.5v12.5
				h-1.5V296.3z"/>
			<path class="st5" d="M563.7,297.5c-0.6,0-1-0.1-1.4-0.4c-0.4-0.3-0.5-0.7-0.5-1.4v-0.6h1.2v0.4c0,0.3,0.1,0.5,0.3,0.6
				c0.2,0.1,0.5,0.2,0.8,0.2h8.1l-8.1,11.6l-0.3-0.3h8.3v1.3h-10.3l8.2-11.7l0.3,0.4H563.7z"/>
			<path class="st5" d="M581.4,309c-1.2,0-2.3-0.3-3.2-0.8s-1.7-1.3-2.3-2.3c-0.6-1-0.8-2.1-0.8-3.4c0-1.4,0.3-2.6,0.9-3.6
				c0.6-1,1.4-1.7,2.4-2.3c1-0.5,2.2-0.8,3.5-0.8c1.1,0,2.2,0.3,3.2,1c1,0.7,1.7,1.5,2.1,2.5l-0.2,0.4l0.2-3.6h1.3v12.5h-1.5v-3.9
				l0.3,0.6c-0.2,0.4-0.4,0.8-0.8,1.3s-0.8,0.8-1.3,1.2c-0.5,0.4-1.1,0.6-1.7,0.8C582.8,308.9,582.1,309,581.4,309z M581.8,307.7
				c0.9,0,1.8-0.2,2.5-0.6s1.4-0.9,1.8-1.6c0.5-0.7,0.7-1.5,0.8-2.4v-1.8c-0.2-0.8-0.5-1.5-1-2.1c-0.5-0.6-1.1-1.1-1.8-1.5
				c-0.7-0.4-1.5-0.5-2.4-0.5c-0.9,0-1.8,0.2-2.6,0.7s-1.4,1.1-1.9,1.8s-0.7,1.7-0.7,2.8c0,1,0.2,1.9,0.7,2.7s1.1,1.4,1.9,1.9
				C580,307.5,580.8,307.7,581.8,307.7z"/>
			<path class="st5" d="M603.8,307.6c-0.6,0.5-1.2,0.8-2,1.1c-0.7,0.3-1.5,0.4-2.3,0.4c-1.3,0-2.4-0.3-3.4-0.8s-1.8-1.3-2.4-2.3
				s-0.9-2.1-0.9-3.4c0-1.3,0.3-2.4,0.9-3.4s1.4-1.8,2.4-2.3s2.1-0.8,3.2-0.8c0.9,0,1.7,0.1,2.4,0.4c0.7,0.3,1.4,0.6,2,1.1l-0.8,1
				c-0.4-0.4-1-0.7-1.6-0.9c-0.6-0.2-1.2-0.4-1.9-0.4c-0.9,0-1.8,0.2-2.6,0.7c-0.8,0.5-1.4,1.1-1.9,1.9c-0.5,0.8-0.7,1.7-0.7,2.7
				c0,1,0.2,1.8,0.7,2.6c0.5,0.8,1.1,1.4,1.9,1.9c0.8,0.5,1.7,0.7,2.7,0.7c0.6,0,1.2-0.1,1.8-0.3c0.6-0.2,1.1-0.5,1.5-0.8
				L603.8,307.6z M595.7,314.1c0.2,0.2,0.5,0.4,0.9,0.6s0.9,0.2,1.4,0.2c0.7,0,1.4-0.2,1.9-0.5c0.5-0.3,0.8-0.7,0.8-1.3
				c0-0.5-0.2-0.9-0.6-1.3c-0.4-0.4-1-0.5-1.9-0.5c-0.3,0-0.7,0-1.2,0.1c-0.4,0.1-0.8,0.2-1.1,0.3l-0.5-0.8l2.2-2.5l1.2,0.2
				l-2.1,2.6l-0.5-0.4c0.2-0.2,0.6-0.3,1-0.4c0.4-0.1,0.9-0.1,1.3-0.1c1.1,0,1.9,0.2,2.6,0.7c0.6,0.5,0.9,1.1,0.9,2
				c0,0.6-0.2,1.1-0.5,1.5c-0.3,0.4-0.8,0.7-1.4,0.9c-0.6,0.2-1.2,0.3-1.9,0.3c-0.7,0-1.3-0.1-1.8-0.3c-0.5-0.2-0.9-0.4-1.3-0.7
				L595.7,314.1z"/>
			<path class="st5" d="M613.2,309c-1.2,0-2.3-0.3-3.2-0.8s-1.7-1.3-2.3-2.3c-0.6-1-0.8-2.1-0.8-3.4c0-1.4,0.3-2.6,0.9-3.6
				c0.6-1,1.4-1.7,2.4-2.3c1-0.5,2.2-0.8,3.5-0.8c1.1,0,2.2,0.3,3.2,1c1,0.7,1.7,1.5,2.1,2.5l-0.2,0.4l0.2-3.6h1.3v12.5h-1.5v-3.9
				l0.3,0.6c-0.2,0.4-0.4,0.8-0.8,1.3s-0.8,0.8-1.3,1.2c-0.5,0.4-1.1,0.6-1.7,0.8C614.6,308.9,613.9,309,613.2,309z M613.5,307.7
				c0.9,0,1.8-0.2,2.5-0.6s1.4-0.9,1.8-1.6c0.5-0.7,0.7-1.5,0.8-2.4v-1.8c-0.2-0.8-0.5-1.5-1-2.1c-0.5-0.6-1.1-1.1-1.8-1.5
				c-0.7-0.4-1.5-0.5-2.4-0.5c-0.9,0-1.8,0.2-2.6,0.7s-1.4,1.1-1.9,1.8s-0.7,1.7-0.7,2.8c0,1,0.2,1.9,0.7,2.7s1.1,1.4,1.9,1.9
				C611.7,307.5,612.6,307.7,613.5,307.7z M616.7,294.1c-0.6,0-1.2-0.2-1.6-0.5s-0.8-0.6-1.1-1c-0.3-0.3-0.6-0.5-0.8-0.8
				c-0.3-0.2-0.6-0.4-1-0.4c-0.3,0-0.5,0.1-0.8,0.3c-0.2,0.2-0.5,0.5-0.6,0.9c-0.2,0.4-0.3,0.9-0.3,1.6l-1,0c0-0.8,0.1-1.5,0.3-2.1
				c0.2-0.6,0.6-1,1-1.3c0.4-0.3,0.9-0.4,1.4-0.4c0.6,0,1.1,0.2,1.4,0.5c0.4,0.3,0.7,0.6,1.1,1c0.3,0.3,0.6,0.6,0.9,0.9
				s0.7,0.4,1.1,0.4c0.4,0,0.8-0.2,1.1-0.6s0.5-1.2,0.5-2.2l1,0c0,0.9-0.1,1.6-0.3,2.2c-0.2,0.6-0.5,1-0.9,1.3
				C617.6,294,617.1,294.1,616.7,294.1z"/>
			<path class="st5" d="M624.7,302.4c0-1.2,0.3-2.3,0.9-3.3c0.6-1,1.4-1.8,2.4-2.4c1-0.6,2.1-0.9,3.4-0.9c1.3,0,2.4,0.3,3.4,0.9
				c1,0.6,1.8,1.4,2.4,2.4s0.9,2.1,0.9,3.3s-0.3,2.3-0.9,3.3s-1.4,1.8-2.4,2.4c-1,0.6-2.2,0.9-3.4,0.9c-1.3,0-2.4-0.3-3.4-0.8
				c-1-0.6-1.8-1.3-2.4-2.3C625,304.8,624.7,303.7,624.7,302.4z M626.2,302.5c0,1,0.2,1.9,0.7,2.7c0.5,0.8,1.1,1.4,1.9,1.9
				c0.8,0.5,1.6,0.7,2.6,0.7c1,0,1.8-0.2,2.6-0.7c0.8-0.5,1.4-1.1,1.9-1.9c0.5-0.8,0.7-1.7,0.7-2.7c0-1-0.2-1.9-0.7-2.7
				c-0.5-0.8-1.1-1.4-1.9-1.9c-0.8-0.5-1.6-0.7-2.6-0.7c-1,0-1.9,0.3-2.6,0.8c-0.8,0.5-1.4,1.2-1.8,2
				C626.4,300.7,626.2,301.5,626.2,302.5z"/>
			<path class="st5" d="M210.3,347.4c-1.2,0-2.2-0.3-3.2-0.8s-1.7-1.3-2.3-2.4c-0.6-1-0.8-2.1-0.8-3.4c0-1.3,0.3-2.5,0.9-3.5
				c0.6-1,1.4-1.7,2.4-2.3c1-0.5,2.1-0.8,3.3-0.8c1.2,0,2.3,0.3,3.4,0.9c1.1,0.6,1.9,1.4,2.4,2.4l-0.3,0.7v-15.5h1.5v24.3h-1.5v-3.8
				l0.3,0.7c-0.5,1-1.3,1.8-2.4,2.4C212.8,347.1,211.6,347.4,210.3,347.4z M210.7,346.1c1,0,1.8-0.2,2.6-0.6c0.8-0.4,1.4-1,1.9-1.7
				c0.5-0.7,0.7-1.5,0.8-2.4v-1.6c-0.1-0.8-0.5-1.5-1-2.2c-0.5-0.6-1.1-1.1-1.9-1.5c-0.7-0.4-1.5-0.6-2.4-0.6c-1,0-1.8,0.2-2.6,0.7
				s-1.4,1.1-1.9,1.9c-0.5,0.8-0.7,1.7-0.7,2.8c0,1,0.2,1.9,0.7,2.7c0.5,0.8,1.1,1.4,1.9,1.9C208.9,345.9,209.7,346.1,210.7,346.1z"
				/>
			<path class="st5" d="M228.3,347.4c-1.2,0-2.3-0.3-3.2-0.8s-1.7-1.3-2.3-2.3c-0.6-1-0.8-2.1-0.8-3.4c0-1.4,0.3-2.6,0.9-3.6
				c0.6-1,1.4-1.7,2.4-2.3s2.2-0.8,3.5-0.8c1.1,0,2.2,0.3,3.2,1c1,0.7,1.7,1.5,2.1,2.5l-0.2,0.4l0.2-3.6h1.3v12.5h-1.5v-3.9l0.3,0.6
				c-0.2,0.4-0.4,0.8-0.8,1.3c-0.4,0.4-0.8,0.8-1.3,1.2c-0.5,0.4-1.1,0.6-1.7,0.8C229.7,347.3,229,347.4,228.3,347.4z M228.7,346.1
				c0.9,0,1.8-0.2,2.5-0.6c0.8-0.4,1.4-0.9,1.8-1.6c0.5-0.7,0.7-1.5,0.8-2.4v-1.8c-0.2-0.8-0.5-1.5-1-2.1c-0.5-0.6-1.1-1.1-1.8-1.5
				c-0.7-0.4-1.5-0.5-2.4-0.5c-0.9,0-1.8,0.2-2.6,0.7c-0.8,0.4-1.4,1.1-1.9,1.8c-0.5,0.8-0.7,1.7-0.7,2.8c0,1,0.2,1.9,0.7,2.7
				c0.5,0.8,1.1,1.4,1.9,1.9C226.8,345.9,227.7,346.1,228.7,346.1z"/>
			<path class="st5" d="M252.2,334.7l0.2,3.9l-0.2-0.8c0.4-1.1,1.1-1.9,2.1-2.6c1-0.6,2.1-0.9,3.4-0.9c1.2,0,2.1,0.3,2.8,1
				c0.7,0.7,1.1,1.6,1.1,2.7v9.1H260v-8.7c0-0.8-0.3-1.5-0.8-2c-0.5-0.5-1.2-0.8-2.1-0.8c-0.8,0-1.6,0.2-2.3,0.6
				c-0.7,0.4-1.3,1-1.7,1.7c-0.4,0.7-0.7,1.6-0.7,2.5v6.7h-1.5v-12.5H252.2z"/>
			<path class="st5" d="M266,340.8c0-1.2,0.3-2.3,0.9-3.3c0.6-1,1.4-1.8,2.4-2.4c1-0.6,2.1-0.9,3.4-0.9c1.3,0,2.4,0.3,3.4,0.9
				c1,0.6,1.8,1.4,2.4,2.4c0.6,1,0.9,2.1,0.9,3.3s-0.3,2.3-0.9,3.3s-1.4,1.8-2.4,2.4c-1,0.6-2.2,0.9-3.4,0.9c-1.3,0-2.4-0.3-3.4-0.8
				c-1-0.6-1.8-1.3-2.4-2.3S266,342.1,266,340.8z M267.5,340.9c0,1,0.2,1.9,0.7,2.7c0.5,0.8,1.1,1.4,1.9,1.9
				c0.8,0.5,1.6,0.7,2.6,0.7s1.8-0.2,2.6-0.7c0.8-0.5,1.4-1.1,1.9-1.9s0.7-1.7,0.7-2.7s-0.2-1.9-0.7-2.7s-1.1-1.4-1.9-1.9
				c-0.8-0.5-1.6-0.7-2.6-0.7c-1,0-1.9,0.3-2.6,0.8c-0.8,0.5-1.4,1.2-1.8,2C267.8,339.1,267.5,339.9,267.5,340.9z"/>
			<path class="st5" d="M286.8,347.4c-0.7,0-1.5-0.1-2.3-0.4s-1.4-0.7-1.9-1.3l0.7-1c0.4,0.4,0.9,0.8,1.5,1.1
				c0.6,0.3,1.2,0.4,1.9,0.4c0.5,0,1-0.1,1.4-0.2c0.4-0.1,0.8-0.4,1.1-0.7c0.3-0.3,0.4-0.8,0.4-1.4c0-0.6-0.2-1.1-0.5-1.4
				c-0.3-0.3-0.7-0.6-1.2-0.8c-0.5-0.2-1-0.4-1.6-0.6c-0.9-0.3-1.7-0.7-2.3-1.2c-0.6-0.5-0.9-1.2-0.9-2.2c0-0.7,0.2-1.3,0.5-1.8
				c0.3-0.5,0.8-0.9,1.4-1.2c0.6-0.3,1.2-0.4,2-0.4c0.7,0,1.3,0.1,2,0.3s1.2,0.6,1.8,1.1l-0.7,1.1c-0.3-0.5-0.8-0.8-1.4-1
				c-0.6-0.2-1.1-0.3-1.5-0.3c-0.4,0-0.7,0.1-1.1,0.2s-0.7,0.4-1,0.7s-0.4,0.7-0.4,1.1c0,0.5,0.1,0.9,0.4,1.2
				c0.3,0.3,0.6,0.6,1.1,0.8c0.4,0.2,0.9,0.4,1.4,0.5c0.6,0.2,1.2,0.4,1.7,0.7s1,0.6,1.3,1.1c0.4,0.4,0.5,1,0.5,1.7
				c0,0.7-0.2,1.4-0.5,2c-0.3,0.6-0.8,1-1.4,1.4C288.6,347.3,287.8,347.4,286.8,347.4z"/>
			<path class="st5" d="M298.6,347.4c-0.7,0-1.5-0.1-2.3-0.4s-1.4-0.7-1.9-1.3l0.7-1c0.4,0.4,0.9,0.8,1.5,1.1
				c0.6,0.3,1.2,0.4,1.9,0.4c0.5,0,1-0.1,1.4-0.2c0.4-0.1,0.8-0.4,1.1-0.7c0.3-0.3,0.4-0.8,0.4-1.4c0-0.6-0.2-1.1-0.5-1.4
				c-0.3-0.3-0.7-0.6-1.2-0.8c-0.5-0.2-1-0.4-1.6-0.6c-0.9-0.3-1.7-0.7-2.3-1.2c-0.6-0.5-0.9-1.2-0.9-2.2c0-0.7,0.2-1.3,0.5-1.8
				c0.3-0.5,0.8-0.9,1.4-1.2c0.6-0.3,1.2-0.4,2-0.4c0.7,0,1.3,0.1,2,0.3s1.2,0.6,1.8,1.1l-0.7,1.1c-0.3-0.5-0.8-0.8-1.4-1
				c-0.6-0.2-1.1-0.3-1.5-0.3c-0.4,0-0.7,0.1-1.1,0.2s-0.7,0.4-1,0.7s-0.4,0.7-0.4,1.1c0,0.5,0.1,0.9,0.4,1.2
				c0.3,0.3,0.6,0.6,1.1,0.8c0.4,0.2,0.9,0.4,1.4,0.5c0.6,0.2,1.2,0.4,1.7,0.7s1,0.6,1.3,1.1c0.4,0.4,0.5,1,0.5,1.7
				c0,0.7-0.2,1.4-0.5,2c-0.3,0.6-0.8,1-1.4,1.4C300.3,347.3,299.5,347.4,298.6,347.4z"/>
			<path class="st5" d="M312.6,347.4c-1.2,0-2.3-0.3-3.2-0.8s-1.7-1.3-2.3-2.3c-0.6-1-0.8-2.1-0.8-3.4c0-1.4,0.3-2.6,0.9-3.6
				c0.6-1,1.4-1.7,2.4-2.3s2.2-0.8,3.5-0.8c1.1,0,2.2,0.3,3.2,1c1,0.7,1.7,1.5,2.1,2.5l-0.2,0.4l0.2-3.6h1.3v12.5h-1.5v-3.9l0.3,0.6
				c-0.2,0.4-0.4,0.8-0.8,1.3c-0.4,0.4-0.8,0.8-1.3,1.2c-0.5,0.4-1.1,0.6-1.7,0.8C314,347.3,313.3,347.4,312.6,347.4z M312.9,346.1
				c0.9,0,1.8-0.2,2.5-0.6c0.8-0.4,1.4-0.9,1.8-1.6c0.5-0.7,0.7-1.5,0.8-2.4v-1.8c-0.2-0.8-0.5-1.5-1-2.1c-0.5-0.6-1.1-1.1-1.8-1.5
				c-0.7-0.4-1.5-0.5-2.4-0.5c-0.9,0-1.8,0.2-2.6,0.7c-0.8,0.4-1.4,1.1-1.9,1.8c-0.5,0.8-0.7,1.7-0.7,2.8c0,1,0.2,1.9,0.7,2.7
				c0.5,0.8,1.1,1.4,1.9,1.9C311.1,345.9,312,346.1,312.9,346.1z"/>
			<path class="st5" d="M342,347.4c-1.2,0-2.3-0.3-3.4-0.9c-1-0.6-1.8-1.4-2.3-2.4l0.3-0.5v9.7h-1.5v-18.6h1.3l0.2,4.1l-0.3-0.9
				c0.6-1,1.4-1.8,2.4-2.5c1.1-0.7,2.2-1,3.5-1c1.2,0,2.3,0.3,3.2,0.9c1,0.6,1.7,1.4,2.3,2.4s0.8,2.1,0.8,3.4c0,1.3-0.3,2.4-0.9,3.4
				s-1.4,1.8-2.4,2.3C344.4,347.1,343.3,347.4,342,347.4z M341.8,346.2c1,0,1.9-0.2,2.7-0.7c0.8-0.5,1.4-1.1,1.9-1.9
				c0.5-0.8,0.7-1.7,0.7-2.7c0-1-0.2-1.9-0.7-2.7c-0.5-0.8-1.1-1.4-1.9-1.9c-0.8-0.5-1.7-0.7-2.6-0.7c-0.9,0-1.8,0.2-2.6,0.6
				s-1.4,1-1.9,1.7c-0.5,0.7-0.7,1.5-0.8,2.5v1c0.1,0.9,0.3,1.7,0.8,2.4c0.5,0.7,1.1,1.3,1.9,1.7C340,346,340.9,346.2,341.8,346.2z"
				/>
			<path class="st5" d="M353.1,322.8h1.5v24.3h-1.5V322.8z"/>
			<path class="st5" d="M365.5,347.4c-1.2,0-2.3-0.3-3.2-0.8s-1.7-1.3-2.3-2.3c-0.6-1-0.8-2.1-0.8-3.4c0-1.4,0.3-2.6,0.9-3.6
				c0.6-1,1.4-1.7,2.4-2.3c1-0.5,2.2-0.8,3.5-0.8c1.1,0,2.2,0.3,3.2,1c1,0.7,1.7,1.5,2.1,2.5l-0.2,0.4l0.2-3.6h1.3v12.5H371v-3.9
				l0.3,0.6c-0.2,0.4-0.4,0.8-0.8,1.3s-0.8,0.8-1.3,1.2c-0.5,0.4-1.1,0.6-1.7,0.8C366.9,347.3,366.2,347.4,365.5,347.4z
				 M365.8,346.1c0.9,0,1.8-0.2,2.5-0.6c0.8-0.4,1.4-0.9,1.8-1.6s0.7-1.5,0.8-2.4v-1.8c-0.2-0.8-0.5-1.5-1-2.1
				c-0.5-0.6-1.1-1.1-1.8-1.5c-0.7-0.4-1.5-0.5-2.4-0.5c-0.9,0-1.8,0.2-2.6,0.7c-0.8,0.4-1.4,1.1-1.9,1.8c-0.5,0.8-0.7,1.7-0.7,2.8
				c0,1,0.2,1.9,0.7,2.7c0.5,0.8,1.1,1.4,1.9,1.9C364,345.9,364.9,346.1,365.8,346.1z"/>
			<path class="st5" d="M379.4,329.2h1.5v5.7h3.9v1.2H381v11.1h-1.5V336h-2.7v-1.2h2.7V329.2z"/>
			<path class="st5" d="M393.8,347.4c-1.2,0-2.3-0.3-3.2-0.8s-1.7-1.3-2.3-2.3c-0.6-1-0.8-2.1-0.8-3.4c0-1.4,0.3-2.6,0.9-3.6
				c0.6-1,1.4-1.7,2.4-2.3c1-0.5,2.2-0.8,3.5-0.8c1.1,0,2.2,0.3,3.2,1c1,0.7,1.7,1.5,2.1,2.5l-0.2,0.4l0.2-3.6h1.3v12.5h-1.5v-3.9
				l0.3,0.6c-0.2,0.4-0.4,0.8-0.8,1.3s-0.8,0.8-1.3,1.2c-0.5,0.4-1.1,0.6-1.7,0.8C395.1,347.3,394.5,347.4,393.8,347.4z
				 M394.1,346.1c0.9,0,1.8-0.2,2.5-0.6c0.8-0.4,1.4-0.9,1.8-1.6s0.7-1.5,0.8-2.4v-1.8c-0.2-0.8-0.5-1.5-1-2.1
				c-0.5-0.6-1.1-1.1-1.8-1.5c-0.7-0.4-1.5-0.5-2.4-0.5c-0.9,0-1.8,0.2-2.6,0.7c-0.8,0.4-1.4,1.1-1.9,1.8c-0.5,0.8-0.7,1.7-0.7,2.8
				c0,1,0.2,1.9,0.7,2.7c0.5,0.8,1.1,1.4,1.9,1.9C392.3,345.9,393.2,346.1,394.1,346.1z"/>
			<path class="st5" d="M407.3,347.2v-11.1h-2.2v-1.4h2.2v-6.3c0-2,0.3-3.5,1-4.3c0.7-0.9,1.7-1.3,3.1-1.3c0.3,0,0.6,0,1,0.1
				c0.3,0.1,0.7,0.2,0.9,0.4l-0.6,1.1c-0.1-0.1-0.3-0.2-0.5-0.2c-0.2-0.1-0.4-0.1-0.6-0.1c-0.9,0-1.6,0.3-2.1,1
				c-0.5,0.6-0.7,1.8-0.7,3.4v6.3h4.2v1.4h-4.2v11.1H407.3z"/>
			<path class="st5" d="M415.6,340.8c0-1.2,0.3-2.3,0.9-3.3c0.6-1,1.4-1.8,2.4-2.4c1-0.6,2.1-0.9,3.4-0.9c1.3,0,2.4,0.3,3.4,0.9
				c1,0.6,1.8,1.4,2.4,2.4c0.6,1,0.9,2.1,0.9,3.3s-0.3,2.3-0.9,3.3s-1.4,1.8-2.4,2.4c-1,0.6-2.2,0.9-3.4,0.9c-1.3,0-2.4-0.3-3.4-0.8
				c-1-0.6-1.8-1.3-2.4-2.3C415.9,343.2,415.6,342.1,415.6,340.8z M417.1,340.9c0,1,0.2,1.9,0.7,2.7s1.1,1.4,1.9,1.9
				c0.8,0.5,1.6,0.7,2.6,0.7c1,0,1.8-0.2,2.6-0.7c0.8-0.5,1.4-1.1,1.9-1.9s0.7-1.7,0.7-2.7s-0.2-1.9-0.7-2.7s-1.1-1.4-1.9-1.9
				c-0.8-0.5-1.6-0.7-2.6-0.7c-1,0-1.9,0.3-2.6,0.8c-0.8,0.5-1.4,1.2-1.8,2S417.1,339.9,417.1,340.9z"/>
			<path class="st5" d="M434.8,334.7l0.2,3.8l-0.2-0.5c0.3-0.8,0.7-1.4,1.3-2c0.6-0.6,1.3-1,2-1.3c0.7-0.3,1.4-0.4,2.1-0.4l-0.1,1.5
				c-1,0-1.8,0.2-2.6,0.6s-1.4,1-1.9,1.7c-0.5,0.7-0.7,1.5-0.7,2.4v6.6h-1.5v-12.5H434.8z"/>
			<path class="st5" d="M445.7,334.7l0.2,3.5l-0.2-0.3c0.4-1.1,1.1-1.9,2.1-2.6c1-0.6,2.1-0.9,3.2-0.9c0.7,0,1.3,0.1,1.9,0.4
				c0.6,0.3,1,0.6,1.4,1.1c0.4,0.5,0.6,1,0.6,1.6l-0.2,0.2c0.4-1.1,1.2-1.9,2.1-2.4c1-0.6,2-0.8,3.1-0.8c1.2,0,2.1,0.3,2.8,1
				c0.7,0.7,1.1,1.6,1.1,2.7v9.1h-1.5v-8.8c0-0.7-0.3-1.4-0.7-1.9c-0.4-0.5-1.1-0.8-2-0.8c-0.8,0-1.6,0.2-2.3,0.6
				c-0.7,0.4-1.3,1-1.7,1.7s-0.7,1.5-0.7,2.4v6.8h-1.5v-8.8c0-0.7-0.3-1.4-0.7-1.9c-0.5-0.5-1.1-0.8-2.1-0.8c-0.9,0-1.6,0.2-2.4,0.6
				c-0.7,0.4-1.3,1-1.7,1.7c-0.4,0.7-0.6,1.6-0.6,2.4v6.7h-1.5v-12.5H445.7z"/>
			<path class="st5" d="M474.8,347.4c-1.2,0-2.3-0.3-3.2-0.8s-1.7-1.3-2.3-2.3c-0.6-1-0.8-2.1-0.8-3.4c0-1.4,0.3-2.6,0.9-3.6
				c0.6-1,1.4-1.7,2.4-2.3c1-0.5,2.2-0.8,3.5-0.8c1.1,0,2.2,0.3,3.2,1c1,0.7,1.7,1.5,2.1,2.5l-0.2,0.4l0.2-3.6h1.3v12.5h-1.5v-3.9
				l0.3,0.6c-0.2,0.4-0.4,0.8-0.8,1.3s-0.8,0.8-1.3,1.2c-0.5,0.4-1.1,0.6-1.7,0.8C476.1,347.3,475.5,347.4,474.8,347.4z
				 M475.1,346.1c0.9,0,1.8-0.2,2.5-0.6c0.8-0.4,1.4-0.9,1.8-1.6s0.7-1.5,0.8-2.4v-1.8c-0.2-0.8-0.5-1.5-1-2.1
				c-0.5-0.6-1.1-1.1-1.8-1.5c-0.7-0.4-1.5-0.5-2.4-0.5c-0.9,0-1.8,0.2-2.6,0.7c-0.8,0.4-1.4,1.1-1.9,1.8c-0.5,0.8-0.7,1.7-0.7,2.8
				c0,1,0.2,1.9,0.7,2.7c0.5,0.8,1.1,1.4,1.9,1.9C473.3,345.9,474.1,346.1,475.1,346.1z"/>
		</g>
	</g>
</g>
</svg>
