<?xml version="1.0" encoding="utf-8"?>
<!-- Generator: Adobe Illustrator 25.4.1, SVG Export Plug-In . SVG Version: 6.00 Build 0)  -->
<svg version="1.1" id="Camada_1" xmlns="http://www.w3.org/2000/svg" xmlns:xlink="http://www.w3.org/1999/xlink" x="0px" y="0px"
	 viewBox="0 0 1103.1 205.1" style="enable-background:new 0 0 1103.1 205.1;" xml:space="preserve">
<style type="text/css">
	.st0{fill:#1E1E1C;}
	.st1{fill:#FFFFFF;}
	.st2{fill:#020203;}
	.st3{fill:#F32735;}
	.st4{fill:#1B9CD9;}
	.st5{fill:#3DAE2B;}
	.st6{fill:none;stroke:#1E1E1C;stroke-width:3;stroke-miterlimit:10;}
	.st7{fill:none;stroke:#1E1E1C;stroke-width:5;stroke-miterlimit:10;}
</style>
<g>
	<path class="st0" d="M265.6,107.9c0-9.9-1.4-31.8-14.9-54.8c-14.8-25.2-34.2-48-42.9-52.5C96.6,3.6,18.5,45,4.6,85.3
		c-3.7,10.9-6.8,19.8,1.1,52.5c1.3,4.4,14.5,45.7,57.5,60.9c37.5,13.3,69.6-3.4,74.7-6.1c10.1-8.7,14.4-22.3,11.1-34.9
		c-3.6-13.7-15.8-23.9-30.3-25.3c-6.6-0.6-12.4,3.4-13.8,8.8c-1.7,6.5,3.3,14.3,11.5,15.3c8.4,3,12.3,10.8,10.3,16.1
		c-1.7,4.8-7.7,6.3-8.4,6.5c-17.8,0.6-33.3-12.2-36-29.5c-2.6-16.7,7.4-33.3,23.8-38.7C159.3,110,212.4,109,265.6,107.9z"/>
	<path class="st0" d="M123.3,110.2"/>
	<circle class="st1" cx="204.5" cy="63.8" r="26.3"/>
	<circle class="st2" cx="218.8" cy="72.1" r="4.9"/>
	<ellipse class="st3" cx="127.4" cy="23.2" rx="10.6" ry="7.2"/>
	<ellipse transform="matrix(0.449 -0.8935 0.8935 0.449 -34.6054 70.2099)" class="st4" cx="39.6" cy="63.2" rx="10.4" ry="6.6"/>
	<ellipse transform="matrix(0.6872 -0.7265 0.7265 0.6872 1.9105 104.0572)" class="st5" cx="121.8" cy="49.8" rx="11.5" ry="9.3"/>
	<ellipse transform="matrix(0.9667 -0.2559 0.2559 0.9667 -5.8675 26.2235)" class="st4" cx="97.8" cy="35.7" rx="11.3" ry="8.4"/>
	<ellipse transform="matrix(0.6118 -0.7911 0.7911 0.6118 -13.6695 74.0701)" class="st3" cx="68.6" cy="51" rx="6.4" ry="4.5"/>
	<ellipse class="st5" cx="76.6" cy="71.6" rx="7.6" ry="8.4"/>
	<ellipse class="st4" cx="53.7" cy="72.2" rx="2.1" ry="3.2"/>
	<ellipse class="st5" cx="181.6" cy="16.1" rx="14.4" ry="6.3"/>
	<ellipse class="st4" cx="197.8" cy="29.8" rx="1.3" ry="1.1"/>
	<ellipse class="st5" cx="158.3" cy="24.2" rx="1.4" ry="1.5"/>
	<ellipse class="st4" cx="149.9" cy="13.6" rx="1.9" ry="1.7"/>
	<ellipse class="st3" cx="90.1" cy="57" rx="1.9" ry="1.9"/>
	<ellipse class="st5" cx="75.4" cy="39.6" rx="0.9" ry="1.1"/>
	<ellipse class="st5" cx="53.6" cy="50.1" rx="1.4" ry="1.3"/>
	<path class="st0" d="M195.4,197.6c-6.4,0-12.2-1.3-17.5-3.9c-5.2-2.6-9.4-6.6-12.4-11.9c-3.1-5.4-4.6-12.2-4.6-20.5
		c0-7.8,1.6-14.5,4.7-20.2c3.2-5.7,7.3-10.1,12.5-13.2c5.2-3.1,10.6-4.7,16.4-4.7c6.8,0,12,1.1,15.6,3.4c3.5,2.3,6.5,4.8,8.8,7.5
		l-0.9,2.7l2.1-10.1h20.5v69.1h-22.1v-15l1.7,4.7c-0.2,0-0.8,0.6-1.9,1.8c-1.1,1.2-2.6,2.6-4.7,4.3c-2.1,1.6-4.6,3.1-7.6,4.3
		C203,197,199.5,197.6,195.4,197.6z M201.7,179.6c2.6,0,5-0.4,7.1-1.2c2.1-0.8,4-1.9,5.5-3.5c1.6-1.5,2.9-3.4,4.1-5.8v-16.9
		c-0.8-2.3-2.1-4.3-3.8-5.9c-1.7-1.6-3.7-2.9-6-3.8c-2.3-0.9-4.9-1.3-7.7-1.3c-3.2,0-6.1,0.8-8.8,2.5c-2.7,1.6-4.8,3.9-6.4,6.7
		c-1.6,2.8-2.4,6.1-2.4,9.8c0,3.7,0.8,7,2.5,10c1.7,3,3.9,5.3,6.7,7C195.4,178.7,198.4,179.6,201.7,179.6z"/>
	<path class="st0" d="M283.4,126.6l1.7,12.2l-0.3-0.9c2.7-4.6,6.2-8.2,10.3-10.8c4.1-2.6,9.1-3.9,14.9-3.9c3.8,0,7.1,0.5,10,1.6
		c2.9,1.1,5.3,2.6,7.4,4.7c2,2.1,3.4,4.7,4.1,8l-0.8,0.2c2.9-4.3,6.5-7.8,10.7-10.4c4.2-2.6,8.5-4,13-4c6.8,0,12.3,1.9,16.4,5.8
		c4.1,3.8,6.1,8.8,6.2,14.9v51.8h-22V153c-0.1-3.1-0.6-5.6-1.4-7.5c-0.8-1.9-2.8-3-5.8-3.2c-3.6,0-6.6,1.2-9.1,3.7
		c-2.5,2.5-4.3,5.6-5.5,9.5c-1.2,3.8-1.8,7.8-1.8,11.9v28.3h-22.1V153c-0.1-3.1-0.7-5.6-1.7-7.5c-1-1.9-3-3-6.1-3.2
		c-3.5,0-6.4,1.2-8.8,3.7c-2.4,2.5-4.2,5.6-5.4,9.4c-1.2,3.8-1.8,7.7-1.8,11.7v28.6h-22.1v-69.1H283.4z"/>
	<path class="st0" d="M433.7,197.6c-8.4,0-15.6-1.6-21.4-4.7c-5.8-3.2-10.3-7.5-13.4-13.1c-3.1-5.6-4.6-12-4.6-19.3
		c0-7,1.8-13.2,5.4-18.8c3.6-5.6,8.4-10,14.4-13.4c6-3.3,12.7-5,20.1-5c9.9,0,18,2.9,24.4,8.6c6.4,5.7,10.5,14,12.4,24.9l-53.7,17.1
		l-4.9-12l38.9-13.1l-4.6,2.1c-0.8-2.7-2.3-5.1-4.5-7.2c-2.2-2.1-5.4-3.1-9.7-3.1c-3.3,0-6.1,0.8-8.6,2.3c-2.5,1.5-4.4,3.7-5.7,6.5
		c-1.3,2.8-2,6.1-2,9.9c0,4.3,0.8,7.9,2.4,10.8c1.6,2.9,3.7,5.1,6.5,6.6c2.7,1.5,5.8,2.2,9.2,2.2c2.4,0,4.8-0.4,7-1.3
		c2.3-0.8,4.5-1.9,6.7-3.3l9.8,16.4c-3.7,2.1-7.7,3.8-11.9,5.1C441.5,197,437.5,197.6,433.7,197.6z"/>
	<path class="st0" d="M487.1,71h22.1v124.7h-22.1V71z"/>
	<path class="st0" d="M566,197.6c-8.4,0-15.6-1.6-21.4-4.7c-5.8-3.2-10.3-7.5-13.4-13.1c-3.1-5.6-4.6-12-4.6-19.3
		c0-7,1.8-13.2,5.4-18.8c3.6-5.6,8.4-10,14.4-13.4c6-3.3,12.7-5,20.1-5c9.9,0,18,2.9,24.4,8.6c6.4,5.7,10.5,14,12.4,24.9l-53.7,17.1
		l-4.9-12l38.9-13.1l-4.6,2.1c-0.8-2.7-2.3-5.1-4.5-7.2c-2.2-2.1-5.4-3.1-9.7-3.1c-3.3,0-6.1,0.8-8.6,2.3c-2.5,1.5-4.4,3.7-5.7,6.5
		c-1.3,2.8-2,6.1-2,9.9c0,4.3,0.8,7.9,2.4,10.8c1.6,2.9,3.7,5.1,6.5,6.6c2.7,1.5,5.8,2.2,9.2,2.2c2.4,0,4.8-0.4,7-1.3
		c2.3-0.8,4.5-1.9,6.7-3.3l9.8,16.4c-3.7,2.1-7.7,3.8-11.9,5.1C573.8,197,569.8,197.6,566,197.6z"/>
	<path class="st0" d="M614.1,160.3c0-7.1,1.7-13.4,5-19c3.3-5.6,8-10,14-13.2c6-3.2,12.9-4.8,20.7-4.8c7.9,0,14.8,1.6,20.5,4.8
		c5.8,3.2,10.2,7.6,13.4,13.2c3.1,5.6,4.7,11.9,4.7,19c0,7.1-1.6,13.4-4.7,19c-3.1,5.6-7.6,10.1-13.4,13.4
		c-5.8,3.3-12.8,4.9-20.9,4.9c-7.6,0-14.4-1.5-20.3-4.4c-6-2.9-10.6-7.2-14-12.8C615.7,174.8,614.1,168.1,614.1,160.3z M636.3,160.4
		c0,3.6,0.7,6.8,2.2,9.7c1.5,2.9,3.5,5.2,6,6.9c2.5,1.7,5.4,2.5,8.5,2.5c3.5,0,6.5-0.8,9-2.5c2.5-1.7,4.5-4,5.8-6.9
		c1.4-2.9,2.1-6.1,2.1-9.7c0-3.7-0.7-7-2.1-9.8c-1.4-2.8-3.3-5.1-5.8-6.8c-2.5-1.7-5.5-2.5-9-2.5c-3.2,0-6,0.8-8.5,2.5
		c-2.5,1.7-4.5,4-6,6.8C637.1,153.5,636.3,156.8,636.3,160.4z"/>
	<path class="st0" d="M729.8,126.6l1.7,12.3l-0.3-1.1c2.4-4.3,5.8-7.8,10.3-10.5c4.4-2.7,9.9-4,16.3-4c6.5,0,12,1.9,16.4,5.8
		c4.4,3.8,6.6,8.8,6.7,14.9v51.7h-22.1v-43.5c-0.1-3.1-0.9-5.5-2.5-7.4c-1.5-1.8-4.1-2.8-7.7-2.8c-3.4,0-6.3,1.1-8.9,3.3
		c-2.5,2.2-4.5,5.2-5.8,9c-1.4,3.8-2.1,8.2-2.1,13.1v28.1h-22.1v-69.1H729.8z"/>
	<ellipse class="st4" cx="152.9" cy="45.3" rx="5" ry="5.2"/>
	<ellipse class="st3" cx="211.3" cy="17.5" rx="5.9" ry="4.2"/>
	<ellipse class="st5" cx="23.2" cy="82.7" rx="3.6" ry="5"/>
	<circle class="st3" cx="43.3" cy="91.1" r="5.7"/>
	<ellipse class="st4" cx="18.1" cy="102.6" rx="3.1" ry="4.2"/>
	<ellipse class="st3" cx="25.9" cy="117.9" rx="2.1" ry="2.7"/>
	<path class="st6" d="M472.8,109.5"/>
	<line class="st7" x1="258.1" y1="105.5" x2="471.5" y2="105.5"/>
	<ellipse class="st0" cx="471.1" cy="105.5" rx="3.8" ry="6"/>
</g>
<g>
	<path class="st0" d="M803.8,180.1c2.5-2.3,5.1-3.4,8.1-3.4c2.7,0,5.3,1.1,7.8,3.4c2.4,2.3,3.7,5.1,3.7,8.5c0,3.6-1.2,6.5-3.7,8.6
		c-2.5,2.1-5,3.2-7.8,3.2c-2.9,0-5.6-1.1-8.1-3.2c-2.4-2.1-3.7-5-3.7-8.6C800.1,185.3,801.3,182.4,803.8,180.1z"/>
	<path class="st0" d="M872.6,202.4c-8.7,0-16.1-1.6-22.1-4.9c-6-3.3-10.6-7.8-13.8-13.6c-3.2-5.8-4.7-12.4-4.7-19.9
		c0-7.2,1.9-13.7,5.6-19.4c3.7-5.8,8.7-10.4,14.9-13.8c6.2-3.4,13.1-5.1,20.7-5.1c10.2,0,18.6,3,25.2,8.9
		c6.6,5.9,10.9,14.5,12.8,25.7l-55.5,17.6l-5.1-12.4l40.2-13.6L886,154c-0.9-2.8-2.4-5.3-4.7-7.4c-2.2-2.1-5.6-3.2-10-3.2
		c-3.4,0-6.3,0.8-8.9,2.4c-2.6,1.6-4.5,3.8-5.9,6.7c-1.4,2.9-2,6.3-2,10.2c0,4.5,0.8,8.2,2.5,11.2c1.6,3,3.9,5.3,6.7,6.8
		c2.8,1.5,6,2.3,9.5,2.3c2.5,0,4.9-0.4,7.3-1.3c2.3-0.9,4.7-2,6.9-3.4l10.1,17c-3.8,2.2-7.9,3.9-12.3,5.2
		C880.7,201.7,876.6,202.4,872.6,202.4z"/>
	<path class="st0" d="M956.9,202.4c-6.6,0-12.6-1.6-17.8-4.7c-5.2-3.1-9.3-7.6-12.3-13.5c-3-5.9-4.5-12.8-4.5-20.9
		c0-8.1,1.6-14.9,4.9-20.6c3.3-5.7,7.7-10,13.4-12.9c5.7-2.9,12.1-4.4,19.3-4.4c4.6,0,9,0.7,13.1,2.1c4.2,1.4,7.7,3.6,10.5,6.5v7.2
		V71.5h22.7v128.9h-22.9v-13.9l1.8,4.9c-3.7,3-7.8,5.6-12.4,7.8C968.2,201.3,962.9,202.4,956.9,202.4z M964.4,183.1
		c3,0,5.7-0.4,8.1-1.2c2.3-0.8,4.4-2,6.2-3.6c1.8-1.6,3.3-3.6,4.7-6v-17.5c-0.9-2.4-2.2-4.4-4-6.1c-1.8-1.7-4-3-6.5-3.9
		c-2.6-0.9-5.4-1.4-8.4-1.4c-3.4,0-6.5,0.8-9.4,2.5c-2.9,1.7-5.2,4-6.9,6.9c-1.7,2.9-2.6,6.3-2.6,10.1c0,3.8,0.9,7.2,2.6,10.3
		c1.7,3,4.1,5.4,6.9,7.2C957.9,182.2,961,183.1,964.4,183.1z"/>
	<path class="st0" d="M1052.8,203.8c-6.4,0-11.8-2-16.2-6c-4.4-4-6.6-9.1-6.9-15.4V129h22.9v44.9c0.2,3.2,1,5.7,2.4,7.6
		c1.4,1.9,3.8,2.9,7.2,2.9c3.4,0,6.3-1.1,8.7-3.4c2.4-2.3,4.4-5.4,5.7-9.4c1.4-4,2-8.5,2-13.5V129h22.9v71.4h-20.7l-1.8-13.1
		l0.3,1.5c-1.6,2.9-3.7,5.6-6.2,7.8c-2.5,2.3-5.5,4.1-8.9,5.3C1060.9,203.2,1057,203.8,1052.8,203.8z"/>
</g>
</svg>
