<?xml version="1.0" encoding="utf-8"?>
<!-- Generator: Adobe Illustrator 25.4.1, SVG Export Plug-In . SVG Version: 6.00 Build 0)  -->
<svg version="1.1" id="Camada_1" xmlns="http://www.w3.org/2000/svg" xmlns:xlink="http://www.w3.org/1999/xlink" x="0px" y="0px"
	 viewBox="0 0 1149 223" style="enable-background:new 0 0 1149 223;" xml:space="preserve">
<style type="text/css">
	.st0{fill:#009FE3;}
	.st1{fill:#F32735;}
	.st2{fill:none;stroke:#1D1D1B;stroke-width:5;stroke-miterlimit:10;}
	.st3{fill:#1D1D1B;}
	.st4{fill:#FFFFFF;}
</style>
<g>
	<g>
		<rect x="317.8" y="179.8" class="st0" width="171.3" height="28.5"/>
	</g>
</g>
<g>
	<g>
		
			<rect x="948.8" y="179.8" transform="matrix(-1 -4.489665e-11 4.489665e-11 -1 2068.9023 388.0722)" class="st1" width="171.3" height="28.5"/>
	</g>
</g>
<g>
	<g>
		<path class="st2" d="M499.9,208.3c-3.9-36.7,19.2-67.3,45-72c29-5.3,65.5,21.4,68.6,63.1"/>
		<g>
			<polygon class="st3" points="604.5,189.9 613.4,198 621.5,189.1 621.8,196.3 613.7,205.1 604.8,197.1 			"/>
		</g>
	</g>
</g>
<g>
	<g>
		<path class="st2" d="M804.5,208.3c3.9-36.7-19.2-67.3-45-72c-29-5.3-65.5,21.4-68.6,63.1"/>
		<g>
			<polygon class="st3" points="682.9,189.1 691,198 699.8,189.9 699.5,197.1 690.7,205.1 682.6,196.3 			"/>
		</g>
	</g>
</g>
<g>
	<g>
		<path class="st2" d="M939.5,208.3c3.9-36.7-19.2-67.3-45-72c-29-5.3-65.5,21.4-68.6,63.1"/>
		<g>
			<polygon class="st3" points="817.9,189.1 826,198 834.8,189.9 834.5,197.1 825.7,205.1 817.6,196.3 			"/>
		</g>
	</g>
</g>
<g>
	<g>
		<path class="st2" d="M302.8,208.3c3.9-36.7-19.2-67.3-45-72c-29-5.3-65.5,21.4-68.6,63.1"/>
		<g>
			<polygon class="st3" points="181.1,189.1 189.2,198 198.1,189.9 197.8,197.1 188.9,205.1 180.8,196.3 			"/>
		</g>
	</g>
</g>
<g>
	<g>
		<path class="st2" d="M147.5,208.3c3.9-36.7-19.2-67.3-45-72c-29-5.3-65.5,21.4-68.6,63.1"/>
		<g>
			<polygon class="st3" points="25.9,189.1 34,198 42.8,189.9 42.5,197.1 33.7,205.1 25.6,196.3 			"/>
		</g>
	</g>
</g>
<g>
	<path class="st3" d="M1033.6,104.5"/>
	<path class="st1" d="M1030.7,18.4c46.6-2.1,86,34,88.1,80.5c1.7,38.1-22,71.4-56.2,83.4v4.1c0,5.5-4.5,10-10,10h-36.3
		c-5.5,0-10-4.5-10-10v-4.1c-31.5-11.1-54.6-40.4-56.2-75.8C948,60,984.1,20.5,1030.7,18.4z"/>
	<g>
		
			<ellipse transform="matrix(0.1331 -0.9911 0.9911 0.1331 795.4005 1113.8564)" class="st4" cx="1034.5" cy="102.2" rx="73.6" ry="73.6"/>
		<g>
			<path class="st1" d="M1050.5,58.3l14.5,7.2l8.7,14.1l4.6,19.7c0,0-3.5,7.8-4.3,7.8s-14.5-13-15-13s-13.9-11.5-13.9-11.5
				l-14.9-11.5l-10.2-5.8l-8.7,1.5l0.4-5.8l4.1-4.8l9.5-2.4l8.5-3.5l13.7,4.5L1050.5,58.3z"/>
			<g>
				<g>
					<path class="st3" d="M1033.8,49c-3.8,0.9-31.2,4.1-43.9,30.2c-7.6,15.7-6.1,30.4-5.2,36.5l60.3-0.6c4.5,12.2,1.8,24.1-5.6,29
						c-3.3,2.2-9.3,4.2-15.1,1.8c-0.5-0.2-6.1-2.6-8.1-8.5c-1.5-4.3-0.6-8.8,0.2-8.9c0.5-0.1,0.6,1.9,2.2,2.8c2.1,1.1,5,0.1,6-1.8
						c0.6-1.1,0.3-2.3,0.2-3c-0.6-2.7-2.9-4.2-3.2-4.4c-3.2-1.9-7.6-0.8-10.1,1.6c-1.1,1-2.1,2.6-2.6,5.6
						c-1.1,6.4,1.1,13.8,4.6,18.3c7.9,10,26.2,9,38.1,5.4c22.4-6.8,33.3-30.8,33.3-49.4C1085.1,77.5,1064.5,56,1033.8,49z
						 M1027.2,60.2c2.1,0,3.7,1.7,3.7,3.9c0,2.2-1.7,3.9-3.7,3.9c-2.1,0-3.7-1.7-3.7-4C1023.4,61.8,1025.1,60.1,1027.2,60.2z
						 M1020.7,56.9c0.6,0,1.1,0.6,1,1.2c0,0.6-0.5,1.1-1.1,1.1c-0.6,0-1-0.5-1-1.1C1019.6,57.5,1020.1,56.9,1020.7,56.9z
						 M1013.6,62.6c0.5,0,1,0.4,0.9,0.9c0,0.5-0.4,0.8-1,0.8c-0.5,0-1-0.4-1-0.8C1012.6,63,1013.1,62.6,1013.6,62.6z M1015.1,107.2
						c-10.6,0-19.3-8.6-19.3-19.3s8.6-19.3,19.3-19.3s19.3,8.6,19.3,19.3S1025.7,107.2,1015.1,107.2z M1032.9,60
						c-1.9-2.6-1-5.5,2-6.7c1.9-0.8,3.9-0.8,5.9-0.2c2.4,0.6,4.4,1.8,5.8,3.9c1.6,2.5,0.8,5.3-2,6.5c-2.1,0.9-4.3,0.8-6.5,0.2
						C1036,62.9,1034.2,61.9,1032.9,60z M1045.5,78.2c-3.3,0.2-6.3-2.8-6.3-6c0-2.6,2.1-4.3,4.6-3.9c2.8,0.5,5,2.9,5.3,5.8
						C1049.2,76.2,1047.6,78.1,1045.5,78.2z M1055.7,88.9c-2.6-0.4-5-3.6-4.6-6.1c0.3-1.8,1.6-2.7,3.4-2.3c2.4,0.5,4.5,3.1,4.5,5.5
						C1059,88,1057.7,89.2,1055.7,88.9z M1062.3,75.7c-2.2,0.7-4.4,0.5-6.5-0.3c-1.9-0.8-3.4-2-4.3-3.8c-1-2.1-0.4-4.2,1.4-5.6
						c1.3-1,2.8-1.4,4.5-1.4c2.7,0,5.3,1.1,7,2.9C1067.2,70.4,1066.3,74.4,1062.3,75.7z M1064.9,81.3c0-2.4,1.9-4.3,4.3-4.3
						c2.4,0,4.3,1.9,4.3,4.3c0,2.4-1.9,4.3-4.3,4.3C1066.8,85.7,1064.9,83.7,1064.9,81.3z M1070.4,94.1c-0.6,0.8-1.5,0.8-2,0
						c-0.4-0.5-0.5-1.2-0.5-1.8c0-0.9,0.2-1.5,0.5-2c0.6-0.7,1.4-0.7,2,0C1071.1,91.3,1071.1,93.1,1070.4,94.1z M1073.4,101.9
						c-0.8,0-1.5-0.6-1.5-1.4c0-0.8,0.6-1.4,1.5-1.4c0.8,0,1.5,0.6,1.5,1.4C1074.8,101.3,1074.2,101.9,1073.4,101.9z"/>
				</g>
			</g>
			<path class="st3" d="M1007.1,87.1c0-2-1.6-3.6-3.6-3.6c-1.9,0-3.5,1.6-3.5,3.6c0,2,1.6,3.6,3.6,3.6
				C1005.5,90.7,1007.1,89.1,1007.1,87.1z"/>
		</g>
	</g>
</g>
<g>
	<path class="st3" d="M404.3,100.6"/>
	<path class="st0" d="M407.3,12.9c-47.5-2.1-87.7,34.6-89.8,82.1c-1.7,38.8,22.5,72.7,57.3,85v4.2c0,5.6,4.6,10.2,10.2,10.2h36.9
		c5.6,0,10.2-4.6,10.2-10.2v-4.2c32-11.3,55.6-41.2,57.3-77.2C491.5,55.3,454.7,15.1,407.3,12.9z"/>
	<g>
		<ellipse transform="matrix(0.9911 -0.1331 0.1331 0.9911 -9.5003 54.5903)" class="st4" cx="403.4" cy="98.3" rx="75" ry="75"/>
		<g>
			<path class="st0" d="M387,53.6L372.3,61l-8.9,14.4l-4.7,20.1c0,0,3.6,7.9,4.4,7.9c0.8,0,14.8-13.2,15.3-13.2
				c0.6,0,14.2-11.7,14.2-11.7l15.1-11.7l10.4-5.9l8.9,1.5l-0.4-5.9l-4.2-4.9l-9.6-2.5l-8.7-3.6l-14,4.5L387,53.6z"/>
			<g>
				<g>
					<path class="st3" d="M454.1,112.1c1-6.2,2.5-21.2-5.3-37.2C436,48.4,408,45,404.1,44.2c-31.3,7.1-52.3,29-52.2,55.4
						c0.1,18.9,11.2,43.4,34,50.3c12.1,3.7,30.7,4.8,38.8-5.5c3.6-4.5,5.8-12.1,4.6-18.6c-0.5-3-1.5-4.6-2.6-5.7
						c-2.5-2.5-7.1-3.6-10.3-1.6c-0.3,0.2-2.6,1.6-3.2,4.4c-0.1,0.7-0.4,1.9,0.2,3c1,1.9,3.9,2.9,6.1,1.8c1.7-0.9,1.7-2.9,2.2-2.8
						c0.8,0.1,1.7,4.8,0.2,9.1c-2.1,6-7.8,8.5-8.3,8.7c-5.9,2.4-12,0.4-15.4-1.8c-7.5-5-10.3-17.1-5.7-29.5L454.1,112.1z M424.6,58
						c0.6,0,1.1,0.4,1,0.9c0,0.5-0.5,0.8-1,0.8c-0.6,0-1-0.4-1-0.8C423.7,58.4,424.1,58,424.6,58z M442.8,83.8
						c0,10.8-8.8,19.6-19.6,19.6s-19.6-8.8-19.6-19.6s8.8-19.6,19.6-19.6S442.8,72.9,442.8,83.8z M417.4,52.2c0.6,0,1.1,0.6,1.1,1.2
						c0,0.6-0.5,1.2-1,1.2c-0.6,0-1.1-0.5-1.1-1.1C416.4,52.8,416.9,52.2,417.4,52.2z M410.8,55.5c2.1,0,3.8,1.7,3.9,3.8
						c0,2.3-1.7,4.1-3.8,4c-2.1,0-3.8-1.7-3.8-3.9C407.1,57.2,408.7,55.5,410.8,55.5z M391.1,52.2c1.4-2.2,3.5-3.3,5.9-4
						c2-0.5,4.1-0.6,6,0.2c3,1.2,3.9,4.2,2,6.8c-1.3,1.9-3.2,2.9-5.3,3.6c-2.2,0.6-4.4,0.7-6.6-0.2
						C390.3,57.6,389.4,54.8,391.1,52.2z M363.8,98c-0.8,0-1.4-0.6-1.4-1.4c0-0.8,0.7-1.4,1.5-1.4c0.8,0,1.5,0.7,1.5,1.4
						C365.3,97.4,364.6,98,363.8,98z M368.9,90c-0.6,0.8-1.5,0.8-2.1,0c-0.7-1-0.7-2.9,0-3.8c0.6-0.7,1.4-0.7,2,0
						c0.4,0.5,0.6,1.1,0.6,2C369.5,88.8,369.3,89.5,368.9,90z M368,81.5c-2.4,0-4.4-2-4.4-4.4c0-2.4,2-4.3,4.4-4.4
						c2.4,0,4.4,1.9,4.4,4.4C372.4,79.5,370.5,81.5,368,81.5z M375,71.3c-4-1.3-5-5.3-2.1-8.4c1.7-1.8,4.4-2.9,7.1-2.9
						c1.7,0,3.2,0.4,4.6,1.4c1.9,1.4,2.4,3.6,1.4,5.7c-0.9,1.9-2.5,3.1-4.4,3.9C379.5,71.8,377.3,72,375,71.3z M381.8,84.8
						c-2,0.3-3.4-0.9-3.4-3c0-2.5,2.1-5.1,4.6-5.6c1.8-0.4,3.2,0.6,3.5,2.4C386.9,81.1,384.4,84.4,381.8,84.8z M388.6,69.7
						c0.2-2.9,2.5-5.4,5.4-5.9c2.6-0.4,4.7,1.3,4.7,3.9c0,3.3-3.1,6.3-6.5,6.1C390.1,73.7,388.4,71.8,388.6,69.7z"/>
				</g>
			</g>
			<path class="st3" d="M431.3,82.9c0-2,1.7-3.7,3.6-3.6c2,0,3.6,1.7,3.6,3.6c0,2-1.6,3.6-3.7,3.6C432.9,86.5,431.3,85,431.3,82.9z"
				/>
		</g>
	</g>
</g>
</svg>
