<?xml version="1.0" encoding="utf-8"?>
<!-- Generator: Adobe Illustrator 25.4.1, SVG Export Plug-In . SVG Version: 6.00 Build 0)  -->
<svg version="1.1" id="Camada_1" xmlns="http://www.w3.org/2000/svg" xmlns:xlink="http://www.w3.org/1999/xlink" x="0px" y="0px"
	 viewBox="0 0 803 249" style="enable-background:new 0 0 803 249;" xml:space="preserve">
<style type="text/css">
	.st0{fill:#FFFFFF;stroke:#3DAE2B;stroke-width:6;stroke-miterlimit:10;}
	.st1{fill:#3DAE2B;}
</style>
<g>
	<rect x="63.6" y="66" class="st0" width="668" height="119.9"/>
	<g>
		<g>
			<path class="st1" d="M110.6,109.6c2.1,0,3.8,0.3,5.3,1c1.5,0.7,2.6,1.7,3.3,3c0.8,1.3,1.2,2.9,1.2,4.7c0,1.1-0.2,2.2-0.5,3.3
				c-0.3,1.1-0.9,2-1.6,2.9c-0.7,0.9-1.7,1.6-2.9,2.1c-1.2,0.5-2.6,0.8-4.3,0.8h-4v9.8h-4v-27.6H110.6z M111.1,123.4
				c1,0,1.9-0.2,2.5-0.5s1.2-0.8,1.6-1.3c0.4-0.5,0.7-1.1,0.8-1.7s0.2-1.1,0.2-1.6c0-0.5-0.1-1-0.2-1.6s-0.4-1.1-0.8-1.6
				s-0.9-0.9-1.6-1.2c-0.7-0.3-1.5-0.5-2.5-0.5H107v9.9H111.1z"/>
			<path class="st1" d="M133.5,109.6c1.4,0,2.8,0.2,4,0.6c1.2,0.4,2.3,0.9,3.2,1.7c0.9,0.7,1.6,1.6,2.1,2.7s0.7,2.3,0.7,3.7
				c0,1.1-0.2,2.2-0.5,3.3c-0.3,1.1-0.8,2-1.6,2.9c-0.7,0.9-1.7,1.6-2.9,2.1c-1.2,0.5-2.7,0.8-4.5,0.8h-4v9.8h-4v-27.6H133.5z
				 M134,123.4c1,0,1.9-0.2,2.6-0.5c0.7-0.3,1.2-0.7,1.6-1.2c0.4-0.5,0.7-1,0.8-1.6s0.2-1.1,0.2-1.6c0-0.5-0.1-1-0.2-1.6
				s-0.4-1.1-0.8-1.6c-0.4-0.5-0.9-0.9-1.6-1.3c-0.7-0.3-1.5-0.5-2.4-0.5H130v9.9H134z M138.6,125.8l7.1,11.4H141l-7.3-11.3
				L138.6,125.8z"/>
			<path class="st1" d="M151.2,109.6h18.1v3.9h-14v7.9h12.5v3.9h-12.5v8h14.6v3.9h-18.6V109.6z"/>
			<path class="st1" d="M183.7,109.6c2.1,0,3.8,0.3,5.3,1c1.5,0.7,2.6,1.7,3.3,3c0.8,1.3,1.2,2.9,1.2,4.7c0,1.1-0.2,2.2-0.5,3.3
				c-0.3,1.1-0.9,2-1.6,2.9c-0.7,0.9-1.7,1.6-2.9,2.1c-1.2,0.5-2.6,0.8-4.3,0.8h-4v9.8h-4v-27.6H183.7z M184.2,123.4
				c1,0,1.9-0.2,2.5-0.5s1.2-0.8,1.6-1.3c0.4-0.5,0.7-1.1,0.8-1.7s0.2-1.1,0.2-1.6c0-0.5-0.1-1-0.2-1.6s-0.4-1.1-0.8-1.6
				s-0.9-0.9-1.6-1.2c-0.7-0.3-1.5-0.5-2.5-0.5h-4.2v9.9H184.2z"/>
			<path class="st1" d="M196.2,137.2l12.2-28.7h0.3l12.1,28.7h-4.6l-8.8-22.4l2.9-1.9l-9.9,24.3H196.2z M203.6,126.8h9.8l1.3,3.5
				h-12.4L203.6,126.8z"/>
			<path class="st1" d="M233.2,109.6c1.4,0,2.8,0.2,4,0.6c1.2,0.4,2.3,0.9,3.2,1.7c0.9,0.7,1.6,1.6,2.1,2.7s0.7,2.3,0.7,3.7
				c0,1.1-0.2,2.2-0.5,3.3c-0.3,1.1-0.8,2-1.6,2.9c-0.7,0.9-1.7,1.6-2.9,2.1c-1.2,0.5-2.7,0.8-4.5,0.8h-4v9.8h-4v-27.6H233.2z
				 M233.7,123.4c1,0,1.9-0.2,2.6-0.5c0.7-0.3,1.2-0.7,1.6-1.2c0.4-0.5,0.7-1,0.8-1.6s0.2-1.1,0.2-1.6c0-0.5-0.1-1-0.2-1.6
				s-0.4-1.1-0.8-1.6c-0.4-0.5-0.9-0.9-1.6-1.3c-0.7-0.3-1.5-0.5-2.4-0.5h-4.2v9.9H233.7z M238.3,125.8l7.1,11.4h-4.7l-7.3-11.3
				L238.3,125.8z"/>
			<path class="st1" d="M248.1,137.2l12.2-28.7h0.3l12.1,28.7H268l-8.8-22.4l2.9-1.9l-9.9,24.3H248.1z M255.5,126.8h9.8l1.3,3.5
				h-12.4L255.5,126.8z"/>
			<path class="st1" d="M277.6,137.2v-27.6h7.6c2.7,0,5.1,0.4,7,1.2c1.9,0.8,3.5,1.9,4.7,3.3c1.2,1.4,2,2.9,2.6,4.6s0.8,3.3,0.8,5
				c0,2.1-0.4,3.9-1.1,5.6c-0.7,1.6-1.7,3.1-3,4.2s-2.7,2.1-4.4,2.7c-1.6,0.6-3.4,0.9-5.2,0.9H277.6z M281.6,133.3h4.2
				c1.5,0,2.9-0.2,4.1-0.6c1.3-0.4,2.3-1.1,3.3-1.9c0.9-0.8,1.6-1.9,2.1-3.1c0.5-1.2,0.7-2.6,0.7-4.1c0-1.7-0.3-3.2-0.8-4.5
				s-1.3-2.3-2.2-3.1c-1-0.8-2-1.4-3.2-1.8c-1.2-0.4-2.3-0.6-3.5-0.6h-4.7V133.3z"/>
			<path class="st1" d="M304.6,123.4c0-1.9,0.4-3.7,1.1-5.4c0.7-1.7,1.7-3.2,3-4.5c1.3-1.3,2.8-2.3,4.5-3.1c1.7-0.7,3.5-1.1,5.5-1.1
				c2,0,3.8,0.4,5.5,1.1c1.7,0.7,3.2,1.8,4.5,3.1c1.3,1.3,2.3,2.8,3.1,4.5c0.7,1.7,1.1,3.5,1.1,5.4c0,2-0.4,3.8-1.1,5.5
				c-0.7,1.7-1.8,3.2-3.1,4.5c-1.3,1.3-2.8,2.3-4.5,3c-1.7,0.7-3.5,1.1-5.5,1.1c-2,0-3.8-0.4-5.5-1.1c-1.7-0.7-3.2-1.7-4.5-3
				c-1.3-1.3-2.3-2.8-3-4.5C305,127.3,304.6,125.4,304.6,123.4z M308.8,123.4c0,1.4,0.3,2.7,0.8,4c0.5,1.2,1.2,2.3,2.1,3.2
				c0.9,0.9,2,1.6,3.2,2.2c1.2,0.5,2.5,0.8,3.9,0.8c1.4,0,2.6-0.3,3.8-0.8s2.2-1.2,3.1-2.2c0.9-0.9,1.6-2,2.1-3.2
				c0.5-1.2,0.8-2.6,0.8-4c0-1.4-0.3-2.7-0.8-4c-0.5-1.2-1.2-2.3-2.1-3.3c-0.9-0.9-1.9-1.7-3.2-2.2s-2.5-0.8-3.9-0.8
				c-1.4,0-2.7,0.3-3.9,0.8s-2.3,1.3-3.2,2.2c-0.9,0.9-1.6,2-2.1,3.3C309.1,120.7,308.8,122,308.8,123.4z"/>
			<path class="st1" d="M353.2,114.9c-1-0.5-2-0.9-3.1-1.3c-1.1-0.4-2.2-0.6-3.2-0.6c-1.4,0-2.5,0.3-3.4,1c-0.8,0.6-1.3,1.5-1.3,2.6
				c0,0.8,0.3,1.5,0.8,2.1s1.3,1.1,2.2,1.5c0.9,0.4,1.8,0.8,2.8,1.2c0.8,0.3,1.7,0.7,2.5,1.1c0.8,0.4,1.6,0.9,2.2,1.5
				c0.7,0.6,1.2,1.4,1.6,2.3c0.4,0.9,0.6,2,0.6,3.3c0,1.4-0.4,2.8-1.1,3.9c-0.7,1.2-1.8,2.1-3.1,2.8c-1.4,0.7-3,1.1-4.9,1.1
				c-1.2,0-2.3-0.1-3.4-0.4c-1.1-0.3-2.1-0.6-3.1-1c-1-0.4-1.8-0.9-2.6-1.5l1.8-3.2c0.6,0.5,1.3,0.9,2.1,1.3
				c0.8,0.4,1.6,0.7,2.5,0.9c0.8,0.2,1.7,0.4,2.4,0.4c0.8,0,1.7-0.1,2.5-0.4c0.8-0.3,1.5-0.7,2-1.4c0.5-0.6,0.8-1.4,0.8-2.5
				c0-0.9-0.2-1.6-0.7-2.2c-0.5-0.6-1.1-1.1-1.9-1.5c-0.8-0.4-1.6-0.8-2.5-1.1c-0.8-0.3-1.7-0.7-2.6-1.1c-0.9-0.4-1.7-0.9-2.5-1.5
				c-0.8-0.6-1.4-1.3-1.8-2.1c-0.5-0.8-0.7-1.9-0.7-3.1c0-1.5,0.3-2.8,1-3.9s1.7-2,2.9-2.6c1.2-0.6,2.7-1,4.3-1
				c1.9,0,3.5,0.2,4.9,0.7c1.4,0.4,2.6,1,3.7,1.7L353.2,114.9z"/>
			<path class="st1" d="M380.7,109.6c2.1,0,3.8,0.3,5.3,1s2.6,1.7,3.3,3s1.2,2.9,1.2,4.7c0,1.1-0.2,2.2-0.5,3.3
				c-0.3,1.1-0.9,2-1.6,2.9c-0.7,0.9-1.7,1.6-2.9,2.1c-1.2,0.5-2.6,0.8-4.3,0.8h-4v9.8h-4v-27.6H380.7z M381.2,123.4
				c1,0,1.9-0.2,2.5-0.5c0.7-0.3,1.2-0.8,1.6-1.3c0.4-0.5,0.7-1.1,0.8-1.7c0.2-0.6,0.2-1.1,0.2-1.6c0-0.5-0.1-1-0.2-1.6
				c-0.2-0.6-0.4-1.1-0.8-1.6c-0.4-0.5-0.9-0.9-1.6-1.2c-0.7-0.3-1.5-0.5-2.5-0.5h-4.2v9.9H381.2z"/>
			<path class="st1" d="M393.2,137.2l12.2-28.7h0.3l12.1,28.7H413l-8.8-22.4l2.9-1.9l-9.9,24.3H393.2z M400.6,126.8h9.8l1.3,3.5
				h-12.4L400.6,126.8z"/>
			<path class="st1" d="M430.2,109.6c1.4,0,2.8,0.2,4,0.6c1.2,0.4,2.3,0.9,3.2,1.7s1.6,1.6,2.1,2.7c0.5,1.1,0.7,2.3,0.7,3.7
				c0,1.1-0.2,2.2-0.5,3.3c-0.3,1.1-0.8,2-1.6,2.9c-0.7,0.9-1.7,1.6-2.9,2.1c-1.2,0.5-2.7,0.8-4.5,0.8h-4v9.8h-4v-27.6H430.2z
				 M430.7,123.4c1,0,1.9-0.2,2.6-0.5c0.7-0.3,1.2-0.7,1.6-1.2c0.4-0.5,0.7-1,0.8-1.6c0.2-0.6,0.2-1.1,0.2-1.6c0-0.5-0.1-1-0.2-1.6
				c-0.2-0.6-0.4-1.1-0.8-1.6s-0.9-0.9-1.6-1.3c-0.7-0.3-1.5-0.5-2.4-0.5h-4.2v9.9H430.7z M435.3,125.8l7.1,11.4h-4.7l-7.3-11.3
				L435.3,125.8z"/>
			<path class="st1" d="M445.1,137.2l12.2-28.7h0.3l12.1,28.7h-4.6l-8.8-22.4l2.9-1.9l-9.9,24.3H445.1z M452.5,126.8h9.8l1.3,3.5
				h-12.4L452.5,126.8z"/>
			<path class="st1" d="M507,135c-0.4,0.3-1,0.7-1.8,1c-0.8,0.4-1.7,0.7-2.8,1c-1.1,0.3-2.3,0.4-3.6,0.4c-2.2,0-4.1-0.4-5.8-1.1
				c-1.7-0.7-3.2-1.7-4.4-3c-1.2-1.3-2.1-2.8-2.7-4.4c-0.6-1.7-1-3.4-1-5.3c0-2.1,0.3-4,1-5.7c0.6-1.7,1.6-3.3,2.8-4.5
				c1.2-1.3,2.7-2.3,4.3-3c1.7-0.7,3.5-1.1,5.5-1.1c1.7,0,3.2,0.2,4.6,0.7c1.4,0.4,2.5,1,3.5,1.6l-1.7,3.8c-0.7-0.5-1.6-1-2.7-1.5
				s-2.3-0.7-3.6-0.7c-1.3,0-2.5,0.3-3.6,0.8c-1.2,0.5-2.2,1.2-3,2.2s-1.6,2-2.1,3.3s-0.8,2.6-0.8,4c0,1.4,0.2,2.8,0.7,4
				c0.5,1.3,1.1,2.3,2,3.3c0.9,0.9,1.9,1.6,3.1,2.1c1.2,0.5,2.5,0.8,4,0.8c1.4,0,2.7-0.2,3.7-0.6c1.1-0.4,2-0.9,2.6-1.5L507,135z"/>
			<path class="st1" d="M511.4,123.4c0-1.9,0.4-3.7,1.1-5.4c0.7-1.7,1.7-3.2,3-4.5c1.3-1.3,2.8-2.3,4.5-3.1c1.7-0.7,3.5-1.1,5.5-1.1
				c2,0,3.8,0.4,5.5,1.1c1.7,0.7,3.2,1.8,4.5,3.1c1.3,1.3,2.3,2.8,3.1,4.5c0.7,1.7,1.1,3.5,1.1,5.4c0,2-0.4,3.8-1.1,5.5
				c-0.7,1.7-1.8,3.2-3.1,4.5c-1.3,1.3-2.8,2.3-4.5,3s-3.5,1.1-5.5,1.1c-2,0-3.8-0.4-5.5-1.1c-1.7-0.7-3.2-1.7-4.5-3
				c-1.3-1.3-2.3-2.8-3-4.5C511.7,127.3,511.4,125.4,511.4,123.4z M515.5,123.4c0,1.4,0.3,2.7,0.8,4c0.5,1.2,1.2,2.3,2.1,3.2
				c0.9,0.9,2,1.6,3.2,2.2c1.2,0.5,2.5,0.8,3.9,0.8c1.4,0,2.6-0.3,3.8-0.8s2.2-1.2,3.1-2.2c0.9-0.9,1.6-2,2.1-3.2
				c0.5-1.2,0.8-2.6,0.8-4c0-1.4-0.3-2.7-0.8-4c-0.5-1.2-1.2-2.3-2.1-3.3c-0.9-0.9-1.9-1.7-3.2-2.2s-2.5-0.8-3.9-0.8
				c-1.4,0-2.7,0.3-3.9,0.8c-1.2,0.5-2.3,1.3-3.2,2.2c-0.9,0.9-1.6,2-2.1,3.3C515.8,120.7,515.5,122,515.5,123.4z"/>
			<path class="st1" d="M545.6,137.2v-28.5h0l14.6,20.8l-1.7-0.4l14.6-20.4h0v28.5h-4v-19.3l0.2,2.1l-10.2,14.4h-0.1l-10.4-14.4
				l0.7-1.9v19.2H545.6z"/>
			<path class="st1" d="M581,109.6h18.1v3.9h-14v7.9h12.5v3.9H585v8h14.6v3.9H581V109.6z"/>
			<path class="st1" d="M626.3,135c-0.4,0.3-1,0.7-1.8,1c-0.8,0.4-1.7,0.7-2.8,1c-1.1,0.3-2.3,0.4-3.6,0.4c-2.2,0-4.1-0.4-5.8-1.1
				c-1.7-0.7-3.2-1.7-4.4-3c-1.2-1.3-2.1-2.8-2.7-4.4c-0.6-1.7-1-3.4-1-5.3c0-2.1,0.3-4,1-5.7c0.6-1.7,1.6-3.3,2.8-4.5
				c1.2-1.3,2.7-2.3,4.3-3c1.7-0.7,3.5-1.1,5.5-1.1c1.7,0,3.2,0.2,4.6,0.7s2.5,1,3.5,1.6l-1.7,3.8c-0.7-0.5-1.6-1-2.7-1.5
				s-2.3-0.7-3.6-0.7c-1.3,0-2.5,0.3-3.6,0.8c-1.2,0.5-2.2,1.2-3,2.2c-0.9,0.9-1.6,2-2.1,3.3c-0.5,1.2-0.8,2.6-0.8,4
				c0,1.4,0.2,2.8,0.7,4c0.5,1.3,1.1,2.3,2,3.3c0.9,0.9,1.9,1.6,3.1,2.1s2.5,0.8,4,0.8c1.4,0,2.7-0.2,3.7-0.6c1.1-0.4,2-0.9,2.6-1.5
				L626.3,135z M614.3,142.9c0.3,0.3,0.6,0.6,1,0.7c0.4,0.2,0.9,0.3,1.5,0.3c0.6,0,1.1-0.1,1.7-0.4c0.5-0.3,0.8-0.7,0.8-1.2
				c0-0.4-0.2-0.8-0.5-1.1c-0.3-0.3-1-0.5-1.9-0.5c-0.4,0-0.8,0.1-1.3,0.2c-0.5,0.1-0.8,0.2-1.2,0.3l-0.6-1.9l2.7-2.4l3,0.1
				l-2.8,3.2l-0.9-1c0.3-0.1,0.6-0.2,1-0.2s0.7-0.1,1.1-0.1c1.4,0,2.5,0.2,3.4,0.8c0.9,0.6,1.3,1.4,1.3,2.5c0,0.9-0.3,1.6-0.8,2.2
				c-0.5,0.6-1.2,1-2,1.3c-0.8,0.3-1.7,0.4-2.6,0.4c-1,0-1.8-0.1-2.5-0.4c-0.7-0.3-1.2-0.6-1.6-1L614.3,142.9z"/>
			<path class="st1" d="M629.5,137.2l12.2-28.7h0.3l12.1,28.7h-4.6l-8.8-22.4l2.9-1.9l-9.9,24.3H629.5z M636.9,126.8h9.8l1.3,3.5
				h-12.4L636.9,126.8z"/>
			<path class="st1" d="M666.5,109.6c1.4,0,2.8,0.2,4,0.6c1.2,0.4,2.3,0.9,3.2,1.7c0.9,0.7,1.6,1.6,2.1,2.7c0.5,1.1,0.7,2.3,0.7,3.7
				c0,1.1-0.2,2.2-0.5,3.3s-0.8,2-1.6,2.9c-0.7,0.9-1.7,1.6-2.9,2.1c-1.2,0.5-2.7,0.8-4.5,0.8h-4v9.8h-4v-27.6H666.5z M667,123.4
				c1,0,1.9-0.2,2.6-0.5c0.7-0.3,1.2-0.7,1.6-1.2c0.4-0.5,0.7-1,0.8-1.6c0.2-0.6,0.2-1.1,0.2-1.6c0-0.5-0.1-1-0.2-1.6
				c-0.2-0.6-0.4-1.1-0.8-1.6c-0.4-0.5-0.9-0.9-1.6-1.3c-0.7-0.3-1.5-0.5-2.4-0.5H663v9.9H667z M671.6,125.8l7.1,11.4h-4.7
				l-7.3-11.3L671.6,125.8z"/>
			<path class="st1" d="M686.4,130v-2.3c0-1.3,0.2-2.3,0.5-3c0.3-0.8,0.8-1.4,1.3-1.9s1.1-1,1.6-1.5c0.8-0.7,1.4-1.3,2-2
				s0.9-1.6,0.9-2.8c0-0.8-0.2-1.4-0.6-2c-0.4-0.6-0.9-1-1.4-1.4c-0.6-0.3-1.2-0.5-1.9-0.5c-0.8,0-1.5,0.2-2.1,0.5
				c-0.6,0.4-1.1,0.8-1.5,1.4c-0.4,0.6-0.7,1.2-1,1.9l-3.2-1.5c0.2-0.5,0.5-1.1,0.9-1.8c0.4-0.7,0.9-1.3,1.6-2
				c0.7-0.6,1.5-1.2,2.4-1.6s2.1-0.6,3.3-0.6c1.4,0,2.7,0.3,3.9,0.8c1.1,0.5,2.1,1.3,2.7,2.4c0.7,1.1,1,2.4,1,4
				c0,1.3-0.2,2.3-0.6,3.1c-0.4,0.8-0.8,1.5-1.4,2.1c-0.6,0.6-1.1,1.2-1.7,1.8c-0.5,0.5-1,0.9-1.4,1.4c-0.4,0.5-0.8,1-1,1.6
				s-0.4,1.4-0.4,2.5v1.4H686.4z M688.5,137.1c-0.7,0-1.3-0.2-1.7-0.6c-0.5-0.4-0.7-0.9-0.7-1.5s0.2-1.2,0.7-1.6s1-0.6,1.7-0.6
				c0.7,0,1.3,0.2,1.7,0.6c0.5,0.4,0.7,0.9,0.7,1.6s-0.2,1.1-0.7,1.5C689.8,136.9,689.2,137.1,688.5,137.1z"/>
		</g>
	</g>
	<g>
		<path class="st1" d="M38.8,175.7c0.6,0.9,2.1,2.2,2.4,3.6c0.4,2.1-1.2,3.6-3.5,3.6c-6.7-0.2-13.4-0.5-20-1.2
			c-1.2-0.1-3.3-2.4-3.1-3.4c0.2-1.3,2.2-3.4,3.5-3.4C24.6,174.8,31.2,175.3,38.8,175.7z"/>
		<path class="st1" d="M31.7,207.6c1.1-1.3,1.8-2.3,2.7-3c3.7-2.8,7.5-5.4,11.2-8.1c2.2-1.6,4.4-2.2,6.4,0.2c1.9,2.2,0.7,4-1.4,5.5
			c-4,2.9-7.9,5.9-12.1,8.6c-1.1,0.7-3.2,0.7-4.4,0.1C33.1,210.5,32.6,208.9,31.7,207.6z"/>
		<path class="st1" d="M58.7,217.2c0.3-2,0.6-4.1,1.1-6c0.5-2.2,2.1-3.4,4.6-2.9c2.4,0.5,3.5,2.1,3.1,4.4c-0.7,3.8-1.4,7.6-2.3,11.4
			c-0.5,2.3-1.9,4.2-4.8,3.5c-2.9-0.7-3.7-2.8-3.1-5.4c0.4-1.7,0.8-3.4,1.2-5C58.5,217.2,58.6,217.2,58.7,217.2z"/>
	</g>
	<g>
		<path class="st1" d="M765.2,77.2c-0.7-0.9-2.2-2.1-2.5-3.5c-0.5-2.1,1-3.7,3.3-3.7c6.7-0.1,13.4-0.1,20,0.3
			c1.2,0.1,3.4,2.3,3.3,3.3c-0.2,1.4-2.1,3.5-3.4,3.5C779.4,77.4,772.8,77.2,765.2,77.2z"/>
		<path class="st1" d="M770.9,45c-1.1,1.3-1.7,2.4-2.6,3.1c-3.6,2.9-7.2,5.7-10.8,8.6c-2.1,1.7-4.3,2.4-6.4,0.1
			c-2-2.2-0.9-4,1.1-5.6c3.9-3.1,7.7-6.3,11.7-9.1c1-0.7,3.2-0.8,4.4-0.3C769.4,42.2,770,43.8,770.9,45z"/>
		<path class="st1" d="M743.4,36.6c-0.3,2-0.4,4.1-0.8,6.1c-0.4,2.3-2,3.5-4.4,3.1c-2.5-0.4-3.6-2-3.3-4.3c0.6-3.8,1.1-7.7,1.7-11.5
			c0.4-2.4,1.7-4.3,4.6-3.7c3,0.5,3.8,2.7,3.3,5.3c-0.3,1.7-0.6,3.4-1,5.1C743.6,36.6,743.5,36.6,743.4,36.6z"/>
	</g>
</g>
</svg>
