<?xml version="1.0" encoding="utf-8"?>
<!-- Generator: Adobe Illustrator 25.4.1, SVG Export Plug-In . SVG Version: 6.00 Build 0)  -->
<svg version="1.1" id="Camada_1" xmlns="http://www.w3.org/2000/svg" xmlns:xlink="http://www.w3.org/1999/xlink" x="0px" y="0px"
	 viewBox="0 0 819 785" style="enable-background:new 0 0 819 785;" xml:space="preserve">
<style type="text/css">
	.st0{fill:#1D1D1B;}
	.st1{fill:#009FE3;}
	.st2{fill:#3DAE2B;}
	.st3{fill:#F32735;}
</style>
<g>
	<g>
		<rect x="83" y="524.4" class="st0" width="127.3" height="127.3"/>
		<g>
			<circle class="st1" cx="150.4" cy="565.4" r="13.9"/>
			<circle class="st2" cx="168" cy="594.5" r="13.9"/>
			<circle class="st3" cx="132.7" cy="594.5" r="13.9"/>
		</g>
	</g>
	<g>
		<rect x="592.2" y="397.3" class="st0" width="127.3" height="127.3"/>
		<g>
			<circle class="st1" cx="659.7" cy="438.3" r="13.9"/>
			<circle class="st2" cx="677.3" cy="467.4" r="13.9"/>
			<circle class="st3" cx="642" cy="467.4" r="13.9"/>
		</g>
	</g>
	<g>
		<rect x="464.7" y="14.7" class="st0" width="127.3" height="127.3"/>
		<g>
			<circle class="st1" cx="532.2" cy="55.7" r="13.9"/>
			<circle class="st2" cx="549.8" cy="84.8" r="13.9"/>
			<circle class="st3" cx="514.4" cy="84.8" r="13.9"/>
		</g>
	</g>
	<g>
		<rect x="210.3" y="269.3" class="st0" width="127.3" height="127.3"/>
		<g>
			<circle class="st1" cx="277.8" cy="310.3" r="13.9"/>
			<circle class="st2" cx="295.4" cy="339.4" r="13.9"/>
			<circle class="st3" cx="260" cy="339.4" r="13.9"/>
		</g>
	</g>
	<g>
		<g>
			<path class="st1" d="M406.8,439c0.6-0.8,0.9-1.8,0.9-3c0-1.4-0.4-2.4-1.1-3.2c-0.7-0.8-1.7-1.3-2.8-1.7c-1.1-0.3-2.3-0.5-3.5-0.5
				h-5.2v10.8h5.5c1.3,0,2.5-0.2,3.6-0.6C405.4,440.4,406.2,439.8,406.8,439z M404.7,424.4c0.9-1.1,1.3-2.4,1.3-3.9
				c0-1.9-0.6-3.2-1.7-4.1c-1.1-0.8-2.6-1.3-4.6-1.3h-4.6V426h5.3C402.5,426,403.9,425.5,404.7,424.4z M359.1,462.2h10.2l-5-12.8
				L359.1,462.2z M337.4,397.3v127.3h127.3V397.3H337.4z M374.6,475.5l-3.6-9.2h-13.5l-3.7,9.2h-4.7l15.3-36.5h0.3l15.3,36.5H374.6z
				 M390.5,410.7h9c3.5,0,6.3,0.7,8.3,2.2c2,1.4,3,3.7,3,6.7c0,1.9-0.4,3.5-1.3,4.8c-0.8,1.4-2,2.4-3.5,3.2c0,0,0,0,0,0
				c0.1,0,0.3,0.1,0.4,0.1c1.9,0.8,3.4,1.9,4.5,3.2c1.1,1.4,1.6,3,1.6,4.9c0,1.7-0.3,3.2-0.9,4.5c-0.6,1.2-1.5,2.3-2.6,3.1
				c-1.1,0.8-2.4,1.4-3.7,1.7c-1.4,0.4-2.8,0.6-4.3,0.6h-10.4V410.7z M404.7,500.7c-0.5,0.5-1.2,0.7-2,0.7c-0.8,0-1.5-0.2-2.1-0.7
				c-0.6-0.5-0.8-1.1-0.8-1.9c0-0.7,0.3-1.3,0.8-1.8c0.6-0.5,1.3-0.8,2.1-0.8c0.8,0,1.5,0.3,2,0.8c0.5,0.5,0.8,1.1,0.8,1.8
				C405.5,499.6,405.2,500.2,404.7,500.7z M412.5,478.7c-0.5,1.1-1,2-1.7,2.7c-0.7,0.8-1.4,1.5-2.3,2.3c-0.6,0.6-1.3,1.2-1.8,1.7
				c-0.6,0.6-1,1.2-1.4,2c-0.3,0.8-0.5,1.8-0.5,3.1v2h-4.5v-3.1c0-1.6,0.2-2.9,0.6-3.8c0.4-1,1-1.8,1.6-2.4c0.7-0.6,1.4-1.3,2.1-1.9
				c1-0.8,1.9-1.7,2.6-2.6c0.7-0.9,1.1-2.1,1.1-3.6c0-1.1-0.3-2-0.8-2.8c-0.5-0.8-1.2-1.4-2-1.9c-0.8-0.5-1.7-0.7-2.6-0.7
				c-1.1,0-2,0.2-2.8,0.7c-0.8,0.5-1.5,1.1-2.1,1.8c-0.6,0.8-1,1.6-1.3,2.5l-3.8-1.7c0.3-0.7,0.7-1.4,1.2-2.3
				c0.5-0.9,1.2-1.7,2.1-2.5c0.8-0.8,1.9-1.4,3.1-2c1.2-0.5,2.6-0.8,4.1-0.8c1.8,0,3.5,0.4,4.9,1.1c1.5,0.7,2.6,1.8,3.5,3.1
				c0.9,1.4,1.3,3,1.3,5C413.2,476.4,413,477.6,412.5,478.7z M448.9,474.2c-1,0.5-2.2,0.9-3.5,1.2c-1.3,0.3-2.8,0.5-4.4,0.5
				c-2.7,0-5.1-0.5-7.3-1.5c-2.2-0.9-4-2.2-5.6-3.8c-1.5-1.6-2.7-3.5-3.5-5.6c-0.8-2.1-1.2-4.4-1.2-6.8c0-2.6,0.4-5,1.3-7.2
				c0.8-2.2,2-4.1,3.6-5.8c1.6-1.6,3.4-2.9,5.5-3.8c2.1-0.9,4.4-1.4,7-1.4c2.1,0,4,0.3,5.7,0.8c1.7,0.6,3.2,1.2,4.4,2l-1.9,4.5
				c-1-0.7-2.1-1.3-3.5-1.9c-1.4-0.6-2.9-0.9-4.6-0.9c-1.7,0-3.3,0.3-4.8,1c-1.5,0.7-2.9,1.6-4,2.9c-1.2,1.2-2.1,2.6-2.7,4.3
				c-0.7,1.6-1,3.4-1,5.3c0,1.9,0.3,3.6,0.9,5.3c0.6,1.6,1.5,3.1,2.6,4.3c1.1,1.2,2.5,2.2,4,2.8c1.6,0.7,3.4,1,5.3,1
				c1.8,0,3.4-0.3,4.7-0.8c1.4-0.5,2.5-1.2,3.4-1.8l2,4.2C450.7,473.3,449.9,473.7,448.9,474.2z"/>
		</g>
	</g>
	<g>
		<g>
			<path class="st1" d="M464.9,141.9v127.3h127.3V141.9H464.9z M502.1,220.1l-3.6-9.2H485l-3.7,9.2h-4.7l15.3-36.5h0.3l15.3,36.5
				H502.1z M518,155.3h9c3.5,0,6.3,0.7,8.3,2.2c2,1.4,3,3.7,3,6.7c0,1.9-0.4,3.5-1.3,4.8c-0.8,1.4-2,2.4-3.5,3.2c0,0,0,0,0,0
				c0.1,0,0.3,0.1,0.4,0.1c1.9,0.8,3.4,1.9,4.5,3.2c1.1,1.4,1.6,3,1.6,4.9c0,1.7-0.3,3.2-0.9,4.5c-0.6,1.2-1.5,2.3-2.6,3.1
				c-1.1,0.8-2.4,1.4-3.7,1.7c-1.4,0.4-2.8,0.6-4.3,0.6H518V155.3z M532.2,245.3c-0.5,0.5-1.2,0.7-2,0.7c-0.8,0-1.5-0.2-2.1-0.7
				c-0.6-0.5-0.8-1.1-0.8-1.9c0-0.7,0.3-1.3,0.8-1.8c0.6-0.5,1.3-0.8,2.1-0.8c0.8,0,1.5,0.3,2,0.8c0.5,0.5,0.8,1.1,0.8,1.8
				C533,244.2,532.7,244.8,532.2,245.3z M540,223.3c-0.5,1.1-1,2-1.7,2.7c-0.7,0.8-1.4,1.5-2.3,2.3c-0.6,0.6-1.3,1.2-1.8,1.7
				c-0.6,0.6-1,1.2-1.4,2c-0.3,0.8-0.5,1.8-0.5,3.1v2h-4.5v-3.1c0-1.6,0.2-2.9,0.6-3.8c0.4-1,1-1.8,1.6-2.4c0.7-0.6,1.4-1.3,2.1-1.9
				c1-0.8,1.9-1.7,2.6-2.6c0.7-0.9,1.1-2.1,1.1-3.6c0-1.1-0.3-2-0.8-2.8c-0.5-0.8-1.2-1.4-2-1.9c-0.8-0.5-1.7-0.7-2.6-0.7
				c-1.1,0-2,0.2-2.8,0.7c-0.8,0.5-1.5,1.1-2.1,1.8c-0.6,0.8-1,1.6-1.3,2.5l-3.8-1.7c0.3-0.7,0.7-1.4,1.2-2.3
				c0.5-0.9,1.2-1.7,2.1-2.5c0.8-0.8,1.9-1.4,3.1-2c1.2-0.5,2.6-0.8,4.1-0.8c1.8,0,3.5,0.4,4.9,1.1c1.5,0.7,2.6,1.8,3.5,3.1
				c0.9,1.4,1.3,3,1.3,5C540.7,220.9,540.5,222.2,540,223.3z M576.4,218.8c-1,0.5-2.2,0.9-3.5,1.2c-1.3,0.3-2.8,0.5-4.4,0.5
				c-2.7,0-5.1-0.5-7.3-1.5c-2.2-0.9-4-2.2-5.6-3.8c-1.5-1.6-2.7-3.5-3.5-5.6c-0.8-2.1-1.2-4.4-1.2-6.8c0-2.6,0.4-5,1.3-7.2
				c0.8-2.2,2-4.1,3.6-5.8c1.6-1.6,3.4-2.9,5.5-3.8c2.1-0.9,4.4-1.4,7-1.4c2.1,0,4,0.3,5.7,0.8c1.7,0.6,3.2,1.2,4.4,2l-1.9,4.5
				c-1-0.7-2.1-1.3-3.5-1.9c-1.4-0.6-2.9-0.9-4.6-0.9c-1.7,0-3.3,0.3-4.8,1c-1.5,0.7-2.9,1.6-4,2.9c-1.2,1.2-2.1,2.6-2.7,4.3
				c-0.7,1.6-1,3.4-1,5.3c0,1.9,0.3,3.6,0.9,5.3c0.6,1.6,1.5,3.1,2.6,4.3s2.5,2.2,4,2.8c1.6,0.7,3.4,1,5.3,1c1.8,0,3.4-0.3,4.7-0.8
				c1.4-0.5,2.5-1.2,3.4-1.8l2,4.2C578.2,217.9,577.4,218.3,576.4,218.8z M532.2,169c0.9-1.1,1.3-2.4,1.3-3.9c0-1.9-0.6-3.2-1.7-4.1
				c-1.1-0.8-2.6-1.3-4.6-1.3h-4.6v10.8h5.3C530,170.6,531.4,170.1,532.2,169z M534.4,183.6c0.6-0.8,0.9-1.8,0.9-3
				c0-1.4-0.4-2.4-1.1-3.2c-0.7-0.8-1.7-1.3-2.8-1.7c-1.1-0.3-2.3-0.5-3.5-0.5h-5.2V186h5.5c1.3,0,2.5-0.2,3.6-0.6
				S533.7,184.4,534.4,183.6z M486.6,206.8h10.2l-5-12.8L486.6,206.8z"/>
		</g>
	</g>
	<g>
		<g>
			<path class="st1" d="M150.2,169c0.9-1.1,1.3-2.4,1.3-3.9c0-1.9-0.6-3.2-1.7-4.1c-1.1-0.8-2.6-1.3-4.6-1.3h-4.6v10.8h5.3
				C147.9,170.6,149.3,170.1,150.2,169z M152.3,183.6c0.6-0.8,0.9-1.8,0.9-3c0-1.4-0.4-2.4-1.1-3.2c-0.7-0.8-1.7-1.3-2.8-1.7
				c-1.1-0.3-2.3-0.5-3.5-0.5h-5.2V186h5.5c1.3,0,2.5-0.2,3.6-0.6C150.8,185,151.6,184.4,152.3,183.6z M104.5,206.8h10.2l-5-12.8
				L104.5,206.8z M82.8,141.9v127.3h127.3V141.9H82.8z M120,220.1l-3.6-9.2h-13.5l-3.7,9.2h-4.7l15.3-36.5h0.3l15.3,36.5H120z
				 M136,155.3h9c3.5,0,6.3,0.7,8.3,2.2c2,1.4,3,3.7,3,6.7c0,1.9-0.4,3.5-1.3,4.8c-0.8,1.4-2,2.4-3.5,3.2c0,0,0,0,0,0
				c0.1,0,0.3,0.1,0.4,0.1c1.9,0.8,3.4,1.9,4.5,3.2c1.1,1.4,1.6,3,1.6,4.9c0,1.7-0.3,3.2-0.9,4.5c-0.6,1.2-1.5,2.3-2.6,3.1
				c-1.1,0.8-2.4,1.4-3.7,1.7c-1.4,0.4-2.8,0.6-4.3,0.6H136V155.3z M150.1,245.3c-0.5,0.5-1.2,0.7-2,0.7c-0.8,0-1.5-0.2-2.1-0.7
				c-0.6-0.5-0.8-1.1-0.8-1.9c0-0.7,0.3-1.3,0.8-1.8c0.6-0.5,1.3-0.8,2.1-0.8c0.8,0,1.5,0.3,2,0.8c0.5,0.5,0.8,1.1,0.8,1.8
				C150.9,244.2,150.6,244.8,150.1,245.3z M157.9,223.3c-0.5,1.1-1,2-1.7,2.7c-0.7,0.8-1.4,1.5-2.3,2.3c-0.6,0.6-1.3,1.2-1.8,1.7
				c-0.6,0.6-1,1.2-1.4,2c-0.3,0.8-0.5,1.8-0.5,3.1v2h-4.5v-3.1c0-1.6,0.2-2.9,0.6-3.8c0.4-1,1-1.8,1.6-2.4c0.7-0.6,1.4-1.3,2.1-1.9
				c1-0.8,1.9-1.7,2.6-2.6c0.7-0.9,1.1-2.1,1.1-3.6c0-1.1-0.3-2-0.8-2.8c-0.5-0.8-1.2-1.4-2-1.9c-0.8-0.5-1.7-0.7-2.6-0.7
				c-1.1,0-2,0.2-2.8,0.7c-0.8,0.5-1.5,1.1-2.1,1.8c-0.6,0.8-1,1.6-1.3,2.5l-3.8-1.7c0.3-0.7,0.7-1.4,1.2-2.3
				c0.5-0.9,1.2-1.7,2.1-2.5c0.8-0.8,1.9-1.4,3.1-2c1.2-0.5,2.6-0.8,4.1-0.8c1.8,0,3.5,0.4,4.9,1.1c1.5,0.7,2.6,1.8,3.5,3.1
				c0.9,1.4,1.3,3,1.3,5C158.6,220.9,158.4,222.2,157.9,223.3z M194.3,218.8c-1,0.5-2.2,0.9-3.5,1.2c-1.3,0.3-2.8,0.5-4.4,0.5
				c-2.7,0-5.1-0.5-7.3-1.5c-2.2-0.9-4-2.2-5.6-3.8c-1.5-1.6-2.7-3.5-3.5-5.6c-0.8-2.1-1.2-4.4-1.2-6.8c0-2.6,0.4-5,1.3-7.2
				c0.8-2.2,2-4.1,3.6-5.8c1.6-1.6,3.4-2.9,5.5-3.8c2.1-0.9,4.4-1.4,7-1.4c2.1,0,4,0.3,5.7,0.8c1.7,0.6,3.2,1.2,4.4,2l-1.9,4.5
				c-1-0.7-2.1-1.3-3.5-1.9c-1.4-0.6-2.9-0.9-4.6-0.9c-1.7,0-3.3,0.3-4.8,1c-1.5,0.7-2.9,1.6-4,2.9c-1.2,1.2-2.1,2.6-2.7,4.3
				c-0.7,1.6-1,3.4-1,5.3c0,1.9,0.3,3.6,0.9,5.3c0.6,1.6,1.5,3.1,2.6,4.3s2.5,2.2,4,2.8c1.6,0.7,3.4,1,5.3,1c1.8,0,3.4-0.3,4.7-0.8
				c1.4-0.5,2.5-1.2,3.4-1.8l2,4.2C196.1,217.9,195.3,218.3,194.3,218.8z"/>
		</g>
	</g>
	<g>
		<g>
			<path class="st1" d="M279.8,56.3c0.6-0.8,0.9-1.8,0.9-3c0-1.4-0.4-2.4-1.1-3.2c-0.7-0.8-1.7-1.3-2.8-1.7
				c-1.1-0.3-2.3-0.5-3.5-0.5h-5.2v10.8h5.5c1.3,0,2.5-0.2,3.6-0.6S279.1,57.1,279.8,56.3z M277.7,41.7c0.9-1.1,1.3-2.4,1.3-3.9
				c0-1.9-0.6-3.2-1.7-4.1c-1.1-0.8-2.6-1.3-4.6-1.3h-4.6v10.8h5.3C275.4,43.3,276.8,42.8,277.7,41.7z M232.1,79.5h10.2l-5-12.8
				L232.1,79.5z M210.3,14.5v127.3h127.3V14.5H210.3z M247.5,92.8l-3.6-9.2h-13.5l-3.7,9.2H222l15.3-36.5h0.3l15.3,36.5H247.5z
				 M263.5,28h9c3.5,0,6.3,0.7,8.3,2.2c2,1.4,3,3.7,3,6.7c0,1.9-0.4,3.5-1.3,4.8c-0.8,1.4-2,2.4-3.5,3.2c0,0,0,0,0,0
				c0.1,0,0.3,0.1,0.4,0.1c1.9,0.8,3.4,1.9,4.5,3.2c1.1,1.4,1.6,3,1.6,4.9c0,1.7-0.3,3.2-0.9,4.5c-0.6,1.2-1.5,2.3-2.6,3.1
				c-1.1,0.8-2.4,1.4-3.7,1.7c-1.4,0.4-2.8,0.6-4.3,0.6h-10.4V28z M277.6,117.9c-0.5,0.5-1.2,0.7-2,0.7c-0.8,0-1.5-0.2-2.1-0.7
				c-0.6-0.5-0.8-1.1-0.8-1.9c0-0.7,0.3-1.3,0.8-1.8c0.6-0.5,1.3-0.8,2.1-0.8c0.8,0,1.5,0.3,2,0.8c0.5,0.5,0.8,1.1,0.8,1.8
				C278.4,116.8,278.1,117.5,277.6,117.9z M285.4,96c-0.5,1.1-1,2-1.7,2.7c-0.7,0.8-1.4,1.5-2.3,2.3c-0.6,0.6-1.3,1.2-1.8,1.7
				c-0.6,0.6-1,1.2-1.4,2c-0.3,0.8-0.5,1.8-0.5,3.1v2h-4.5v-3.1c0-1.6,0.2-2.9,0.6-3.8c0.4-1,1-1.8,1.6-2.4c0.7-0.6,1.4-1.3,2.1-1.9
				c1-0.8,1.9-1.7,2.6-2.6c0.7-0.9,1.1-2.1,1.1-3.6c0-1.1-0.3-2-0.8-2.8c-0.5-0.8-1.2-1.4-2-1.9c-0.8-0.5-1.7-0.7-2.6-0.7
				c-1.1,0-2,0.2-2.8,0.7c-0.8,0.5-1.5,1.1-2.1,1.8c-0.6,0.8-1,1.6-1.3,2.5l-3.8-1.7c0.3-0.7,0.7-1.4,1.2-2.3
				c0.5-0.9,1.2-1.7,2.1-2.5c0.8-0.8,1.9-1.4,3.1-2c1.2-0.5,2.6-0.8,4.1-0.8c1.8,0,3.5,0.4,4.9,1.1c1.5,0.7,2.6,1.8,3.5,3.1
				c0.9,1.4,1.3,3,1.3,5C286.1,93.6,285.9,94.9,285.4,96z M321.8,91.5c-1,0.5-2.2,0.9-3.5,1.2c-1.3,0.3-2.8,0.5-4.4,0.5
				c-2.7,0-5.1-0.5-7.3-1.5c-2.2-0.9-4-2.2-5.6-3.8c-1.5-1.6-2.7-3.5-3.5-5.6c-0.8-2.1-1.2-4.4-1.2-6.8c0-2.6,0.4-5,1.3-7.2
				c0.8-2.2,2-4.1,3.6-5.8c1.6-1.6,3.4-2.9,5.5-3.8c2.1-0.9,4.4-1.4,7-1.4c2.1,0,4,0.3,5.7,0.8c1.7,0.6,3.2,1.2,4.4,2l-1.9,4.5
				c-1-0.7-2.1-1.3-3.5-1.9c-1.4-0.6-2.9-0.9-4.6-0.9c-1.7,0-3.3,0.3-4.8,1c-1.5,0.7-2.9,1.6-4,2.9c-1.2,1.2-2.1,2.6-2.7,4.3
				c-0.7,1.6-1,3.4-1,5.3c0,1.9,0.3,3.6,0.9,5.3c0.6,1.6,1.5,3.1,2.6,4.3c1.1,1.2,2.5,2.2,4,2.8c1.6,0.7,3.4,1,5.3,1
				c1.8,0,3.4-0.3,4.7-0.8c1.4-0.5,2.5-1.2,3.4-1.8l2,4.2C323.6,90.5,322.8,91,321.8,91.5z"/>
		</g>
	</g>
	<g>
		<g>
			<path class="st2" d="M210.3,397.3v127.3h127.3V397.3H210.3z M277.1,494.2c-1.2,1.1-2.8,1.7-4.8,1.7c-2,0-3.6-0.6-5-1.7
				c-1.3-1.1-2-2.6-2-4.5c0-1.7,0.7-3.1,2-4.4c1.3-1.2,3-1.8,5-1.8c1.9,0,3.5,0.6,4.8,1.8c1.3,1.2,1.9,2.7,1.9,4.4
				C278.9,491.6,278.3,493.1,277.1,494.2z M295.6,442.3c-1.1,2.5-2.4,4.7-4.1,6.5c-1.6,1.8-3.4,3.6-5.3,5.3c-1.5,1.4-3,2.7-4.4,4.1
				c-1.4,1.3-2.4,2.9-3.2,4.8c-0.8,1.9-1.1,4.3-1.1,7.4v4.8h-10.7v-7.2c0-3.7,0.5-6.7,1.5-9c1-2.3,2.3-4.1,3.8-5.7
				c1.6-1.5,3.2-3,5-4.5c2.4-2,4.4-4.1,6.1-6.2c1.7-2.2,2.6-5,2.6-8.5c0-2.5-0.6-4.7-1.8-6.6c-1.2-1.9-2.7-3.3-4.7-4.4
				c-1.9-1.1-4-1.6-6.1-1.6c-2.5,0-4.7,0.5-6.6,1.6c-1.9,1.1-3.5,2.5-4.9,4.3c-1.3,1.8-2.4,3.8-3.2,5.9l-8.9-4.1
				c0.6-1.6,1.5-3.4,2.8-5.4c1.3-2,2.9-4,4.9-5.8c2-1.9,4.4-3.4,7.2-4.6c2.8-1.2,6.1-1.8,9.7-1.8c4.4,0,8.2,0.8,11.7,2.5
				c3.4,1.7,6.2,4.1,8.2,7.4c2,3.2,3,7.2,3,11.9C297.2,436.7,296.6,439.8,295.6,442.3z"/>
		</g>
	</g>
	<g>
		<g>
			<path class="st2" d="M464.9,397.3v127.3h127.3V397.3H464.9z M531.7,494.2c-1.2,1.1-2.8,1.7-4.8,1.7c-2,0-3.6-0.6-5-1.7
				c-1.3-1.1-2-2.6-2-4.5c0-1.7,0.7-3.1,2-4.4c1.3-1.2,3-1.8,5-1.8c1.9,0,3.5,0.6,4.8,1.8c1.3,1.2,1.9,2.7,1.9,4.4
				C533.6,491.6,533,493.1,531.7,494.2z M550.2,442.3c-1.1,2.5-2.4,4.7-4.1,6.5c-1.6,1.8-3.4,3.6-5.3,5.3c-1.5,1.4-3,2.7-4.4,4.1
				c-1.4,1.3-2.4,2.9-3.2,4.8c-0.8,1.9-1.1,4.3-1.1,7.4v4.8h-10.7v-7.2c0-3.7,0.5-6.7,1.5-9c1-2.3,2.3-4.1,3.8-5.7
				c1.6-1.5,3.2-3,5-4.5c2.4-2,4.4-4.1,6.1-6.2c1.7-2.2,2.6-5,2.6-8.5c0-2.5-0.6-4.7-1.8-6.6c-1.2-1.9-2.7-3.3-4.7-4.4
				c-1.9-1.1-4-1.6-6.1-1.6c-2.5,0-4.7,0.5-6.6,1.6c-1.9,1.1-3.5,2.5-4.9,4.3c-1.3,1.8-2.4,3.8-3.2,5.9l-8.9-4.1
				c0.6-1.6,1.5-3.4,2.8-5.4c1.3-2,2.9-4,4.9-5.8c2-1.9,4.4-3.4,7.2-4.6c2.8-1.2,6.1-1.8,9.7-1.8c4.4,0,8.2,0.8,11.7,2.5
				c3.4,1.7,6.2,4.1,8.2,7.4c2,3.2,3,7.2,3,11.9C551.8,436.7,551.3,439.8,550.2,442.3z"/>
		</g>
	</g>
	<g>
		<g>
			<path class="st2" d="M337.4,141.9v127.3h127.3V141.9H337.4z M404.2,238.8c-1.2,1.1-2.8,1.7-4.8,1.7c-2,0-3.6-0.6-5-1.7
				c-1.3-1.1-2-2.6-2-4.5c0-1.7,0.7-3.1,2-4.4c1.3-1.2,3-1.8,5-1.8c1.9,0,3.5,0.6,4.8,1.8c1.3,1.2,1.9,2.7,1.9,4.4
				C406.1,236.2,405.4,237.7,404.2,238.8z M422.7,186.9c-1.1,2.5-2.4,4.7-4.1,6.5c-1.6,1.8-3.4,3.6-5.3,5.3c-1.5,1.4-3,2.7-4.4,4.1
				c-1.4,1.3-2.4,2.9-3.2,4.8c-0.8,1.9-1.1,4.3-1.1,7.4v4.8h-10.7v-7.2c0-3.7,0.5-6.7,1.5-9c1-2.3,2.3-4.1,3.8-5.7
				c1.6-1.5,3.2-3,5-4.5c2.4-2,4.4-4.1,6.1-6.2c1.7-2.2,2.6-5,2.6-8.5c0-2.5-0.6-4.7-1.8-6.6c-1.2-1.9-2.7-3.3-4.7-4.4
				c-1.9-1.1-4-1.6-6.1-1.6c-2.5,0-4.7,0.5-6.6,1.6c-1.9,1.1-3.5,2.5-4.9,4.3c-1.3,1.8-2.4,3.8-3.2,5.9l-8.9-4.1
				c0.6-1.6,1.5-3.4,2.8-5.4c1.3-2,2.9-4,4.9-5.8c2-1.9,4.4-3.4,7.2-4.6c2.8-1.2,6.1-1.8,9.7-1.8c4.4,0,8.2,0.8,11.7,2.5
				c3.4,1.7,6.2,4.1,8.2,7.4c2,3.2,3,7.2,3,11.9C424.3,181.3,423.7,184.3,422.7,186.9z"/>
		</g>
	</g>
	<g>
		<g>
			<path class="st2" d="M592,141.9v127.3h127.3V141.9H592z M658.9,238.8c-1.2,1.1-2.8,1.7-4.8,1.7c-2,0-3.6-0.6-5-1.7
				c-1.3-1.1-2-2.6-2-4.5c0-1.7,0.7-3.1,2-4.4c1.3-1.2,3-1.8,5-1.8c1.9,0,3.5,0.6,4.8,1.8c1.3,1.2,1.9,2.7,1.9,4.4
				C660.7,236.2,660.1,237.7,658.9,238.8z M677.3,186.9c-1.1,2.5-2.4,4.7-4.1,6.5c-1.6,1.8-3.4,3.6-5.3,5.3c-1.5,1.4-3,2.7-4.4,4.1
				c-1.4,1.3-2.4,2.9-3.2,4.8c-0.8,1.9-1.1,4.3-1.1,7.4v4.8h-10.7v-7.2c0-3.7,0.5-6.7,1.5-9c1-2.3,2.3-4.1,3.8-5.7
				c1.6-1.5,3.2-3,5-4.5c2.4-2,4.4-4.1,6.1-6.2c1.7-2.2,2.6-5,2.6-8.5c0-2.5-0.6-4.7-1.8-6.6c-1.2-1.9-2.7-3.3-4.7-4.4
				c-1.9-1.1-4-1.6-6.1-1.6c-2.5,0-4.7,0.5-6.6,1.6c-1.9,1.1-3.5,2.5-4.9,4.3c-1.3,1.8-2.4,3.8-3.2,5.9l-8.9-4.1
				c0.6-1.6,1.5-3.4,2.8-5.4c1.3-2,2.9-4,4.9-5.8c2-1.9,4.4-3.4,7.2-4.6c2.8-1.2,6.1-1.8,9.7-1.8c4.4,0,8.2,0.8,11.7,2.5
				c3.4,1.7,6.2,4.1,8.2,7.4c2,3.2,3,7.2,3,11.9C678.9,181.3,678.4,184.3,677.3,186.9z"/>
		</g>
	</g>
	<g>
		<g>
			<path class="st3" d="M153.5,443.1c0-13.6-10.9-24.6-24.5-24.6c-13.5,0-24.5,10.9-24.5,24.3c0,13.8,10.8,24.7,24.5,24.7
				C142.5,467.6,153.5,456.6,153.5,443.1z M137.7,441.9c-2.6,2.6-5.2,5.2-7.8,7.8c-1.7,1.7-3.5,1.7-5.2,0c-1.9-1.9-3.9-3.8-5.8-5.7
				c1.6-1.6,3.1-3.1,4.6-4.8c1.2,1.3,2.4,2.6,3.7,4c2.5-2.5,4.7-4.8,6.9-6.9c1.6,1.5,3.1,2.9,5,4.6
				C138.6,441.3,138.1,441.6,137.7,441.9z M158.1,455.6c-0.4,0.1-0.8,0.5-1,0.9c-3.2,6.5-8.1,11.3-14.6,14.6
				c-0.4,0.2-0.8,0.7-0.9,1.1c-1,3.4-1.3,6.8-0.7,10.3c2.1,13.8,15,23,28.7,20.5c11.7-2.1,20.2-12.3,20.2-24.7
				c-0.1-0.7-0.2-2-0.3-3.3C187.2,460.7,172,451.2,158.1,455.6z M169.1,487.8c-1.2-1.3-2.6-2.8-3.9-4.2c-1.5,1.6-2.8,3-4.1,4.3
				c-1.7-1.7-3.2-3.3-4.7-4.8c1.2-1.1,2.6-2.5,4.1-4c-1.6-1.5-3-2.8-4.3-4c1.6-1.6,3.1-3.1,4.7-4.7c1.2,1.3,2.6,2.7,3.9,4.2
				c1.5-1.6,2.8-3,4.1-4.2c1.7,1.6,3.2,3.1,4.7,4.7c-1.3,1.2-2.7,2.5-4.1,3.9c1.6,1.5,3,2.8,4.4,4.1
				C172.2,484.8,170.7,486.2,169.1,487.8z M83.2,397.3v127.3h127.3V397.3H83.2z M195.9,482.7c-2.1,16.7-16.3,27.9-31.7,27.4
				c-9.4-0.3-17.2-4.1-23.2-11.3c-6-7.2-8.1-15.6-6.7-25c-11.3,1.5-21-1.6-28.7-10c-6-6.5-8.6-14.4-8-23.2c1.2-17,15.6-29.7,32.3-29
				c9.4,0.4,17.2,4.2,23.2,11.5c6,7.3,8,15.7,6.6,25.1c12.3-1.5,22.6,2.3,30.2,12.2C194.9,467,196.9,474.5,195.9,482.7z"/>
		</g>
	</g>
	<g>
		<g>
			<path class="st3" d="M535.2,570.5c0-13.6-10.9-24.6-24.5-24.6c-13.5,0-24.5,10.9-24.5,24.3c0,13.8,10.8,24.7,24.5,24.7
				C524.2,594.9,535.2,584,535.2,570.5z M519.5,569.3c-2.6,2.6-5.2,5.2-7.8,7.8c-1.7,1.7-3.5,1.7-5.2,0c-1.9-1.9-3.9-3.8-5.8-5.7
				c1.6-1.6,3.1-3.1,4.6-4.8c1.2,1.3,2.4,2.6,3.7,4c2.5-2.5,4.7-4.8,6.9-6.9c1.6,1.5,3.1,2.9,5,4.6
				C520.4,568.7,519.9,568.9,519.5,569.3z M539.8,583c-0.4,0.1-0.8,0.5-1,0.9c-3.2,6.5-8.1,11.3-14.6,14.6c-0.4,0.2-0.8,0.7-0.9,1.1
				c-1,3.4-1.3,6.8-0.7,10.3c2.1,13.8,15,23,28.7,20.5c11.7-2.1,20.2-12.3,20.2-24.7c-0.1-0.7-0.2-2-0.3-3.3
				C569,588.1,553.8,578.5,539.8,583z M550.9,615.2c-1.2-1.3-2.6-2.8-3.9-4.2c-1.5,1.6-2.8,3-4.1,4.3c-1.7-1.7-3.2-3.3-4.7-4.8
				c1.2-1.1,2.6-2.5,4.1-4c-1.6-1.5-3-2.8-4.3-4c1.6-1.6,3.1-3.1,4.7-4.7c1.2,1.3,2.6,2.7,3.9,4.2c1.5-1.6,2.8-3,4.1-4.2
				c1.7,1.6,3.2,3.1,4.8,4.7c-1.3,1.2-2.7,2.5-4.1,3.9c1.6,1.5,3,2.8,4.4,4.1C553.9,612.1,552.4,613.6,550.9,615.2z M464.9,524.6
				V652h127.3V524.6H464.9z M577.6,610.1c-2.1,16.7-16.3,27.9-31.7,27.4c-9.4-0.3-17.2-4.1-23.2-11.3c-6-7.2-8.1-15.6-6.7-25
				c-11.3,1.5-21-1.6-28.7-10c-6-6.5-8.6-14.4-8-23.2c1.2-17,15.6-29.7,32.3-29c9.4,0.4,17.2,4.2,23.2,11.5c6,7.3,8,15.7,6.6,25.1
				c12.3-1.5,22.6,2.3,30.2,12.2C576.7,594.3,578.7,601.9,577.6,610.1z"/>
		</g>
	</g>
	<g>
		<g>
			<path class="st3" d="M464.9,269.4v127.3h127.3V269.4H464.9z M577.6,354.8c-2.1,16.7-16.3,27.9-31.7,27.4
				c-9.4-0.3-17.2-4.1-23.2-11.3c-6-7.2-8.1-15.6-6.7-25c-11.3,1.5-21-1.6-28.7-10c-6-6.5-8.6-14.4-8-23.2c1.2-17,15.6-29.7,32.3-29
				c9.4,0.4,17.2,4.2,23.2,11.5c6,7.3,8,15.7,6.6,25.1c12.3-1.5,22.6,2.3,30.2,12.2C576.7,339.1,578.7,346.6,577.6,354.8z
				 M539.8,327.7c-0.4,0.1-0.8,0.5-1,0.9c-3.2,6.5-8.1,11.3-14.6,14.6c-0.4,0.2-0.8,0.7-0.9,1.1c-1,3.4-1.3,6.8-0.7,10.3
				c2.1,13.8,15,23,28.7,20.5c11.7-2.1,20.2-12.3,20.2-24.7c-0.1-0.7-0.2-2-0.3-3.3C569,332.8,553.8,323.3,539.8,327.7z
				 M550.9,359.9c-1.2-1.3-2.6-2.8-3.9-4.2c-1.5,1.6-2.8,3-4.1,4.3c-1.7-1.7-3.2-3.3-4.7-4.8c1.2-1.1,2.6-2.5,4.1-4
				c-1.6-1.5-3-2.8-4.3-4c1.6-1.6,3.1-3.1,4.7-4.7c1.2,1.3,2.6,2.7,3.9,4.2c1.5-1.6,2.8-3,4.1-4.2c1.7,1.6,3.2,3.1,4.8,4.7
				c-1.3,1.2-2.7,2.5-4.1,3.9c1.6,1.5,3,2.8,4.4,4.1C553.9,356.8,552.4,358.3,550.9,359.9z M535.2,315.2c0-13.6-10.9-24.6-24.5-24.6
				c-13.5,0-24.5,10.9-24.5,24.3c0,13.8,10.8,24.7,24.5,24.7C524.2,339.6,535.2,328.7,535.2,315.2z M519.5,314
				c-2.6,2.6-5.2,5.2-7.8,7.8c-1.7,1.7-3.5,1.7-5.2,0c-1.9-1.9-3.9-3.8-5.8-5.7c1.6-1.6,3.1-3.1,4.6-4.8c1.2,1.3,2.4,2.6,3.7,4
				c2.5-2.5,4.7-4.8,6.9-6.9c1.6,1.5,3.1,2.9,5,4.6C520.4,313.4,519.9,313.6,519.5,314z"/>
		</g>
	</g>
	<g>
		<g>
			<path class="st3" d="M285.2,200.2c-0.4,0.1-0.8,0.5-1,0.9c-3.2,6.5-8.1,11.3-14.6,14.6c-0.4,0.2-0.8,0.7-0.9,1.1
				c-1,3.4-1.3,6.8-0.7,10.3c2.1,13.8,15,23,28.7,20.5c11.7-2.1,20.2-12.3,20.2-24.7c-0.1-0.7-0.2-2-0.3-3.3
				C314.4,205.3,299.1,195.8,285.2,200.2z M296.2,232.4c-1.2-1.3-2.6-2.8-3.9-4.2c-1.5,1.6-2.8,3-4.1,4.3c-1.7-1.7-3.2-3.3-4.7-4.8
				c1.2-1.1,2.6-2.5,4.1-4c-1.6-1.5-3-2.8-4.3-4c1.6-1.6,3.1-3.1,4.7-4.7c1.2,1.3,2.6,2.7,3.9,4.2c1.5-1.6,2.8-3,4.1-4.2
				c1.7,1.6,3.2,3.1,4.7,4.7c-1.3,1.2-2.7,2.5-4.1,3.9c1.6,1.5,3,2.8,4.4,4.1C299.3,229.3,297.8,230.8,296.2,232.4z M280.6,187.7
				c0-13.6-10.9-24.6-24.5-24.6c-13.5,0-24.5,10.9-24.5,24.3c0,13.8,10.8,24.7,24.5,24.7C269.6,212.1,280.6,201.2,280.6,187.7z
				 M264.9,186.5c-2.6,2.6-5.2,5.2-7.8,7.8c-1.7,1.7-3.5,1.7-5.2,0c-1.9-1.9-3.9-3.8-5.8-5.7c1.6-1.6,3.1-3.1,4.6-4.8
				c1.2,1.3,2.4,2.6,3.7,4c2.5-2.5,4.7-4.8,6.9-6.9c1.6,1.5,3.1,2.9,5,4.6C265.7,185.9,265.2,186.1,264.9,186.5z M210.3,141.9v127.3
				h127.3V141.9H210.3z M323,227.3c-2.1,16.7-16.3,27.9-31.7,27.4c-9.4-0.3-17.2-4.1-23.2-11.3c-6-7.2-8.1-15.6-6.7-25
				c-11.3,1.5-21-1.6-28.7-10c-6-6.5-8.6-14.4-8-23.2c1.2-17,15.6-29.7,32.3-29c9.4,0.4,17.2,4.2,23.2,11.5c6,7.3,8,15.7,6.6,25.1
				c12.3-1.5,22.6,2.3,30.2,12.2C322,211.5,324,219.1,323,227.3z"/>
		</g>
	</g>
</g>
<polygon points="122.8,733 144.4,668.1 168.1,733 "/>
<g>
	<g>
		<path d="M112.6,749.5c0.9,0,1.7,0.2,2.3,0.5c0.6,0.3,1.2,0.8,1.5,1.3c0.4,0.6,0.5,1.3,0.5,2.1c0,0.5-0.1,1-0.2,1.5
			c-0.2,0.5-0.4,0.9-0.7,1.3s-0.8,0.7-1.3,0.9c-0.5,0.2-1.2,0.4-1.9,0.4h-1.9v4.6h-1.7v-12.6H112.6z M112.7,755.8
			c0.5,0,0.9-0.1,1.2-0.2c0.3-0.2,0.6-0.4,0.8-0.6s0.3-0.5,0.4-0.8s0.1-0.5,0.1-0.7c0-0.3,0-0.5-0.1-0.8c-0.1-0.3-0.2-0.5-0.4-0.7
			s-0.4-0.4-0.7-0.6c-0.3-0.1-0.7-0.2-1.1-0.2h-1.9v4.7H112.7z"/>
		<path d="M118.8,762l5.5-13.1h0.1l5.5,13.1h-1.9l-4.1-10.5l1.2-0.8l-4.6,11.2H118.8z M122,757.3h4.7l0.6,1.5h-5.7L122,757.3z"/>
		<path d="M136.1,749.5c0.6,0,1.2,0.1,1.8,0.3c0.5,0.2,1,0.4,1.4,0.7s0.7,0.7,0.9,1.2c0.2,0.5,0.3,1,0.3,1.7c0,0.5-0.1,1-0.2,1.5
			c-0.1,0.5-0.4,0.9-0.7,1.3c-0.3,0.4-0.8,0.7-1.3,0.9c-0.5,0.2-1.2,0.4-2,0.4h-1.9v4.6h-1.7v-12.6H136.1z M136.2,755.8
			c0.5,0,0.9-0.1,1.2-0.2c0.3-0.2,0.6-0.3,0.8-0.6c0.2-0.2,0.3-0.5,0.4-0.8c0.1-0.3,0.1-0.5,0.1-0.8s0-0.5-0.1-0.8s-0.2-0.5-0.4-0.8
			c-0.2-0.2-0.4-0.4-0.7-0.6c-0.3-0.2-0.7-0.2-1.1-0.2h-1.9v4.7H136.2z M138.3,756.7l3.3,5.3h-1.9l-3.4-5.2L138.3,756.7z"/>
		<path d="M143.7,749.5h8.4v1.6h-3.4v11h-1.7v-11h-3.3V749.5z"/>
		<path d="M155.3,749.5h1.7V762h-1.7V749.5z"/>
		<path d="M161.1,762v-12.6h3.4c1.3,0,2.3,0.2,3.2,0.6c0.9,0.4,1.6,0.9,2.1,1.5c0.5,0.6,0.9,1.3,1.2,2.1c0.2,0.8,0.4,1.5,0.4,2.3
			c0,1-0.2,1.8-0.5,2.6c-0.3,0.8-0.8,1.4-1.4,1.9c-0.6,0.5-1.2,0.9-2,1.2c-0.7,0.3-1.5,0.4-2.4,0.4H161.1z M162.8,760.4h2
			c0.7,0,1.3-0.1,1.9-0.3c0.6-0.2,1.1-0.5,1.5-0.9c0.4-0.4,0.8-0.9,1-1.5c0.2-0.6,0.4-1.2,0.4-2c0-0.8-0.1-1.4-0.4-2
			c-0.3-0.6-0.6-1.1-1-1.5c-0.4-0.4-0.9-0.7-1.5-0.9s-1.1-0.3-1.7-0.3h-2.2V760.4z"/>
		<path d="M173.4,762l5.5-13.1h0.1l5.5,13.1h-1.9l-4.1-10.5l1.2-0.8l-4.6,11.2H173.4z M176.6,757.3h4.7l0.6,1.5h-5.7L176.6,757.3z"
			/>
	</g>
</g>
</svg>
