<?xml version="1.0" encoding="utf-8"?>
<!-- Generator: Adobe Illustrator 25.4.1, SVG Export Plug-In . SVG Version: 6.00 Build 0)  -->
<svg version="1.1" id="Camada_1" xmlns="http://www.w3.org/2000/svg" xmlns:xlink="http://www.w3.org/1999/xlink" x="0px" y="0px"
	 viewBox="0 0 430 403" style="enable-background:new 0 0 430 403;" xml:space="preserve">
<style type="text/css">
	.st0{fill:#931614;}
	.st1{fill:#E63020;}
	.st2{fill:#FFFFFF;}
</style>
<g>
	<g>
		<rect x="40.3" y="41.9" class="st0" width="348.7" height="348.7"/>
		<rect x="48.6" y="32.4" class="st1" width="348.7" height="348.7"/>
	</g>
	<g>
		<circle class="st2" cx="218.7" cy="211.5" r="149.9"/>
	</g>
	<g>
		<path class="st0" d="M279.1,151.5c0-9.3,0-18.4,0-27.7c-37,0-73.8,0-110.7,0c0,9.2,0,18.2,0,27.6c-12,0-23.8,0-35.6,0
			c0,15.7,0,31.5,0,47.2c3.9,0,7.8,0,11.8,0c0,4.2,0,8,0,12c4,0,7.8,0,11.8,0c0,4,0,7.8,0,11.8c4,0,7.8,0,11.8,0c0,4.1,0,7.9,0,12
			c4,0,7.9,0,11.9,0c0,4,0,7.8,0,11.8c4,0,7.8,0,11.9,0c0,4,0,7.9,0,11.9c4,0,7.9,0,11.7,0c0,4,0,7.8,0,11.8c-7.8,0-15.5,0-23.5,0
			c0,4,0,7.9,0,11.9c-4.1,0-7.9,0-12,0c0,8,0,15.9,0,23.7c36.9,0,73.9,0,110.8,0c0-7.8,0-15.6,0-23.7c-4,0-7.9,0-11.9,0
			c0-4,0-7.9,0-11.8c-7.9,0-15.7,0-23.5,0c0-4,0-7.9,0-11.9c3.8,0,7.6,0,11.6,0c0-4,0-7.9,0-11.9c4,0,7.9,0,11.9,0c0-4,0-7.8,0-11.8
			c4,0,7.8,0,11.9,0c0-4.1,0-7.9,0-11.9c4,0,7.8,0,11.7,0c0-3.9,0-7.7,0-11.8c4.1,0,7.9,0,12,0c0-4,0-7.9,0-11.9c4,0,7.8,0,11.8,0
			c0-15.9,0-31.5,0-47.4C302.8,151.5,291,151.5,279.1,151.5z M168.2,198.7c-3.9,0-7.7,0-11.7,0c0-3.9,0-7.7,0-11.7
			c-4,0-7.8,0-11.8,0c0-6.6,0-13.1,0-19.7c7.8,0,15.5,0,23.4,0C168.2,177.8,168.2,188.2,168.2,198.7z M223.6,189.5
			c-15,0-27.1-12.1-27.1-27.1c0-15,12.1-27.1,27.1-27.1c15,0,27.1,12.1,27.1,27.1C250.7,177.4,238.6,189.5,223.6,189.5z
			 M302.7,186.9c-4,0-7.8,0-11.9,0c0,4,0,7.9,0,11.8c-4,0-7.8,0-11.7,0c0-10.4,0-20.9,0-31.5c4.6,0,9.1,0,13.6,0c2.8,0,5.7,0,8.5,0
			c0.5,0,1.4,0.6,1.4,0.9C302.7,174.4,302.7,180.6,302.7,186.9z"/>
		<ellipse class="st2" cx="212.6" cy="158.1" rx="38.9" ry="34"/>
		<g>
			<g>
				<g>
					<g>
						<path class="st1" d="M213.8,132.3c-12.9,0-23.4,10.5-23.4,23.4c0,12.9,10.5,23.4,23.4,23.4s23.4-10.5,23.4-23.4
							C237.2,142.8,226.8,132.3,213.8,132.3z M213.6,175c-10.5,0-19.1-8.5-19.1-19.1s8.5-19.1,19.1-19.1c10.5,0,19.1,8.5,19.1,19.1
							S224.1,175,213.6,175z"/>
					</g>
				</g>
			</g>
			<g>
				<path class="st1" d="M226.1,159.1c0.2-1.5,0.6-5.2-1.3-9.1c-3.2-6.5-10-7.3-11-7.5c-7.7,1.8-12.8,7.1-12.8,13.6
					c0,4.6,2.7,10.7,8.3,12.4c3,0.9,7.5,1.2,9.5-1.3c0.9-1.1,1.4-3,1.1-4.6c-0.1-0.7-0.4-1.1-0.6-1.4c-0.6-0.6-1.7-0.9-2.5-0.4
					c-0.1,0-0.6,0.4-0.8,1.1c0,0.2-0.1,0.5,0,0.7c0.2,0.5,1,0.7,1.5,0.4c0.4-0.2,0.4-0.7,0.5-0.7c0.2,0,0.4,1.2,0,2.2
					c-0.5,1.5-1.9,2.1-2,2.1c-1.4,0.6-2.9,0.1-3.8-0.4c-1.8-1.2-2.5-4.2-1.4-7.2L226.1,159.1z M218.9,145.9c0.1,0,0.3,0.1,0.3,0.2
					c0,0.1-0.1,0.2-0.2,0.2c-0.1,0-0.2-0.1-0.2-0.2C218.7,146,218.8,145.9,218.9,145.9z M221.8,148.7c1,0.9,1.6,2.2,1.6,3.6
					c0,2.7-2.2,4.8-4.8,4.8c-2.7,0-4.8-2.2-4.8-4.8s2.2-4.8,4.8-4.8c0.8,0,1.6,0.2,2.3,0.6 M217.1,144.5c0.1,0,0.3,0.1,0.3,0.3
					c0,0.2-0.1,0.3-0.3,0.3c-0.1,0-0.3-0.1-0.3-0.3C216.9,144.6,217,144.5,217.1,144.5z M215.5,145.3c0.5,0,0.9,0.4,0.9,0.9
					c0,0.6-0.4,1-0.9,1c-0.5,0-0.9-0.4-0.9-1C214.6,145.7,215,145.3,215.5,145.3z M210.7,144.5c0.3-0.5,0.9-0.8,1.5-1
					c0.5-0.1,1-0.1,1.5,0.1c0.7,0.3,1,1,0.5,1.7c-0.3,0.5-0.8,0.7-1.3,0.9c-0.5,0.1-1.1,0.2-1.6,0
					C210.5,145.8,210.2,145.1,210.7,144.5z M203.9,155.7c-0.2,0-0.4-0.2-0.4-0.3c0-0.2,0.2-0.4,0.4-0.3c0.2,0,0.4,0.2,0.4,0.4
					C204.3,155.6,204.2,155.7,203.9,155.7z M205.2,153.8c-0.1,0.2-0.4,0.2-0.5,0c-0.2-0.2-0.2-0.7,0-0.9c0.1-0.2,0.3-0.2,0.5,0
					c0.1,0.1,0.1,0.3,0.1,0.5C205.3,153.5,205.3,153.6,205.2,153.8z M205,151.7c-0.6,0-1.1-0.5-1.1-1.1c0-0.6,0.5-1.1,1.1-1.1
					c0.6,0,1.1,0.5,1.1,1.1C206.1,151.2,205.6,151.7,205,151.7z M206.7,149.2c-1-0.3-1.2-1.3-0.5-2.1c0.4-0.5,1.1-0.7,1.7-0.7
					c0.4,0,0.8,0.1,1.1,0.3c0.5,0.3,0.6,0.9,0.4,1.4c-0.2,0.5-0.6,0.8-1.1,1C207.8,149.3,207.3,149.4,206.7,149.2z M208.4,152.5
					c-0.5,0.1-0.8-0.2-0.8-0.7c0-0.6,0.5-1.3,1.1-1.4c0.4-0.1,0.8,0.1,0.9,0.6C209.6,151.6,209,152.4,208.4,152.5z M210,148.8
					c0.1-0.7,0.6-1.3,1.3-1.5c0.6-0.1,1.1,0.3,1.1,1c0,0.8-0.8,1.5-1.6,1.5C210.4,149.8,210,149.3,210,148.8z"/>
				<path class="st1" d="M220.6,148.3"/>
				<path class="st1" d="M220.9,148c-0.5,0-0.8,0.4-0.8,0.9c0,0.5,0.4,0.9,0.9,0.9c0.5,0,0.9-0.4,0.9-0.9c0-0.1,0-0.2,0-0.3"/>
			</g>
		</g>
		<path class="st1" d="M269.3,145c0-9.3,0-18.4,0-27.7c-37,0-73.8,0-110.7,0c0,9.2,0,18.2,0,27.6c-12,0-23.8,0-35.6,0
			c0,15.7,0,31.5,0,47.2c3.9,0,7.8,0,11.8,0c0,4.2,0,8,0,12c4,0,7.8,0,11.8,0c0,4,0,7.8,0,11.8c4,0,7.8,0,11.8,0c0,4.1,0,7.9,0,12
			c4,0,7.9,0,11.9,0c0,4,0,7.8,0,11.8c4,0,7.8,0,11.9,0c0,4,0,7.9,0,11.9c4,0,7.9,0,11.7,0c0,4,0,7.8,0,11.8c-7.8,0-15.5,0-23.5,0
			c0,4,0,7.9,0,11.9c-4.1,0-7.9,0-12,0c0,8,0,15.9,0,23.7c36.9,0,73.9,0,110.8,0c0-7.8,0-15.6,0-23.7c-4,0-7.9,0-11.9,0
			c0-4,0-7.9,0-11.8c-7.9,0-15.7,0-23.5,0c0-4,0-7.9,0-11.9c3.8,0,7.6,0,11.6,0c0-4,0-7.9,0-11.9c4,0,7.9,0,11.9,0c0-4,0-7.8,0-11.8
			c4,0,7.8,0,11.9,0c0-4.1,0-7.9,0-11.9c4,0,7.8,0,11.7,0c0-3.9,0-7.7,0-11.8c4.1,0,7.9,0,12,0c0-4,0-7.9,0-11.9c4,0,7.8,0,11.8,0
			c0-15.9,0-31.5,0-47.4C293,145,281.3,145,269.3,145z M158.4,192.2c-3.9,0-7.7,0-11.7,0c0-3.9,0-7.7,0-11.7c-4,0-7.8,0-11.8,0
			c0-6.6,0-13.1,0-19.7c7.8,0,15.5,0,23.4,0C158.4,171.3,158.4,181.7,158.4,192.2z M213.9,183c-15,0-27.1-12.1-27.1-27.1
			c0-15,12.1-27.1,27.1-27.1c15,0,27.1,12.1,27.1,27.1C241,170.9,228.9,183,213.9,183z M293,180.4c-4,0-7.8,0-11.9,0
			c0,4,0,7.9,0,11.8c-4,0-7.8,0-11.7,0c0-10.4,0-20.9,0-31.5c4.6,0,9.1,0,13.6,0c2.8,0,5.7,0,8.5,0c0.5,0,1.4,0.6,1.4,0.9
			C293,167.9,293,174.1,293,180.4z"/>
	</g>
</g>
</svg>
