<?xml version="1.0" encoding="utf-8"?>
<!-- Generator: Adobe Illustrator 25.4.1, SVG Export Plug-In . SVG Version: 6.00 Build 0)  -->
<svg version="1.1" id="Camada_1" xmlns="http://www.w3.org/2000/svg" xmlns:xlink="http://www.w3.org/1999/xlink" x="0px" y="0px"
	 viewBox="0 0 430 403" style="enable-background:new 0 0 430 403;" xml:space="preserve">
<style type="text/css">
	.st0{fill:#377522;}
	.st1{fill:#4EAD33;}
	.st2{fill:#FFFFFF;}
</style>
<g>
	<g>
		<rect x="40.3" y="41.9" class="st0" width="348.7" height="348.7"/>
		<rect x="48.6" y="32.4" class="st1" width="348.7" height="348.7"/>
		<circle class="st2" cx="222.9" cy="206.7" r="149.9"/>
	</g>
	<g>
		<path class="st0" d="M282.2,152.3c0-9.3,0-18.4,0-27.7c-37,0-73.8,0-110.7,0c0,9.2,0,18.2,0,27.6c-12,0-23.8,0-35.6,0
			c0,15.7,0,31.5,0,47.2c3.9,0,7.8,0,11.8,0c0,4.2,0,8,0,12c4,0,7.8,0,11.8,0c0,4,0,7.8,0,11.8c4,0,7.8,0,11.8,0c0,4.1,0,7.9,0,12
			c4,0,7.9,0,11.9,0c0,4,0,7.8,0,11.8c4,0,7.8,0,11.9,0c0,4,0,7.9,0,11.9c4,0,7.9,0,11.7,0c0,4,0,7.8,0,11.8c-7.8,0-15.5,0-23.5,0
			c0,4,0,7.9,0,11.9c-4.1,0-7.9,0-12,0c0,8,0,15.9,0,23.7c36.9,0,73.9,0,110.8,0c0-7.8,0-15.6,0-23.7c-4,0-7.9,0-11.9,0
			c0-4,0-7.9,0-11.8c-7.9,0-15.7,0-23.5,0c0-4,0-7.9,0-11.9c3.8,0,7.6,0,11.6,0c0-4,0-7.9,0-11.9c4,0,7.9,0,11.9,0c0-4,0-7.8,0-11.8
			c4,0,7.8,0,11.9,0c0-4.1,0-7.9,0-11.9c4,0,7.8,0,11.7,0c0-3.9,0-7.7,0-11.8c4.1,0,7.9,0,12,0c0-4,0-7.9,0-11.9c4,0,7.8,0,11.8,0
			c0-15.9,0-31.5,0-47.4C305.9,152.3,294.1,152.3,282.2,152.3z M171.3,199.5c-3.9,0-7.7,0-11.7,0c0-3.9,0-7.7,0-11.7
			c-4,0-7.8,0-11.8,0c0-6.6,0-13.1,0-19.7c7.8,0,15.5,0,23.4,0C171.3,178.5,171.3,189,171.3,199.5z M226.7,190.3
			c-15,0-27.1-12.1-27.1-27.1c0-15,12.1-27.1,27.1-27.1c15,0,27.1,12.1,27.1,27.1C253.8,178.1,241.7,190.3,226.7,190.3z
			 M305.8,187.7c-4,0-7.8,0-11.9,0c0,4,0,7.9,0,11.8c-4,0-7.8,0-11.7,0c0-10.4,0-20.9,0-31.5c4.6,0,9.1,0,13.6,0c2.8,0,5.7,0,8.5,0
			c0.5,0,1.4,0.6,1.4,0.9C305.8,175.1,305.8,181.3,305.8,187.7z"/>
		<ellipse class="st2" cx="215.6" cy="158.9" rx="38.9" ry="34"/>
		<g>
			<g>
				<g>
					<g>
						<path class="st1" d="M216.9,133.1c-12.9,0-23.4,10.5-23.4,23.4S204,180,216.9,180s23.4-10.5,23.4-23.4
							S229.8,133.1,216.9,133.1z M216.7,175.8c-10.5,0-19.1-8.5-19.1-19.1s8.5-19.1,19.1-19.1c10.5,0,19.1,8.5,19.1,19.1
							S227.2,175.8,216.7,175.8z"/>
					</g>
				</g>
			</g>
			<g>
				<path class="st1" d="M229.2,159.9c0.2-1.5,0.6-5.2-1.3-9.1c-3.2-6.5-10-7.3-11-7.5c-7.7,1.8-12.8,7.1-12.8,13.6
					c0,4.6,2.7,10.7,8.3,12.4c3,0.9,7.5,1.2,9.5-1.3c0.9-1.1,1.4-3,1.1-4.6c-0.1-0.7-0.4-1.1-0.6-1.4c-0.6-0.6-1.7-0.9-2.5-0.4
					c-0.1,0-0.6,0.4-0.8,1.1c0,0.2-0.1,0.5,0,0.7c0.2,0.5,1,0.7,1.5,0.4c0.4-0.2,0.4-0.7,0.5-0.7c0.2,0,0.4,1.2,0,2.2
					c-0.5,1.5-1.9,2.1-2,2.1c-1.4,0.6-2.9,0.1-3.8-0.4c-1.8-1.2-2.5-4.2-1.4-7.2L229.2,159.9z M222,146.7c0.1,0,0.3,0.1,0.3,0.2
					c0,0.1-0.1,0.2-0.2,0.2c-0.1,0-0.2-0.1-0.2-0.2C221.7,146.8,221.8,146.7,222,146.7z M224.8,149.4c1,0.9,1.6,2.2,1.6,3.6
					c0,2.7-2.2,4.8-4.8,4.8c-2.7,0-4.8-2.2-4.8-4.8s2.2-4.8,4.8-4.8c0.8,0,1.6,0.2,2.3,0.6 M220.2,145.2c0.1,0,0.3,0.1,0.3,0.3
					c0,0.2-0.1,0.3-0.3,0.3c-0.1,0-0.3-0.1-0.3-0.3C220,145.4,220.1,145.2,220.2,145.2z M218.6,146.1c0.5,0,0.9,0.4,0.9,0.9
					c0,0.6-0.4,1-0.9,1c-0.5,0-0.9-0.4-0.9-1C217.7,146.5,218.1,146.1,218.6,146.1z M213.7,145.2c0.3-0.5,0.9-0.8,1.5-1
					c0.5-0.1,1-0.1,1.5,0.1c0.7,0.3,1,1,0.5,1.7c-0.3,0.5-0.8,0.7-1.3,0.9c-0.5,0.1-1.1,0.2-1.6,0
					C213.6,146.6,213.3,145.9,213.7,145.2z M207,156.5c-0.2,0-0.4-0.2-0.4-0.3c0-0.2,0.2-0.4,0.4-0.3c0.2,0,0.4,0.2,0.4,0.4
					C207.4,156.3,207.2,156.5,207,156.5z M208.3,154.5c-0.1,0.2-0.4,0.2-0.5,0c-0.2-0.2-0.2-0.7,0-0.9c0.1-0.2,0.3-0.2,0.5,0
					c0.1,0.1,0.1,0.3,0.1,0.5C208.4,154.2,208.4,154.4,208.3,154.5z M208.1,152.4c-0.6,0-1.1-0.5-1.1-1.1c0-0.6,0.5-1.1,1.1-1.1
					c0.6,0,1.1,0.5,1.1,1.1C209.2,152,208.7,152.4,208.1,152.4z M209.8,149.9c-1-0.3-1.2-1.3-0.5-2.1c0.4-0.5,1.1-0.7,1.7-0.7
					c0.4,0,0.8,0.1,1.1,0.3c0.5,0.3,0.6,0.9,0.4,1.4c-0.2,0.5-0.6,0.8-1.1,1C210.9,150.1,210.4,150.1,209.8,149.9z M211.5,153.2
					c-0.5,0.1-0.8-0.2-0.8-0.7c0-0.6,0.5-1.3,1.1-1.4c0.4-0.1,0.8,0.1,0.9,0.6C212.7,152.3,212.1,153.2,211.5,153.2z M213.1,149.5
					c0.1-0.7,0.6-1.3,1.3-1.5c0.6-0.1,1.1,0.3,1.1,1c0,0.8-0.8,1.5-1.6,1.5C213.5,150.5,213.1,150.1,213.1,149.5z"/>
				<path class="st1" d="M223.7,149"/>
				<path class="st1" d="M224,148.8c-0.5,0-0.8,0.4-0.8,0.9c0,0.5,0.4,0.9,0.9,0.9c0.5,0,0.9-0.4,0.9-0.9c0-0.1,0-0.2,0-0.3"/>
			</g>
		</g>
		<path class="st1" d="M272.4,145.8c0-9.3,0-18.4,0-27.7c-37,0-73.8,0-110.7,0c0,9.2,0,18.2,0,27.6c-12,0-23.8,0-35.6,0
			c0,15.7,0,31.5,0,47.2c3.9,0,7.8,0,11.8,0c0,4.2,0,8,0,12c4,0,7.8,0,11.8,0c0,4,0,7.8,0,11.8c4,0,7.8,0,11.8,0c0,4.1,0,7.9,0,12
			c4,0,7.9,0,11.9,0c0,4,0,7.8,0,11.8c4,0,7.8,0,11.9,0c0,4,0,7.9,0,11.9c4,0,7.9,0,11.7,0c0,4,0,7.8,0,11.8c-7.8,0-15.5,0-23.5,0
			c0,4,0,7.9,0,11.9c-4.1,0-7.9,0-12,0c0,8,0,15.9,0,23.7c36.9,0,73.9,0,110.8,0c0-7.8,0-15.6,0-23.7c-4,0-7.9,0-11.9,0
			c0-4,0-7.9,0-11.8c-7.9,0-15.7,0-23.5,0c0-4,0-7.9,0-11.9c3.8,0,7.6,0,11.6,0c0-4,0-7.9,0-11.9c4,0,7.9,0,11.9,0c0-4,0-7.8,0-11.8
			c4,0,7.8,0,11.9,0c0-4.1,0-7.9,0-11.9c4,0,7.8,0,11.7,0c0-3.9,0-7.7,0-11.8c4.1,0,7.9,0,12,0c0-4,0-7.9,0-11.9c4,0,7.8,0,11.8,0
			c0-15.9,0-31.5,0-47.4C296.1,145.8,284.4,145.8,272.4,145.8z M161.5,193c-3.9,0-7.7,0-11.7,0c0-3.9,0-7.7,0-11.7
			c-4,0-7.8,0-11.8,0c0-6.6,0-13.1,0-19.7c7.8,0,15.5,0,23.4,0C161.5,172.1,161.5,182.5,161.5,193z M217,183.8
			c-15,0-27.1-12.1-27.1-27.1c0-15,12.1-27.1,27.1-27.1s27.1,12.1,27.1,27.1C244.1,171.6,232,183.8,217,183.8z M296.1,181.2
			c-4,0-7.8,0-11.9,0c0,4,0,7.9,0,11.8c-4,0-7.8,0-11.7,0c0-10.4,0-20.9,0-31.5c4.6,0,9.1,0,13.6,0c2.8,0,5.7,0,8.5,0
			c0.5,0,1.4,0.6,1.4,0.9C296.1,168.7,296.1,174.9,296.1,181.2z"/>
	</g>
</g>
</svg>
